<svg id="Component_389_1" data-name="Component 389 – 1" xmlns="http://www.w3.org/2000/svg" width="230" height="230" viewBox="0 0 230 230">
  <g id="Component_79_2" data-name="Component 79 – 2">
    <circle id="Ellipse_3" data-name="Ellipse 3" cx="115" cy="115" r="115" fill="#fff"/>
  </g>
  <g id="ic_mint_experience" transform="translate(30.344 30.418)">
    <g id="Group_117" data-name="Group 117">
      <path id="Path_208" data-name="Path 208" d="M262.487,286.918H232.2c-1.611,8.355-5.85,9.637-7.219,16.4-.953,4.7-.254,10.161,1.217,15.339a43.117,43.117,0,0,1-19.521,5.258V342.73a57.039,57.039,0,0,0,55.814-55.812Z" transform="translate(-120.954 -200.895)" fill="#00b180"/>
      <path id="Path_209" data-name="Path 209" d="M215.455,302.808c.3.652.556,1.222.693,1.449a.931.931,0,0,0,.316.051h.049a2.222,2.222,0,0,0,.91-.206,14.829,14.829,0,0,0-.332-2.077,24.928,24.928,0,0,0-1.753-5.3.693.693,0,0,1,.263-.919.654.654,0,0,1,.321-.084.664.664,0,0,1,.587.357,18.047,18.047,0,0,1,1.136,2.873,16.331,16.331,0,0,0,3.744-.908A5.264,5.264,0,0,0,225,292.415a.677.677,0,0,1,.547-.776.625.625,0,0,1,.111-.011.666.666,0,0,1,.654.574,6.973,6.973,0,0,1-.12,2.216,7.118,7.118,0,0,0,5.609-4.784c2.392-6.041-2.318-8.653-2.52-8.762a.691.691,0,0,1-.285-.909.653.653,0,0,1,.9-.3,7.938,7.938,0,0,1,1.908,1.582,10.036,10.036,0,0,0-.757-5.516,7.982,7.982,0,0,0-3.215-3.8,7.276,7.276,0,0,1-.236,2.121.665.665,0,0,1-.632.468.64.64,0,0,1-.212-.035.684.684,0,0,1-.419-.854c.015-.049,1.425-4.852-4.018-8.247a9.491,9.491,0,0,0-5.029-1.574,7.483,7.483,0,0,0-4.567,1.517.654.654,0,0,1-.943-.1.692.692,0,0,1,.092-.946,8.508,8.508,0,0,1,2.984-1.466,10.2,10.2,0,0,0-6.264-1.932c-6.241,0-7.753,2.953-7.766,2.977a.666.666,0,0,1-.6.4.628.628,0,0,1-.281-.067.689.689,0,0,1-.323-.9,3.54,3.54,0,0,1,.372-.6,12.7,12.7,0,0,0-10.01,4.954c-3.672,4.569-2.925,8.507-1.865,10.8a6.167,6.167,0,0,1,1.026-2.228.65.65,0,0,1,.945-.081.691.691,0,0,1,.078.948c-.1.127-2.442,3.1.773,6.612a5.352,5.352,0,0,0,4.086,1.834,8.161,8.161,0,0,0,3.831-1.07.655.655,0,0,1,.914.245.692.692,0,0,1-.236.924,9.834,9.834,0,0,1-2.657,1.014,12.021,12.021,0,0,0,4.881,4.267,11.626,11.626,0,0,0,5.07,1.128c-.234-.234-.46-.446-.674-.634a.694.694,0,0,1-.077-.951.653.653,0,0,1,.944-.08,36.174,36.174,0,0,1,5.9,7.4A50.992,50.992,0,0,1,215.455,302.808Z" transform="translate(-123.485 -204.285)" fill="none" stroke="#1d1d1b" stroke-width="1"/>
      <path id="Path_210" data-name="Path 210" d="M220.22,276.441a.669.669,0,0,1,.642-.507.721.721,0,0,1,.176.024.685.685,0,0,1,.467.831,4.681,4.681,0,0,1-3.458,3.3,10.951,10.951,0,0,1,.786,2.549,5.481,5.481,0,0,1,2.977-1.038,3.486,3.486,0,0,1,2.159.736c2.243,1.713,1.608,4.456.96,5.667a.662.662,0,0,1-.583.355.653.653,0,0,1-.327-.088.691.691,0,0,1-.255-.919c.053-.1,1.3-2.488-.588-3.924a2.224,2.224,0,0,0-1.372-.468,4.89,4.89,0,0,0-2.862,1.311,5.5,5.5,0,0,1-.7,2.492,7.077,7.077,0,0,1-1.462,1.83,8.92,8.92,0,0,1,.512,4.6.667.667,0,0,1-.654.567.8.8,0,0,1-.115-.01.682.682,0,0,1-.54-.784,7.59,7.59,0,0,0-.341-3.6,4.519,4.519,0,0,1-1.978.505c-.088,0-.145,0-.158,0a.68.68,0,0,1-.609-.732.672.672,0,0,1,.656-.627l.055,0,.053,0c.341,0,2.116-.118,3.436-2.433,1.236-2.169-.09-5.121-.521-5.964l-.17-.021c-3.883-.63-4.9-5.053-4.946-5.243a.685.685,0,0,1,.5-.813.653.653,0,0,1,.148-.016.664.664,0,0,1,.649.53c.009.035.868,3.713,3.857,4.2a4.16,4.16,0,0,0,.645.055A3.164,3.164,0,0,0,220.22,276.441Z" transform="translate(-120.333 -202.575)" fill="#1d1d1b"/>
      <path id="Path_211" data-name="Path 211" d="M206.763,269.655a16.954,16.954,0,0,1,4.664-.653c.363,0,.726.014,1.083.037.177-1.225.8-3.5,2.961-3.692a.476.476,0,0,1,.057,0,.681.681,0,0,1,.055,1.357c-1.206.1-1.613,1.612-1.747,2.488,3.243.544,5.219,2.455,5.306,5.15a.675.675,0,0,1-.634.7h-.032a.67.67,0,0,1-.663-.658c-.032-1.007-.543-3.406-4.574-3.912a14.133,14.133,0,0,0-1.779-.111,16.052,16.052,0,0,0-3.958.5,7.977,7.977,0,0,1,.521,4.646.664.664,0,0,1-.648.528.6.6,0,0,1-.153-.018.681.681,0,0,1-.5-.813,6.247,6.247,0,0,0-.989-4.686,4.931,4.931,0,0,0-3.534-1.773.679.679,0,0,1-.017-1.357l.035,0h.007A6.181,6.181,0,0,1,206.763,269.655Z" transform="translate(-121.623 -203.705)" fill="#1d1d1b"/>
      <path id="Path_212" data-name="Path 212" d="M199.5,265.251a5.1,5.1,0,0,0,2.927-2,.658.658,0,0,1,.922-.212.692.692,0,0,1,.2.931,6.328,6.328,0,0,1-3.749,2.6.688.688,0,0,1-.153.018.663.663,0,0,1-.646-.528A.683.683,0,0,1,199.5,265.251Z" transform="translate(-121.955 -204.019)" fill="#1d1d1b"/>
      <path id="Path_213" data-name="Path 213" d="M192.1,269.192a2.9,2.9,0,0,0-1.234.285.631.631,0,0,1-.276.062.664.664,0,0,1-.608-.407.687.687,0,0,1,.332-.892,4.157,4.157,0,0,1,1.765-.406,4.509,4.509,0,0,1,2.635.918,6.569,6.569,0,0,1,4.29-1.617.681.681,0,0,1,0,1.362,5.527,5.527,0,0,0-5.4,5.631.665.665,0,1,1-1.329,0,7.142,7.142,0,0,1,1.509-4.394A3.041,3.041,0,0,0,192.1,269.192Z" transform="translate(-123.136 -203.472)" fill="#1d1d1b"/>
      <path id="Path_214" data-name="Path 214" d="M209.136,283.76a3.509,3.509,0,0,1-2.085,2.39,3.165,3.165,0,0,1-1.01.17c-2.445,0-3.977-2.979-4.041-3.106a.688.688,0,0,1,.276-.911.651.651,0,0,1,.313-.082.658.658,0,0,1,.59.367c.012.024,1.23,2.366,2.883,2.366a1.867,1.867,0,0,0,.578-.095,2.184,2.184,0,0,0,1.217-1.465,2.809,2.809,0,0,0-.706-2.6A5.073,5.073,0,0,0,203.681,279a7.031,7.031,0,0,1-3.8-1.684c-.014-.011-.026-.025-.04-.036a5.076,5.076,0,0,1-4.406,2.5,6.1,6.1,0,0,1-3.035-.827.691.691,0,0,1-.218-.925.666.666,0,0,1,.571-.33.656.656,0,0,1,.348.1,4.878,4.878,0,0,0,2.334.623,3.863,3.863,0,0,0,3.482-2.2,5.361,5.361,0,0,1-.28-5.51.666.666,0,0,1,.571-.331.65.65,0,0,1,.348.1.693.693,0,0,1,.223.927,3.9,3.9,0,0,0,.986,4.892,5.849,5.849,0,0,0,3.175,1.364,6.3,6.3,0,0,1,4.232,2.251,5.69,5.69,0,0,1,.472.671,5.98,5.98,0,0,1,2.233-.459,4.76,4.76,0,0,1,1.944.406,5,5,0,0,1,3.058,4.229.678.678,0,0,1-.665.7.67.67,0,0,1-.665-.66,3.627,3.627,0,0,0-2.26-3.02,3.421,3.421,0,0,0-1.4-.289,4.723,4.723,0,0,0-1.729.353A3.778,3.778,0,0,1,209.136,283.76Z" transform="translate(-122.854 -203.049)" fill="#1d1d1b"/>
      <path id="Path_215" data-name="Path 215" d="M208.563,290.781a.654.654,0,0,1-.483-.214.7.7,0,0,1,.018-.954,5.492,5.492,0,0,0,1.46-3.486,3.206,3.206,0,0,0-.728-2.163.7.7,0,0,1-.02-.954.666.666,0,0,1,.484-.214.654.654,0,0,1,.463.194,4.593,4.593,0,0,1,1.13,3.13,6.874,6.874,0,0,1-1.861,4.467A.648.648,0,0,1,208.563,290.781Z" transform="translate(-120.795 -201.432)" fill="#1d1d1b"/>
      <path id="Path_216" data-name="Path 216" d="M244.723,341.885l6.5,8.94a84.937,84.937,0,0,0,29.509-40.392L270.1,306.98A73.73,73.73,0,0,1,244.723,341.885Z" transform="translate(-115.999 -198.283)" fill="#00b180"/>
      <path id="Path_217" data-name="Path 217" d="M278.6,263.656l-10.76,3.495a73.948,73.948,0,0,1,0,43.16l10.637,3.455a85.2,85.2,0,0,0,.123-50.11Z" transform="translate(-112.989 -203.925)" fill="#00b180"/>
      <path id="Path_218" data-name="Path 218" d="M253.921,226.155A84.3,84.3,0,0,0,210.5,210.807v11.447a73.166,73.166,0,0,1,36.713,13.135Z" transform="translate(-120.456 -210.807)" fill="#00b180"/>
      <path id="Path_219" data-name="Path 219" d="M210.5,352.261v11a84.3,84.3,0,0,0,43.205-15.2l-6.492-8.936A73.154,73.154,0,0,1,210.5,352.261Z" transform="translate(-120.456 -194.096)" fill="#00b180"/>
      <path id="Path_220" data-name="Path 220" d="M270.1,269.788l10.769-3.5a84.953,84.953,0,0,0-29.44-40.635l-6.706,9.229A73.752,73.752,0,0,1,270.1,269.788Z" transform="translate(-115.999 -208.874)" fill="#00b180"/>
      <path id="Path_221" data-name="Path 221" d="M141.979,290.967H130.833a84.468,84.468,0,0,0,23.85,53.14l7.787-7.787A73.313,73.313,0,0,1,141.979,290.967Z" transform="translate(-130.831 -200.368)" fill="#00b180"/>
      <path id="Path_222" data-name="Path 222" d="M162.434,241.478l-7.973-7.974a84.458,84.458,0,0,0-23.631,52.966H142A73.3,73.3,0,0,1,162.434,241.478Z" transform="translate(-130.831 -207.851)" fill="#00b180"/>
      <path id="Path_223" data-name="Path 223" d="M205.974,222.285V210.863a84.463,84.463,0,0,0-52.717,23.867l7.976,7.976A73.3,73.3,0,0,1,205.974,222.285Z" transform="translate(-127.911 -210.8)" fill="#00b180"/>
      <path id="Path_224" data-name="Path 224" d="M153.457,340.4a84.462,84.462,0,0,0,52.491,23.644V353a73.307,73.307,0,0,1-44.7-20.386Z" transform="translate(-127.885 -194.945)" fill="#00b180"/>
      <path id="Path_225" data-name="Path 225" d="M232.823,285.287a47.338,47.338,0,0,1-.262,5.91h29.926a57.037,57.037,0,0,0-55.814-55.812V260.16A26.7,26.7,0,0,1,232.823,285.287Z" transform="translate(-120.954 -207.606)" fill="#00b180"/>
      <path id="Path_226" data-name="Path 226" d="M209.911,260.38c.345-.049.693-.088,1.042-.121V235.385A57.035,57.035,0,0,0,155.141,291.2h30.307c-.176-2.26-.917-4.553-.287-8.479C187.1,268.206,200.44,260.5,209.911,260.38Z" transform="translate(-127.665 -207.606)" fill="#00b180"/>
      <path id="Path_227" data-name="Path 227" d="M201.731,314.966c-17.566,2.779-16.413-4.088-15.941-4.929a4.912,4.912,0,0,0,.576-2.2,1.912,1.912,0,0,1-1.6-2.735c.471-.576-.026-1.252-.5-1.672s-.63-1.728-.262-1.937,1.258-1.89.682-2.257c-2.989-.975-3.786-1.026-3.911-2.4,0-2.3,2.691-2.353,4.46-9.432.043-.166.072-.328.1-.488h-30.2a57.037,57.037,0,0,0,55.812,55.812V323.91a43.784,43.784,0,0,1-5.344-.47A38.585,38.585,0,0,0,201.731,314.966Z" transform="translate(-127.665 -200.895)" fill="#00b180"/>
    </g>
  </g>
</svg>
