<svg id="Component_390_1" data-name="Component 390 – 1" xmlns="http://www.w3.org/2000/svg" width="230" height="230" viewBox="0 0 230 230">
  <g id="Component_383_1" data-name="Component 383 – 1">
    <circle id="Ellipse_4" data-name="Ellipse 4" cx="115" cy="115" r="115" fill="#fff"/>
  </g>
  <g id="ic_mint_express" transform="translate(53.118 30.418)">
    <g id="Group_130" data-name="Group 130" transform="translate(0.001)">
      <g id="Group_118" data-name="Group 118" transform="translate(-0.001 0)">
        <path id="Path_228" data-name="Path 228" d="M260.711,584.962H230.42c-1.611,8.355-5.85,9.638-7.219,16.4-.953,4.7-.254,10.161,1.217,15.339a43.124,43.124,0,0,1-19.521,5.258v18.817a57.039,57.039,0,0,0,55.814-55.812Z" transform="translate(-146.654 -498.939)" fill="#00b180"/>
        <path id="Path_229" data-name="Path 229" d="M213.679,600.852c.3.652.556,1.222.693,1.449a.937.937,0,0,0,.316.051h.049a2.221,2.221,0,0,0,.91-.206,14.659,14.659,0,0,0-.332-2.077,24.862,24.862,0,0,0-1.753-5.3.693.693,0,0,1,.263-.919.654.654,0,0,1,.321-.084.664.664,0,0,1,.587.357,18.069,18.069,0,0,1,1.136,2.872,16.238,16.238,0,0,0,3.744-.906,5.264,5.264,0,0,0,3.614-5.627.677.677,0,0,1,.547-.776.614.614,0,0,1,.111-.011.668.668,0,0,1,.656.574,6.972,6.972,0,0,1-.12,2.216,7.117,7.117,0,0,0,5.608-4.784c2.392-6.041-2.318-8.653-2.52-8.762a.691.691,0,0,1-.285-.909.653.653,0,0,1,.9-.3,7.939,7.939,0,0,1,1.908,1.582,10.03,10.03,0,0,0-.757-5.517,7.984,7.984,0,0,0-3.215-3.794,7.276,7.276,0,0,1-.236,2.122.665.665,0,0,1-.632.468.641.641,0,0,1-.212-.035.686.686,0,0,1-.419-.855c.015-.049,1.425-4.852-4.018-8.247a9.489,9.489,0,0,0-5.029-1.574,7.487,7.487,0,0,0-4.567,1.517.654.654,0,0,1-.943-.1.694.694,0,0,1,.092-.947,8.556,8.556,0,0,1,2.984-1.465,10.2,10.2,0,0,0-6.264-1.932c-6.24,0-7.753,2.953-7.766,2.977a.666.666,0,0,1-.6.4.628.628,0,0,1-.281-.067.687.687,0,0,1-.322-.9,3.406,3.406,0,0,1,.371-.6A12.7,12.7,0,0,0,188.2,565.7c-3.672,4.57-2.925,8.507-1.865,10.8a6.136,6.136,0,0,1,1.027-2.228.649.649,0,0,1,.944-.081.691.691,0,0,1,.078.948c-.1.127-2.442,3.1.773,6.612a5.354,5.354,0,0,0,4.086,1.834,8.159,8.159,0,0,0,3.831-1.07.655.655,0,0,1,.914.245.691.691,0,0,1-.236.924,9.814,9.814,0,0,1-2.657,1.013,12.022,12.022,0,0,0,4.881,4.268,11.643,11.643,0,0,0,5.071,1.128c-.235-.234-.461-.446-.675-.634a.694.694,0,0,1-.077-.95.653.653,0,0,1,.944-.08,36.219,36.219,0,0,1,5.9,7.4A50.953,50.953,0,0,1,213.679,600.852Z" transform="translate(-149.185 -502.329)" fill="none" stroke="#1d1d1b" stroke-width="1"/>
        <path id="Path_230" data-name="Path 230" d="M218.445,574.484a.666.666,0,0,1,.641-.507.719.719,0,0,1,.176.024.685.685,0,0,1,.467.831,4.679,4.679,0,0,1-3.458,3.3,11.028,11.028,0,0,1,.787,2.55,5.473,5.473,0,0,1,2.976-1.037,3.486,3.486,0,0,1,2.159.736c2.244,1.712,1.608,4.456.961,5.667a.665.665,0,0,1-.584.355.652.652,0,0,1-.327-.088.692.692,0,0,1-.255-.919c.053-.1,1.3-2.488-.588-3.924a2.225,2.225,0,0,0-1.372-.468,4.894,4.894,0,0,0-2.862,1.311,5.483,5.483,0,0,1-.7,2.492,7.079,7.079,0,0,1-1.462,1.83,8.92,8.92,0,0,1,.512,4.6.668.668,0,0,1-.654.567.8.8,0,0,1-.115-.01.682.682,0,0,1-.54-.784,7.591,7.591,0,0,0-.341-3.6,4.519,4.519,0,0,1-1.978.505c-.088,0-.145,0-.157,0a.678.678,0,0,1-.609-.732.671.671,0,0,1,.656-.627l.054,0,.053,0c.341,0,2.116-.118,3.436-2.433,1.236-2.17-.09-5.121-.521-5.964l-.168-.021c-3.885-.63-4.9-5.053-4.946-5.243a.683.683,0,0,1,.5-.813.65.65,0,0,1,.148-.016.666.666,0,0,1,.65.53c.008.035.867,3.713,3.856,4.2a4.161,4.161,0,0,0,.645.055A3.166,3.166,0,0,0,218.445,574.484Z" transform="translate(-146.033 -500.619)" fill="#1d1d1b"/>
        <path id="Path_231" data-name="Path 231" d="M204.987,567.7a16.953,16.953,0,0,1,4.664-.653c.363,0,.726.013,1.083.037.177-1.225.8-3.5,2.961-3.692a.479.479,0,0,1,.058,0,.681.681,0,0,1,.054,1.357c-1.206.1-1.613,1.612-1.747,2.488,3.243.544,5.219,2.455,5.306,5.15a.675.675,0,0,1-.634.7H216.7a.67.67,0,0,1-.663-.658c-.032-1.007-.541-3.406-4.574-3.912a14.15,14.15,0,0,0-1.779-.111,16.032,16.032,0,0,0-3.957.5,7.982,7.982,0,0,1,.52,4.646.664.664,0,0,1-.648.528.6.6,0,0,1-.153-.018.682.682,0,0,1-.5-.813,6.247,6.247,0,0,0-.989-4.686,4.928,4.928,0,0,0-3.533-1.773.679.679,0,0,1-.018-1.357l.035,0h.007A6.181,6.181,0,0,1,204.987,567.7Z" transform="translate(-147.323 -501.749)" fill="#1d1d1b"/>
        <path id="Path_232" data-name="Path 232" d="M197.725,563.295a5.1,5.1,0,0,0,2.927-2,.658.658,0,0,1,.922-.212.692.692,0,0,1,.2.931,6.328,6.328,0,0,1-3.749,2.6.688.688,0,0,1-.153.018.664.664,0,0,1-.646-.528A.683.683,0,0,1,197.725,563.295Z" transform="translate(-147.655 -502.063)" fill="#1d1d1b"/>
        <path id="Path_233" data-name="Path 233" d="M190.322,567.236a2.9,2.9,0,0,0-1.234.285.63.63,0,0,1-.276.062.664.664,0,0,1-.608-.407.687.687,0,0,1,.332-.892,4.159,4.159,0,0,1,1.765-.406,4.509,4.509,0,0,1,2.635.918,6.566,6.566,0,0,1,4.291-1.617.681.681,0,0,1,0,1.362,5.528,5.528,0,0,0-5.406,5.631.664.664,0,1,1-1.328,0A7.141,7.141,0,0,1,192,567.777,3.042,3.042,0,0,0,190.322,567.236Z" transform="translate(-148.836 -501.516)" fill="#1d1d1b"/>
        <path id="Path_234" data-name="Path 234" d="M207.359,581.8a3.509,3.509,0,0,1-2.085,2.39,3.164,3.164,0,0,1-1.01.17c-2.444,0-3.977-2.979-4.041-3.106a.688.688,0,0,1,.276-.911.651.651,0,0,1,.9.285c.012.024,1.23,2.365,2.883,2.365a1.868,1.868,0,0,0,.578-.095,2.181,2.181,0,0,0,1.217-1.465,2.809,2.809,0,0,0-.706-2.6,5.073,5.073,0,0,0-3.469-1.793,7.031,7.031,0,0,1-3.8-1.684c-.014-.011-.026-.025-.04-.036a5.076,5.076,0,0,1-4.406,2.5,6.1,6.1,0,0,1-3.035-.827.691.691,0,0,1-.217-.926.665.665,0,0,1,.57-.329.655.655,0,0,1,.348.1,4.878,4.878,0,0,0,2.334.623,3.866,3.866,0,0,0,3.483-2.2,5.36,5.36,0,0,1-.281-5.51.666.666,0,0,1,.571-.331.65.65,0,0,1,.348.1.692.692,0,0,1,.223.927,3.908,3.908,0,0,0,.986,4.892,5.848,5.848,0,0,0,3.175,1.364,6.3,6.3,0,0,1,4.232,2.251,5.7,5.7,0,0,1,.472.671,5.982,5.982,0,0,1,2.234-.459,4.752,4.752,0,0,1,1.943.406,5,5,0,0,1,3.058,4.229.678.678,0,0,1-.665.7.668.668,0,0,1-.663-.661,3.632,3.632,0,0,0-2.26-3.019,3.43,3.43,0,0,0-1.4-.289,4.712,4.712,0,0,0-1.728.353A3.79,3.79,0,0,1,207.359,581.8Z" transform="translate(-148.554 -501.093)" fill="#1d1d1b"/>
        <path id="Path_235" data-name="Path 235" d="M206.787,588.825a.654.654,0,0,1-.483-.214.7.7,0,0,1,.018-.954,5.5,5.5,0,0,0,1.46-3.486,3.205,3.205,0,0,0-.728-2.163.694.694,0,0,1-.019-.954.662.662,0,0,1,.483-.214.654.654,0,0,1,.463.194,4.586,4.586,0,0,1,1.13,3.13,6.873,6.873,0,0,1-1.86,4.465A.649.649,0,0,1,206.787,588.825Z" transform="translate(-146.494 -499.476)" fill="#1d1d1b"/>
        <path id="Path_236" data-name="Path 236" d="M242.947,639.929l6.5,8.94a84.936,84.936,0,0,0,29.509-40.392l-10.628-3.453A73.729,73.729,0,0,1,242.947,639.929Z" transform="translate(-141.699 -496.327)" fill="#00b180"/>
        <path id="Path_237" data-name="Path 237" d="M276.824,561.7l-10.76,3.495a73.948,73.948,0,0,1,0,43.16L276.7,611.81a85.21,85.21,0,0,0,.122-50.11Z" transform="translate(-138.689 -501.969)" fill="#00b180"/>
        <path id="Path_238" data-name="Path 238" d="M252.146,524.2a84.307,84.307,0,0,0-43.422-15.348V520.3a73.166,73.166,0,0,1,36.713,13.135Z" transform="translate(-146.156 -508.851)" fill="#00b180"/>
        <path id="Path_239" data-name="Path 239" d="M208.724,650.305v11a84.3,84.3,0,0,0,43.205-15.2l-6.492-8.936A73.154,73.154,0,0,1,208.724,650.305Z" transform="translate(-146.156 -492.14)" fill="#00b180"/>
        <path id="Path_240" data-name="Path 240" d="M268.324,567.832l10.769-3.5a84.946,84.946,0,0,0-29.44-40.635l-6.706,9.229A73.751,73.751,0,0,1,268.324,567.832Z" transform="translate(-141.699 -506.918)" fill="#00b180"/>
        <path id="Path_241" data-name="Path 241" d="M231.047,583.331a47.122,47.122,0,0,1-.262,5.91h29.926A57.037,57.037,0,0,0,204.9,533.429V558.2A26.7,26.7,0,0,1,231.047,583.331Z" transform="translate(-146.654 -505.65)" fill="#00b180"/>
        <path id="Path_242" data-name="Path 242" d="M208.135,558.424c.345-.049.693-.088,1.043-.122V533.429a57.035,57.035,0,0,0-55.813,55.812h30.308c-.177-2.26-.918-4.553-.288-8.479C185.325,566.25,198.664,558.539,208.135,558.424Z" transform="translate(-153.365 -505.65)" fill="none" stroke="#1d1d1b" stroke-width="1"/>
        <path id="Path_243" data-name="Path 243" d="M199.955,613.01c-17.566,2.779-16.413-4.088-15.941-4.929a4.93,4.93,0,0,0,.578-2.2,1.913,1.913,0,0,1-1.6-2.735c.472-.576-.026-1.252-.5-1.672s-.63-1.728-.262-1.938,1.258-1.889.682-2.256c-2.989-.975-3.786-1.026-3.911-2.4,0-2.3,2.691-2.353,4.461-9.432.042-.166.071-.328.1-.488h-30.2a57.037,57.037,0,0,0,55.813,55.812V621.954a43.763,43.763,0,0,1-5.344-.47A38.628,38.628,0,0,0,199.955,613.01Z" transform="translate(-153.365 -498.939)" fill="none" stroke="#1d1d1b" stroke-width="1"/>
      </g>
    </g>
  </g>
</svg>
