<svg xmlns="http://www.w3.org/2000/svg" width="58.611" height="60.976" viewBox="0 0 58.611 60.976">
  <g id="ic_cost_efficient" transform="translate(0 0.5)">
    <g id="Group_900" data-name="Group 900" transform="translate(0 4.082)">
      <path id="Path_2800" data-name="Path 2800" d="M568.82,582.893c1.375,2.469,1.284,4.636-.186,6.014a3.277,3.277,0,0,1-3.89.387c-1.648-1-1.911-2.661-.938-6.022-.487-.111-.849.234-1.271.325-.888.19-1.087.719-.935,1.575a15.463,15.463,0,0,1-2.819,11.79,9.115,9.115,0,0,1-2.245,2.543c-1.578,1.066-1.852,2.632-2.041,4.306-.111.975-.273,1.945-.459,2.908a1.382,1.382,0,0,1-1.44,1.2c-1.364.027-2.731.036-4.093,0-.927-.026-1.379-.557-1.544-1.487-.3-1.666-.342-1.66-2.009-1.362a19.48,19.48,0,0,1-6.779.011c-.715-.123-1,0-1.177.723-.516,2.137-.545,2.132-2.708,2.131-.948,0-1.9,0-2.843-.009a1.615,1.615,0,0,1-1.773-1.637c-.147-1.235-.49-2.452-.576-3.688a2.572,2.572,0,0,0-1.155-1.943,16.962,16.962,0,0,1-5.069-6.434,2.783,2.783,0,0,0-2.136-1.5c-1.546-.39-1.814-.691-1.817-2.222,0-2.2.039-4.4-.018-6.6-.028-1.1.38-1.768,1.451-1.936a3.854,3.854,0,0,0,3.019-2.421,13.478,13.478,0,0,1,3.164-4.12,1.281,1.281,0,0,0,.359-1.594q-1.018-2.877-1.944-5.784c-.117-.367-.367-.854.057-1.159.35-.251.716.077,1.04.234,2.171,1.054,4.344,2.1,6.494,3.2a2.524,2.524,0,0,0,2.039.135c8.245-2.409,15.7-1.054,22.1,4.872a14.242,14.242,0,0,1,3.605,5.3c.26.666.6.913,1.341.656a7.017,7.017,0,0,1,4.12-.209c1.03.26,2.068-.313,3.148-.235a6.119,6.119,0,0,1,4.41,2.464c.175.212.291-.323,0,0s-.414.852-.668.73C571.457,583.473,570.339,582.716,568.82,582.893Z" transform="translate(-518.897 -551.548)" fill="#00b180"/>
      <path id="Path_2801" data-name="Path 2801" d="M564.2,541.145a4.84,4.84,0,1,1-9.68-.117,4.917,4.917,0,0,1,4.86-4.81A4.819,4.819,0,0,1,564.2,541.145Z" transform="translate(-536.751 -536.218)" fill="#00b180"/>
      <path id="Path_2802" data-name="Path 2802" d="M558.342,577.762a16.477,16.477,0,0,1,4.7.581,4.842,4.842,0,0,1,.745.264.79.79,0,0,1,.479,1.1c-.21.574-.572.546-1.084.381a16.188,16.188,0,0,0-9.688-.033c-.462.135-.955.478-1.22-.238a.918.918,0,0,1,.707-1.294A16.342,16.342,0,0,1,558.342,577.762Z" transform="translate(-535.587 -557.039)" fill="#008873"/>
      <path id="Path_2803" data-name="Path 2803" d="M614.25,602.168a1.976,1.976,0,0,1-1.485,2.123c-.805.058-1.487-.734-1.52-1.766-.034-1.067.754-2.47,1.388-2.474C613.226,600.048,614.232,601.364,614.25,602.168Z" transform="translate(-565.186 -568.215)" fill="#00b180"/>
      <path id="Path_2804" data-name="Path 2804" d="M536.223,595.133a1.471,1.471,0,0,1,1.484-1.5,1.5,1.5,0,0,1,1.6,1.511,1.468,1.468,0,0,1-1.61,1.491A1.432,1.432,0,0,1,536.223,595.133Z" transform="translate(-527.582 -564.997)" fill="#008873"/>
    </g>
    <path id="Path_2805" data-name="Path 2805" d="M531.144,562.882l3.437-4.083,7.061,6.625-1.447,2.23-3.8,3.514-3.215,1.328Z" transform="translate(-525.036 -543.455)" fill="#00b180"/>
    <path id="Path_2806" data-name="Path 2806" d="M613.158,599.763l8.242-8.881-3.491-2.425h-6.2l-2.992.693-1,2.494,2.064,3.707,1.861,2.875Z" transform="translate(-563.421 -558.321)" fill="#00b180"/>
    <path id="Path_2807" data-name="Path 2807" d="M577.578,640.368l3.591-4.27-5.376-2.857-4.2-.893-4.935,1.66,6.954,6.36Z" transform="translate(-542.837 -580.32)" fill="#00b180"/>
    <path id="Path_2808" data-name="Path 2808" d="M548.547,637.546l3.69-4.01-2.585-6.818-3.99,2.808-2.548,3.367v1.87l.927,1.4Z" transform="translate(-531.036 -577.499)" fill="#00b180"/>
    <path id="Path_2809" data-name="Path 2809" d="M519.289,594.43l3.666-4.42,4.032,3.047L522,596.13l-.748,1.01Z" transform="translate(-519.094 -559.099)" fill="#00b180"/>
    <g id="Group_901" data-name="Group 901" transform="translate(3.437 0)">
      <path id="Path_2810" data-name="Path 2810" d="M575.713,574.708c1.375,2.469,1.283,4.636-.187,6.014a3.279,3.279,0,0,1-3.89.387c-1.647-1-1.91-2.661-.938-6.023-.487-.111-.849.234-1.27.325-.888.191-1.088.718-.934,1.574a15.467,15.467,0,0,1-2.819,11.79,9.122,9.122,0,0,1-2.246,2.544c-1.578,1.065-1.851,2.632-2.041,4.306-.11.974-.273,1.945-.459,2.908a1.384,1.384,0,0,1-1.44,1.2c-1.365.026-2.73.036-4.094,0-.926-.026-1.377-.557-1.543-1.488-.3-1.666-.342-1.66-2.01-1.362a19.469,19.469,0,0,1-6.779.011c-.714-.123-1,0-1.177.723-.515,2.137-.544,2.131-2.708,2.131-.947,0-1.895,0-2.843-.008a1.614,1.614,0,0,1-1.773-1.638c-.147-1.235-.49-2.451-.577-3.688a2.575,2.575,0,0,0-1.153-1.943,16.953,16.953,0,0,1-5.07-6.433,2.778,2.778,0,0,0-2.136-1.5c-1.546-.39-1.814-.692-1.817-2.222,0-2.2.039-4.4-.017-6.6-.029-1.1.38-1.768,1.451-1.936a3.854,3.854,0,0,0,3.018-2.42,13.451,13.451,0,0,1,3.164-4.12,1.28,1.28,0,0,0,.358-1.594q-1.017-2.877-1.942-5.785c-.118-.366-.368-.854.056-1.159.351-.251.716.077,1.041.235,2.171,1.053,4.344,2.1,6.493,3.2a2.524,2.524,0,0,0,2.039.134c8.245-2.409,15.7-1.053,22.1,4.872a14.224,14.224,0,0,1,3.6,5.3c.261.666.6.913,1.343.655a7.017,7.017,0,0,1,4.119-.209c1.031.26,2.069-.313,3.147-.234a6.118,6.118,0,0,1,4.412,2.463c.175.212.425.481.135.8s-.55.048-.8-.073C578.349,575.288,577.231,574.531,575.713,574.708Z" transform="translate(-525.79 -543.363)" fill="#fff" stroke="#1d1d1b" stroke-width="1"/>
      <path id="Path_2811" data-name="Path 2811" d="M571.087,532.959a4.84,4.84,0,1,1-9.68-.116,4.917,4.917,0,0,1,4.859-4.81A4.821,4.821,0,0,1,571.087,532.959Z" transform="translate(-543.643 -528.033)" fill="#fff" stroke="#1d1d1b" stroke-width="1"/>
      <path id="Path_2812" data-name="Path 2812" d="M565.234,569.577a16.514,16.514,0,0,1,4.7.581,4.943,4.943,0,0,1,.746.264.79.79,0,0,1,.478,1.1c-.208.575-.571.546-1.084.381a16.19,16.19,0,0,0-9.688-.033c-.462.135-.955.478-1.22-.238a.919.919,0,0,1,.708-1.295A16.363,16.363,0,0,1,565.234,569.577Z" transform="translate(-542.479 -548.855)"/>
      <path id="Path_2813" data-name="Path 2813" d="M621.143,593.983a1.976,1.976,0,0,1-1.486,2.123c-.8.058-1.487-.734-1.519-1.766-.034-1.066.753-2.469,1.388-2.474C620.119,591.863,621.124,593.178,621.143,593.983Z" transform="translate(-572.079 -560.03)" fill="#00b180"/>
      <path id="Path_2814" data-name="Path 2814" d="M543.113,586.948a1.472,1.472,0,0,1,1.486-1.5,1.5,1.5,0,0,1,1.6,1.511,1.469,1.469,0,0,1-1.61,1.491A1.434,1.434,0,0,1,543.113,586.948Z" transform="translate(-534.473 -556.812)" fill="#1d1d1b"/>
    </g>
    <g id="Group_902" data-name="Group 902" transform="translate(24.466 2.307)">
      <path id="Path_2815" data-name="Path 2815" d="M569.365,537.174a3.006,3.006,0,0,1-1.412-.568l.467-.682a2.375,2.375,0,0,0,.975.485v-.951c-.861-.233-1.286-.557-1.286-1.269v-.011c0-.658.5-1.095,1.256-1.173v-.347h.621v.366a2.451,2.451,0,0,1,1.113.436l-.4.7a2.578,2.578,0,0,0-.741-.353v.909c.909.245,1.3.61,1.3,1.28v.012c0,.67-.514,1.1-1.268,1.178v.592h-.621Zm.029-2.608v-.813c-.293.036-.412.18-.412.371v.012C568.983,534.327,569.066,534.447,569.395,534.566Zm.563,1.035v.837c.28-.042.424-.168.424-.382v-.013C570.382,535.846,570.28,535.721,569.958,535.6Z" transform="translate(-567.953 -532.658)"/>
    </g>
  </g>
</svg>
