<svg xmlns="http://www.w3.org/2000/svg" width="45.998" height="45.644" viewBox="0 0 45.998 45.644">
  <g id="Component_96_2" data-name="Component 96 – 2" transform="translate(0 0.25)">
    <path id="Path_12032" data-name="Path 12032" d="M2149.885-451.14l-1.288,1.059h1.317Z" transform="translate(-2139.76 451.14)" fill="#00b180"/>
    <path id="Path_12033" data-name="Path 12033" d="M2111.518-436.79a2.115,2.115,0,0,0-2.348-2.367c-1.979-.014-3.957,0-5.935,0h-.553v-2.222h-26.687v2.222h-6.163c-1.163,0-1.722.15-2.166.771a2.839,2.839,0,0,0-.509,1.654v6.01a20.164,20.164,0,0,0,.53,2.26,9.879,9.879,0,0,0,7.884,6.734c.356.071.473.191.478.545a12.974,12.974,0,0,0,1.462,5.909,13.154,13.154,0,0,0,8.43,6.811l.472.132a2.47,2.47,0,0,1-.06.307c-.445,1.34-.9,2.678-1.335,4.022a.4.4,0,0,1-.455.329c-1.5-.012-3-.008-4.5-.005a2.164,2.164,0,0,0-2.274,1.624q-.8,2.285-1.6,4.573c-.045.132-.081.27-.13.438h26.552c-.042-.153-.073-.291-.118-.423q-.809-2.329-1.623-4.655a2.146,2.146,0,0,0-2.192-1.556c-1.473-.005-2.945,0-4.419,0h-.488q-.775-2.329-1.523-4.579c.918-.342,1.823-.6,2.661-1a13,13,0,0,0,7.409-9.289,20.981,20.981,0,0,0,.317-2.747.38.38,0,0,1,.37-.413,9.833,9.833,0,0,0,8.039-6.943,11.3,11.3,0,0,0,.456-3.021C2111.571-433.38,2111.523-435.087,2111.518-436.79Zm-35.524,10.676a6,6,0,0,1-3.2-2.132,5.693,5.693,0,0,1-1.215-3.7c.013-.905,0-1.811,0-2.746h4.408Zm30.778-3.741a5.686,5.686,0,0,1-3.608,3.641c-.146.05-.3.071-.486.113v-8.589h4.412c0,.512,0,1.026,0,1.54A9.47,9.47,0,0,1,2106.772-429.855Z" transform="translate(-2067.157 442.443)" fill="#00b180"/>
    <path id="Path_12034" data-name="Path 12034" d="M2124.135-446.546a2.115,2.115,0,0,0-2.348-2.367c-1.978-.014-3.957,0-5.935,0h-.553v-2.222h-26.687v2.222h-6.162c-1.163,0-1.721.15-2.166.771a2.838,2.838,0,0,0-.51,1.654v6.01a6.626,6.626,0,0,0,.5,2.361,9.8,9.8,0,0,0,7.913,6.633c.356.071.473.191.478.545a12.98,12.98,0,0,0,1.462,5.909,13.154,13.154,0,0,0,8.431,6.811l.472.132a2.515,2.515,0,0,1-.06.307c-.445,1.34-.9,2.678-1.335,4.022a.4.4,0,0,1-.455.329c-1.5-.012-3-.008-4.5-.005a2.165,2.165,0,0,0-2.274,1.625q-.8,2.285-1.6,4.573c-.045.132-.08.27-.13.438h26.552c-.042-.153-.073-.291-.118-.423q-.809-2.329-1.624-4.655a2.145,2.145,0,0,0-2.192-1.556c-1.473-.005-2.945,0-4.419,0h-.487q-.775-2.329-1.523-4.579c.918-.342,1.823-.6,2.661-1a13,13,0,0,0,7.409-9.289,21.024,21.024,0,0,0,.317-2.747.38.38,0,0,1,.37-.414,9.833,9.833,0,0,0,8.039-6.943,11.278,11.278,0,0,0,.456-3.021C2124.188-443.136,2124.141-444.843,2124.135-446.546Zm-35.524,10.676a6,6,0,0,1-3.195-2.132,5.693,5.693,0,0,1-1.215-3.7c.013-.905,0-1.811,0-2.745h4.408Zm30.779-3.741a5.686,5.686,0,0,1-3.608,3.641c-.146.05-.3.071-.486.113v-8.589h4.412c0,.512,0,1.025,0,1.54A9.464,9.464,0,0,1,2119.39-439.611Z" transform="translate(-2078.406 451.14)" fill="#fff" stroke="#000" stroke-width="0.5"/>
    <g id="Group_12695" data-name="Group 12695" transform="translate(17.221 8.294)">
      <path id="Path_3059" data-name="Path 3059" d="M2244.8-354.694l.687,2.116a.937.937,0,0,0,.891.647h2.225a.937.937,0,0,1,.937.937.936.936,0,0,1-.386.758l-1.8,1.308a.938.938,0,0,0-.34,1.047l.688,2.116a.937.937,0,0,1-.6,1.181.936.936,0,0,1-.84-.133l-1.8-1.308a.937.937,0,0,0-1.1,0l-1.8,1.308a.937.937,0,0,1-1.309-.207.938.938,0,0,1-.133-.84l.687-2.116a.937.937,0,0,0-.34-1.047l-1.8-1.308a.938.938,0,0,1-.207-1.309.937.937,0,0,1,.758-.386h2.225a.937.937,0,0,0,.891-.647l.688-2.116a.936.936,0,0,1,1.18-.6A.936.936,0,0,1,2244.8-354.694Z" transform="translate(-2238.28 356.408)" fill="#00b180"/>
      <g id="Path_3058" data-name="Path 3058" transform="translate(1.019)">
        <path id="Path_12035" data-name="Path 12035" d="M2255.644-350.929a.767.767,0,0,1-.459-.155l-1.863-1.353a1.145,1.145,0,0,0-.677-.22,1.145,1.145,0,0,0-.677.22l-1.862,1.353a.77.77,0,0,1-.459.155.816.816,0,0,1-.647-.336.761.761,0,0,1-.1-.7l.712-2.19a1.15,1.15,0,0,0-.419-1.289l-1.863-1.353a.768.768,0,0,1-.286-.88.767.767,0,0,1,.748-.543h2.3a1.15,1.15,0,0,0,1.1-.8l.711-2.19a.767.767,0,0,1,.748-.544.767.767,0,0,1,.748.544l.711,2.19a1.15,1.15,0,0,0,1.1.8h2.3a.767.767,0,0,1,.749.544.768.768,0,0,1-.286.879l-1.862,1.353a1.149,1.149,0,0,0-.419,1.289l.711,2.19a.76.76,0,0,1-.1.7A.817.817,0,0,1,2255.644-350.929Z" transform="translate(-2246.815 361.931)" fill="#fff"/>
        <path id="Path_12036" data-name="Path 12036" d="M2251.5-362.709a.589.589,0,0,0-.574.417l-.711,2.19a1.331,1.331,0,0,1-1.27.923h-2.3a.588.588,0,0,0-.574.417.589.589,0,0,0,.219.675l1.863,1.353a1.332,1.332,0,0,1,.485,1.493l-.712,2.19a.583.583,0,0,0,.079.535.631.631,0,0,0,.5.26.589.589,0,0,0,.352-.12l1.863-1.353a1.329,1.329,0,0,1,.785-.255,1.328,1.328,0,0,1,.785.255l1.863,1.353a.589.589,0,0,0,.352.12.631.631,0,0,0,.5-.26.582.582,0,0,0,.079-.535l-.711-2.19a1.331,1.331,0,0,1,.485-1.493l1.863-1.353a.589.589,0,0,0,.219-.675.589.589,0,0,0-.574-.417h-2.3a1.332,1.332,0,0,1-1.27-.923l-.711-2.19a.589.589,0,0,0-.574-.417m0-.366a.952.952,0,0,1,.922.67l.711,2.19a.97.97,0,0,0,.922.67h2.3a.97.97,0,0,1,.57,1.754l-1.863,1.353a.971.971,0,0,0-.352,1.084l.711,2.19a.969.969,0,0,1-1.492,1.084l-1.863-1.353a.97.97,0,0,0-1.14,0l-1.863,1.353a.969.969,0,0,1-1.492-1.084l.711-2.19a.969.969,0,0,0-.352-1.084l-1.863-1.353a.97.97,0,0,1,.57-1.754h2.3a.969.969,0,0,0,.922-.67l.711-2.19A.952.952,0,0,1,2251.5-363.075Z" transform="translate(-2245.671 363.075)"/>
      </g>
    </g>
  </g>
</svg>
