<svg xmlns="http://www.w3.org/2000/svg" width="375" height="703" viewBox="0 0 375 703">
  <g id="Group_11587" data-name="Group 11587" transform="translate(0 -44)">
    <rect id="Rectangle_543" data-name="Rectangle 543" width="375" height="703" transform="translate(0 44)" fill="#fff"/>
    <text id="WORK" transform="translate(54 191)" font-size="18" font-family="SegoeUI, Segoe UI"><tspan x="0" y="0">WORK</tspan></text>
    <text id="Offering" transform="translate(54 238)" font-size="18" font-family="SegoeUI, Segoe UI" opacity="0.499"><tspan x="0" y="0">OFFERING</tspan></text>
    <text id="Client" transform="translate(54 285)" font-size="18" font-family="SegoeUI, Segoe UI" opacity="0.499"><tspan x="0" y="0">CLIENT</tspan></text>
    <text id="Lets_talk" data-name="Lets talk" transform="translate(54 332)" font-size="18" font-family="SegoeUI, Segoe UI" opacity="0.499"><tspan x="0" y="0">LETS TALK</tspan></text>
    <g id="ic_instagram" transform="translate(99.717 618.984)">
      <g id="Group_11585" data-name="Group 11585" transform="translate(-99.717 -440.617)">
        <rect id="Rectangle_4" data-name="Rectangle 4" width="38.73" height="38.73" rx="13" transform="translate(99.717 442.738)" fill="#00b180"/>
        <g id="Group_19" data-name="Group 19" transform="translate(101.763 440.617)">
          <g id="Group_18" data-name="Group 18" transform="translate(0 0)">
            <g id="Group_17" data-name="Group 17">
              <g id="Group_983" data-name="Group 983" transform="translate(27.386 6.923)">
                <path id="Path_3062" data-name="Path 3062" d="M-2078.882,2558.247a2.068,2.068,0,0,1-2.065-2.066,2.046,2.046,0,0,1,.6-1.459,2.049,2.049,0,0,1,1.461-.606,2.069,2.069,0,0,1,2.069,2.065,2.075,2.075,0,0,1-2.066,2.066Z" transform="translate(2081.154 -2553.909)" fill="#fff"/>
                <path id="Path_3063" data-name="Path 3063" d="M-2079.674,2553.53a1.86,1.86,0,0,1,1.858,1.857,1.867,1.867,0,0,1-1.858,1.859,1.861,1.861,0,0,1-1.858-1.859,1.84,1.84,0,0,1,.542-1.312,1.844,1.844,0,0,1,1.314-.545h0m0-.414h0a2.27,2.27,0,0,0-2.27,2.273,2.272,2.272,0,0,0,2.273,2.272,2.277,2.277,0,0,0,2.273-2.272,2.272,2.272,0,0,0-2.273-2.273Z" transform="translate(2081.947 -2553.116)"/>
              </g>
              <g id="Path_10" data-name="Path 10" transform="translate(9.996 9.837)">
                <path id="Path_3064" data-name="Path 3064" d="M-2155.56,2586.874a9.359,9.359,0,0,1-9.344-9.346,9.356,9.356,0,0,1,9.346-9.343,9.308,9.308,0,0,1,6.6,2.743,9.3,9.3,0,0,1,2.74,6.6,9.359,9.359,0,0,1-9.346,9.343Zm-.021-15.687a6.29,6.29,0,0,0-4.476,1.863,6.286,6.286,0,0,0-1.845,4.481,6.344,6.344,0,0,0,6.334,6.324,6.347,6.347,0,0,0,6.335-6.336,6.349,6.349,0,0,0-6.336-6.333Z" transform="translate(2165.111 -2567.977)" fill="#fff"/>
                <path id="Path_3065" data-name="Path 3065" d="M-2156.352,2567.6h0a9.1,9.1,0,0,1,6.458,2.682,9.1,9.1,0,0,1,2.68,6.457,9.152,9.152,0,0,1-9.139,9.136,9.152,9.152,0,0,1-9.137-9.139,9.148,9.148,0,0,1,9.138-9.136m-.01,15.671h.011a6.552,6.552,0,0,0,6.531-6.543v-.013a6.554,6.554,0,0,0-6.544-6.527h-.011a6.5,6.5,0,0,0-4.623,1.924,6.492,6.492,0,0,0-1.906,4.628,6.551,6.551,0,0,0,6.541,6.531m.011-16.085a9.553,9.553,0,0,0-9.553,9.55,9.555,9.555,0,0,0,9.551,9.553,9.555,9.555,0,0,0,9.553-9.55,9.543,9.543,0,0,0-2.8-6.75,9.544,9.544,0,0,0-6.75-2.8Zm-.011,15.671a6.126,6.126,0,0,1-6.126-6.117,6.124,6.124,0,0,1,6.114-6.137h.01a6.13,6.13,0,0,1,6.13,6.115v.011a6.13,6.13,0,0,1-6.117,6.129Z" transform="translate(2165.904 -2567.184)"/>
              </g>
              <g id="Path_11" data-name="Path 11">
                <path id="Path_3066" data-name="Path 3066" d="M-2201.723,2559.058a11.473,11.473,0,0,1-11.44-11.443v-15.483a11.468,11.468,0,0,1,11.44-11.44h15.483a11.473,11.473,0,0,1,11.443,11.441v15.483a11.478,11.478,0,0,1-11.443,11.443h-15.483Zm0-35.135a8.227,8.227,0,0,0-8.205,8.208v15.483a8.228,8.228,0,0,0,8.205,8.208h15.484a8.232,8.232,0,0,0,8.208-8.208v-15.484a8.232,8.232,0,0,0-8.208-8.208Z" transform="translate(2213.37 -2520.484)" fill="#fff"/>
                <path id="Path_3067" data-name="Path 3067" d="M-2187.032,2520.106h0a11.265,11.265,0,0,1,11.236,11.233v15.483a11.27,11.27,0,0,1-11.236,11.236h-15.483a11.265,11.265,0,0,1-11.234-11.236V2531.34a11.26,11.26,0,0,1,11.233-11.233h15.483m-15.484,35.132h15.484a8.44,8.44,0,0,0,8.415-8.416v-15.484a8.44,8.44,0,0,0-8.416-8.415h-15.484a8.435,8.435,0,0,0-8.412,8.416v15.484a8.435,8.435,0,0,0,8.412,8.415m15.484-35.546h-15.483a11.657,11.657,0,0,0-11.647,11.647v15.483a11.663,11.663,0,0,0,11.647,11.65h15.483a11.667,11.667,0,0,0,11.65-11.65v-15.483a11.661,11.661,0,0,0-11.65-11.647Zm-15.483,35.132a8.01,8.01,0,0,1-8-8v-15.483a8.008,8.008,0,0,1,8-8h15.483a8.012,8.012,0,0,1,8,8v15.483a8.012,8.012,0,0,1-8,8Z" transform="translate(2214.163 -2519.692)"/>
              </g>
            </g>
          </g>
        </g>
        <path id="Path_3068" data-name="Path 3068" d="M-2173.065,2537.294h-15.483a8.008,8.008,0,0,0-8,8v15.483a8.01,8.01,0,0,0,8,8h15.483a8.012,8.012,0,0,0,8-8V2545.3A8.012,8.012,0,0,0-2173.065,2537.294Zm-7.584,25.3a9.555,9.555,0,0,1-9.551-9.553,9.553,9.553,0,0,1,9.553-9.55,9.544,9.544,0,0,1,6.75,2.8,9.544,9.544,0,0,1,2.8,6.75A9.555,9.555,0,0,1-2180.649,2562.589Zm10.112-17.472a2.272,2.272,0,0,1-2.272-2.273,2.27,2.27,0,0,1,2.27-2.273h0a2.272,2.272,0,0,1,2.273,2.273A2.277,2.277,0,0,1-2170.537,2545.117Z" transform="translate(2301.959 -2093.031)" fill="#fff"/>
        <path id="Path_3069" data-name="Path 3069" d="M-2137.156,2589.792v.011a6.13,6.13,0,0,1-6.117,6.129,6.126,6.126,0,0,1-6.137-6.117,6.124,6.124,0,0,1,6.115-6.137A6.13,6.13,0,0,1-2137.156,2589.792Z" transform="translate(2264.586 -2129.807)" fill="#fff"/>
      </g>
    </g>
    <g id="ic_facebook" transform="translate(54 619.144)">
      <g id="Group_985" data-name="Group 985">
        <g id="Group_984" data-name="Group 984" transform="translate(0)">
          <path id="Path_13" data-name="Path 13" d="M-2438.641,2539.824v5.3h-6.112v6.958h6.112V2569.5h7.521v-17.409h5.609l1.068-6.958h-6.677v-4.516a3.48,3.48,0,0,1,3.157-3.775,3.491,3.491,0,0,1,.762.016h3.036v-5.923a37.01,37.01,0,0,0-5.389-.47C-2435.048,2530.464-2438.641,2533.8-2438.641,2539.824Z" transform="translate(2444.753 -2528.393)" fill="#00b180"/>
          <g id="Path_13-2" data-name="Path 13" transform="translate(2.071)">
            <path id="Path_3070" data-name="Path 3070" d="M-2427.641,2560.085v-17.413h-6.112v-6.544h6.112v-5.511c0-5.732,3.32-9.154,8.881-9.154a37.042,37.042,0,0,1,5.182.44v5.539h-2.816a3.721,3.721,0,0,0-.466-.029c-.109,0-.219,0-.328.014a3.662,3.662,0,0,0-2.5,1.308,3.661,3.661,0,0,0-.844,2.692v4.705h6.643l-1,6.543h-5.639v17.409Z" transform="translate(2433.96 -2521.257)" fill="#fff"/>
            <path id="Path_3071" data-name="Path 3071" d="M-2419.556,2520.878a36.643,36.643,0,0,1,4.978.411v5.154h-2.6a3.9,3.9,0,0,0-.48-.03c-.115,0-.231.005-.346.015a3.867,3.867,0,0,0-2.641,1.381,3.869,3.869,0,0,0-.893,2.825v4.912h6.609l-.94,6.129h-5.668v17.409h-6.693v-17.413h-6.112v-6.13h6.112v-5.718c0-5.6,3.241-8.945,8.671-8.946m0-.414c-5.494,0-9.088,3.332-9.088,9.36v5.3h-6.112v6.958h6.112V2559.5h7.521V2542.09h5.609l1.068-6.958h-6.677v-4.516a3.48,3.48,0,0,1,3.157-3.775q.154-.014.309-.014a3.44,3.44,0,0,1,.453.03h3.036v-5.923a37,37,0,0,0-5.389-.47Z" transform="translate(2434.753 -2520.464)"/>
          </g>
          <path id="Path_3072" data-name="Path 3072" d="M-2444.753,2593.333l2.071-2.071v2.533Z" transform="translate(2444.753 -2576.597)" fill="#00b180"/>
          <path id="Path_3073" data-name="Path 3073" d="M-2341.853,2624.872" transform="translate(2363.167 -2603.246)" fill="#00b180"/>
          <path id="Path_3074" data-name="Path 3074" d="M-2376.862,2708.919l-2.072,2.071v-2.071" transform="translate(2392.567 -2669.884)" fill="#00b180"/>
        </g>
        <path id="Path_3075" data-name="Path 3075" d="M-2343.284,2551.329l-2.071,2.071v-2.071Z" transform="translate(2365.944 -2544.936)" fill="#00b180"/>
      </g>
    </g>
    <g id="ic_linkedIn" transform="translate(168.672 619.374)">
      <g id="Group_11566" data-name="Group 11566" transform="translate(-1190.5 -5550.61)">
        <rect id="Rectangle_526" data-name="Rectangle 526" width="38" height="39" rx="8" transform="translate(1190.5 5552.486)" fill="#00b180"/>
        <rect id="Rectangle_527" data-name="Rectangle 527" width="30" height="32" transform="translate(1196.5 5554.486)" fill="#fff"/>
        <path id="Path_9730" data-name="Path 9730" d="M266.758,298.587V273.6c.008-.04.019-.079.024-.119.028-.235.043-.472.085-.7A7.072,7.072,0,0,1,268.7,269.1a6.954,6.954,0,0,1,5.209-2.314q12.176-.027,24.353-.005a6.543,6.543,0,0,1,3.058.726,7.035,7.035,0,0,1,4.081,6.568c.033,8.015.012,16.031.008,24.046a7.674,7.674,0,0,1-.076,1.1,7.255,7.255,0,0,1-7.163,6.2q-12.085.019-24.169,0a7.012,7.012,0,0,1-1.471-.153,7.153,7.153,0,0,1-3.851-2.192,7.078,7.078,0,0,1-1.817-3.731C266.815,299.1,266.79,298.841,266.758,298.587Zm20.871.988v-.167q0-5.089,0-10.177a3.454,3.454,0,0,1,.447-1.781,3.047,3.047,0,0,1,3.873-1.363,2.338,2.338,0,0,1,1.221,1.475,6.447,6.447,0,0,1,.295,2.077q.007,4.893,0,9.785v.151h6.053V299.4q0-5.04,0-10.079a13.77,13.77,0,0,0-.164-2.258,8.238,8.238,0,0,0-.94-2.776,5.708,5.708,0,0,0-2.732-2.484,7.305,7.305,0,0,0-3.947-.49,5.276,5.276,0,0,0-3.659,2.179c-.147.2-.286.4-.429.6l-.038-.005v-2.474h-6.078v17.957Zm-8.945.009V281.619h-6.015c0,.05,0,.09,0,.131q0,1.251,0,2.5.006,2.605.014,5.211.009,4.984.013,9.969c0,.123.028.157.154.157q2.851-.007,5.7,0Zm-3.1-26.418c-.287.037-.577.056-.861.112a2.907,2.907,0,0,0-2.431,2.911,2.841,2.841,0,0,0,1.728,2.755,3.72,3.72,0,0,0,2.349.228,3.012,3.012,0,0,0,1.753-.975,2.894,2.894,0,0,0,.689-2.427,2.846,2.846,0,0,0-1.335-2.084A3.71,3.71,0,0,0,275.589,273.166Z" transform="translate(925.742 5283.836)" fill="#fff" stroke="#000" stroke-miterlimit="10" stroke-width="0.5"/>
      </g>
    </g>
    <g id="Group_11569" data-name="Group 11569">
      <text id="Close" transform="translate(75 116)" fill="#707070" font-size="18" font-family="SegoeUI, Segoe UI"><tspan x="0" y="0">Close</tspan></text>
      <g id="Group_11567" data-name="Group 11567" transform="translate(-13.523 14.527)">
        <path id="Path_9739" data-name="Path 9739" d="M-14822.477-11227.592l10.133,10.133" transform="translate(14890 11317.999)" fill="none" stroke="#707070" stroke-linecap="round" stroke-width="2"/>
        <path id="Path_9740" data-name="Path 9740" d="M-14812.344-11227.592l-10.133,10.133" transform="translate(14890 11317.999)" fill="none" stroke="#707070" stroke-linecap="round" stroke-width="2"/>
      </g>
    </g>
    <text id="_12_3456_7890" data-name="+ 12 3456 7890" transform="translate(85.25 590.852)" fill="#434343" font-size="13" font-family="SegoeUI, Segoe UI"><tspan x="0" y="0">+961 1 748 204</tspan></text>
    <text id="_12_3456_7890-2" data-name="+ 12 3456 7890" transform="translate(187.073 590.852)" fill="#434343" font-size="13" font-family="SegoeUI, Segoe UI"><tspan x="0" y="0">+961 1 748 205</tspan></text>
    <path id="Fill_1" data-name="Fill 1" d="M7.072,8.6C4.341,5.874,4.731,5.484,4.731,5.484L5.9,4.313a1.1,1.1,0,0,0,0-1.56L3.474.325A1.1,1.1,0,0,0,1.968.273,5.744,5.744,0,0,0,.049,3.143c-.39,1.95,1.561,4.681,4.681,7.8s5.852,5.071,7.8,4.681a5.744,5.744,0,0,0,2.87-1.919,1.1,1.1,0,0,0-.052-1.506L12.923,9.775a1.1,1.1,0,0,0-1.56,0l-1.17,1.171s-.39.39-3.121-2.341" transform="translate(59.75 576.852)" fill="#00b180"/>
    <text id="agensi_mail.com" data-name="agensi@mail.com" transform="translate(85.25 553.852)" fill="#434343" font-size="13" font-family="SegoeUI, Segoe UI"><tspan x="0" y="0">info@brandmint.com</tspan></text>
    <path id="Fill_1-2" data-name="Fill 1" d="M14.6,10.286H1.123A1.1,1.1,0,0,1,0,9.2V1.083A1.1,1.1,0,0,1,1.123,0H14.6a1.1,1.1,0,0,1,1.123,1.083V9.2A1.1,1.1,0,0,1,14.6,10.286ZM2.246,1.624a.57.57,0,0,0-.439.2.529.529,0,0,0,.087.761L7.508,6.926a.583.583,0,0,0,.7,0l5.614-4.339a.532.532,0,0,0,.207-.365.526.526,0,0,0-.12-.4.577.577,0,0,0-.789-.084L7.86,5.81,2.6,1.742A.567.567,0,0,0,2.246,1.624Z" transform="translate(59.75 543.709)" fill="#00b180"/>
    <path id="Path_9744" data-name="Path 9744" d="M-14652.831-10583.459v6.019" transform="translate(14835 11167)" fill="none" stroke="#707070" stroke-width="1"/>
  </g>
</svg>
