<svg id="ic_mail" xmlns="http://www.w3.org/2000/svg" width="15.719" height="10.286" viewBox="0 0 15.719 10.286">
  <path id="Fill_1" data-name="Fill 1" d="M14.6,10.286H1.123A1.1,1.1,0,0,1,0,9.2V1.083A1.1,1.1,0,0,1,1.123,0H14.6a1.1,1.1,0,0,1,1.123,1.083V9.2A1.1,1.1,0,0,1,14.6,10.286ZM2.246,1.624a.57.57,0,0,0-.439.2.529.529,0,0,0,.087.761L7.508,6.926a.583.583,0,0,0,.7,0l5.614-4.339a.532.532,0,0,0,.207-.365.526.526,0,0,0-.12-.4.577.577,0,0,0-.789-.084L7.86,5.81,2.6,1.742A.567.567,0,0,0,2.246,1.624Z" fill="#00b180"/>
</svg>