<svg id="Component_384_1" data-name="Component 384 – 1" xmlns="http://www.w3.org/2000/svg" width="380.452" height="39.459" viewBox="0 0 380.452 39.459">
  <g id="Group_106" data-name="Group 106" transform="translate(0.012 10.418)">
    <rect id="Rectangle_62" data-name="Rectangle 62" width="9.352" height="28.601" transform="translate(44.299)"/>
    <path id="Path_177" data-name="Path 177" d="M225.747,154.891v.006h0v1.738h8.344v26.854h8.985V156.634h8.315v-1.744Z" transform="translate(-136.076 -154.891)"/>
    <path id="Path_178" data-name="Path 178" d="M163.121,154.891H162.04l-.091.07-6.663,18.217-6.114-13.341a7.674,7.674,0,0,0-2.123-2.531,10.59,10.59,0,0,0-2.33-1.408,11.565,11.565,0,0,0-2.164-.717,13.2,13.2,0,0,0-2.247-.285h-7.925v.327a10.49,10.49,0,0,1,1.431.2,9.107,9.107,0,0,1,1.571.552,12.18,12.18,0,0,1,1.9,1.084,5.067,5.067,0,0,1,.674.611c.231.245.471.517.716.817l.326.448a32.734,32.734,0,0,1,2.37,4.086q1.225,2.448,2.45,5.165t2.432,5.453q1.2,2.74,2.306,4.925a25.833,25.833,0,0,0,2.1,3.554c.668.91,1.273,1.367,1.818,1.367h.362l.331-.087,9.436-25.8v25.885h9.149V154.9h-8.638Z" transform="translate(-132.384 -154.891)"/>
    <path id="Path_179" data-name="Path 179" d="M220.778,154.9h-.633v17.535l-13.236-14.719a9.483,9.483,0,0,0-2.368-1.613,15.806,15.806,0,0,0-2.044-.834,6.361,6.361,0,0,0-1.959-.37h-8.822v.327a6.188,6.188,0,0,1,1.388.655,14.854,14.854,0,0,1,1.491.979,18.042,18.042,0,0,1,1.776,1.514l1.168,1.2v23.92h.044v0h1.136v0h.563V161.422l19.392,21.046a2.752,2.752,0,0,0,2.409,1.021h.25v0h.551v0h0V154.9h-1.1Z" transform="translate(-134.73 -154.891)"/>
  </g>
  <g id="Group_107" data-name="Group 107" transform="translate(121.341 10.418)">
    <path id="Path_180" data-name="Path 180" d="M258.708,155.391h20.3v2.887H261.878v9.588H277.2v2.889H261.878v9.827h17.329v2.889h-20.5Z" transform="translate(-258.708 -154.911)"/>
    <path id="Path_181" data-name="Path 181" d="M295.284,169.15,284.9,155.391h3.729l8.624,11.472,8.545-11.472h3.689L299.1,169.11l10.791,14.362h-3.772L297.129,171.4l-8.985,12.075h-3.65Z" transform="translate(-259.728 -154.911)"/>
    <path id="Path_182" data-name="Path 182" d="M317.005,155.391h10.51c6.338,0,10.509,3.369,10.509,8.905v.079c0,6.058-5.054,9.187-11.03,9.187h-6.821v9.91h-3.169Zm10.108,15.285c4.654,0,7.7-2.489,7.7-6.179v-.082c0-4.011-3.008-6.1-7.541-6.1h-7.1v12.357Z" transform="translate(-261.013 -154.911)"/>
    <path id="Path_183" data-name="Path 183" d="M344.919,155.391h20.3v2.887H348.088v9.588h15.324v2.889H348.088v9.827h17.331v2.889h-20.5Z" transform="translate(-262.117 -154.911)"/>
    <path id="Path_184" data-name="Path 184" d="M372.919,155.391h12.074c3.449,0,6.217,1.044,7.982,2.807a7.757,7.757,0,0,1,2.166,5.537v.079c0,4.654-3.209,7.381-7.622,8.183l8.625,11.475h-3.89l-8.144-10.911h-8.024v10.911h-3.168Zm11.793,14.319c4.211,0,7.22-2.165,7.22-5.775v-.082c0-3.449-2.648-5.535-7.18-5.535h-8.665V169.71Z" transform="translate(-263.224 -154.911)"/>
    <path id="Path_185" data-name="Path 185" d="M403.425,155.391h3.169v28.081h-3.169Z" transform="translate(-264.43 -154.911)"/>
    <path id="Path_186" data-name="Path 186" d="M415.292,155.391h20.3v2.887H418.461v9.588h15.325v2.889H418.461v9.827h17.33v2.889h-20.5Z" transform="translate(-264.9 -154.911)"/>
    <path id="Path_187" data-name="Path 187" d="M443.291,155.391h2.968l17.691,22.5v-22.5h3.091v28.081h-2.53L446.38,160.444v23.028h-3.089Z" transform="translate(-266.007 -154.911)"/>
    <path id="Path_188" data-name="Path 188" d="M475.009,169.491v-.08c0-7.942,5.936-14.52,14.2-14.52a14.611,14.611,0,0,1,10.952,4.45l-2.167,2.329a12.2,12.2,0,0,0-8.825-3.85c-6.217,0-10.871,5.052-10.871,11.512v.08c0,6.5,4.694,11.593,10.871,11.593,3.852,0,6.378-1.484,9.066-4.051L500.322,179c-2.929,2.968-6.138,4.933-11.232,4.933C480.986,183.932,475.009,177.554,475.009,169.491Z" transform="translate(-267.261 -154.891)"/>
    <path id="Path_189" data-name="Path 189" d="M507.145,155.391h20.3v2.887H510.314v9.588h15.323v2.889H510.314v9.827h17.33v2.889h-20.5Z" transform="translate(-268.532 -154.911)"/>
  </g>
  <g id="Group_108" data-name="Group 108">
    <path id="Path_190" data-name="Path 190" d="M134.145,145.225h-1.773v-1.181H137.2v1.181h-1.772v4.646h-1.283Z" transform="translate(-132.372 -144.044)"/>
    <path id="Path_191" data-name="Path 191" d="M138.851,144.044h1.282v2.306H142.5v-2.306h1.281v5.827H142.5v-2.338h-2.364v2.338h-1.282Z" transform="translate(-132.628 -144.044)"/>
    <path id="Path_192" data-name="Path 192" d="M145.866,144.044h4.4v1.14H147.14v1.183h2.747v1.139H147.14v1.224H150.3v1.141h-4.436Z" transform="translate(-132.906 -144.044)"/>
  </g>
</svg>
