<svg id="Component_385_1" data-name="Component 385 – 1" xmlns="http://www.w3.org/2000/svg" width="311.274" height="39.92" viewBox="0 0 311.274 39.92">
  <g id="Group_110" data-name="Group 110" transform="translate(0.013 10.516)">
    <rect id="Rectangle_63" data-name="Rectangle 63" width="9.615" height="29.404" transform="translate(45.543)"/>
    <path id="Path_193" data-name="Path 193" d="M231.666,449.5v.006h0V451.3h8.579v27.609h9.237V451.3h8.548V449.5Z" transform="translate(-139.476 -449.505)"/>
    <path id="Path_194" data-name="Path 194" d="M167.28,449.505h-1.11l-.093.073-6.851,18.728-6.286-13.714a7.88,7.88,0,0,0-2.182-2.6,10.841,10.841,0,0,0-2.394-1.448,11.957,11.957,0,0,0-2.225-.737,13.659,13.659,0,0,0-2.31-.294h-8.147v.337a10.518,10.518,0,0,1,1.47.209,9.218,9.218,0,0,1,1.615.568,12.325,12.325,0,0,1,1.953,1.113,5.348,5.348,0,0,1,.693.628c.235.253.483.531.735.841l.336.46a33.868,33.868,0,0,1,2.436,4.2q1.258,2.518,2.52,5.311t2.5,5.606q1.239,2.818,2.371,5.064a26.639,26.639,0,0,0,2.163,3.653q1.03,1.4,1.868,1.406h.375l.34-.089,9.7-26.524v26.613h9.406v-29.4H167.28Z" transform="translate(-135.681 -449.505)"/>
    <path id="Path_195" data-name="Path 195" d="M226.558,449.511h-.651v18.028L212.3,452.408a9.672,9.672,0,0,0-2.435-1.657,15.94,15.94,0,0,0-2.1-.86,6.589,6.589,0,0,0-2.015-.38h-9.071v.337a6.354,6.354,0,0,1,1.427.671,15.6,15.6,0,0,1,1.532,1.007,18.871,18.871,0,0,1,1.828,1.556l1.2,1.234v24.59h.046v0h1.169v0h.578V456.22l19.936,21.636a2.829,2.829,0,0,0,2.477,1.05h.256v0h.567v0h0V449.511h-1.135Z" transform="translate(-138.093 -449.505)"/>
  </g>
  <g id="Group_111" data-name="Group 111" transform="translate(124.751 10.517)">
    <path id="Path_196" data-name="Path 196" d="M265.555,449.929h20.662v2.941H268.78v9.759h15.6v2.942h-15.6v10h17.642v2.941H265.555Z" transform="translate(-265.555 -449.522)"/>
    <path id="Path_197" data-name="Path 197" d="M302.791,463.937l-10.577-14.008h3.8l8.781,11.68,8.7-11.68h3.756L306.672,463.9l10.985,14.618h-3.84l-9.147-12.292-9.148,12.292H291.8Z" transform="translate(-266.593 -449.522)"/>
    <path id="Path_198" data-name="Path 198" d="M324.9,449.929h10.7c6.452,0,10.7,3.43,10.7,9.067v.081c0,6.167-5.145,9.353-11.231,9.353H328.13v10.087H324.9Zm10.29,15.56c4.738,0,7.84-2.532,7.84-6.29v-.081c0-4.084-3.062-6.209-7.675-6.209H328.13v12.58Z" transform="translate(-267.902 -449.522)"/>
    <path id="Path_199" data-name="Path 199" d="M353.323,449.929h12.291c3.511,0,6.329,1.062,8.126,2.859a7.9,7.9,0,0,1,2.205,5.634v.082c0,4.74-3.267,7.518-7.759,8.333l8.781,11.679h-3.961l-8.291-11.107h-8.168v11.107h-3.225Zm12.006,14.579c4.287,0,7.35-2.2,7.35-5.88v-.082c0-3.511-2.7-5.637-7.31-5.637h-8.821v11.6Z" transform="translate(-269.025 -449.522)"/>
    <path id="Path_200" data-name="Path 200" d="M384.082,449.929h20.664v2.941H387.308v9.759h15.6v2.942h-15.6v10h17.643v2.941H384.082Z" transform="translate(-270.242 -449.522)"/>
    <path id="Path_201" data-name="Path 201" d="M410.63,474.335l2-2.369c2.98,2.7,5.84,4.044,9.8,4.044,3.839,0,6.371-2.042,6.371-4.861v-.081c0-2.656-1.431-4.167-7.432-5.431-6.576-1.431-9.6-3.554-9.6-8.251V457.3c0-4.493,3.961-7.8,9.391-7.8a14.913,14.913,0,0,1,10.046,3.511l-1.879,2.49a12.55,12.55,0,0,0-8.247-3.1c-3.717,0-6.086,2.042-6.086,4.614v.082c0,2.7,1.47,4.207,7.76,5.555,6.372,1.389,9.31,3.716,9.31,8.085v.082c0,4.9-4.083,8.087-9.759,8.087A16.73,16.73,0,0,1,410.63,474.335Z" transform="translate(-271.291 -449.505)"/>
    <path id="Path_202" data-name="Path 202" d="M437.434,474.335l2-2.369c2.982,2.7,5.842,4.044,9.8,4.044,3.839,0,6.372-2.042,6.372-4.861v-.081c0-2.656-1.431-4.167-7.432-5.431-6.576-1.431-9.6-3.554-9.6-8.251V457.3c0-4.493,3.96-7.8,9.392-7.8a14.912,14.912,0,0,1,10.045,3.511l-1.878,2.49a12.555,12.555,0,0,0-8.25-3.1c-3.715,0-6.084,2.042-6.084,4.614v.082c0,2.7,1.47,4.207,7.76,5.555,6.371,1.389,9.312,3.716,9.312,8.085v.082c0,4.9-4.084,8.087-9.76,8.087A16.724,16.724,0,0,1,437.434,474.335Z" transform="translate(-272.351 -449.505)"/>
  </g>
  <g id="Group_112" data-name="Group 112">
    <path id="Path_203" data-name="Path 203" d="M137.491,439.769h-1.823v-1.213h4.964v1.213h-1.823v4.776h-1.318Z" transform="translate(-135.668 -438.556)"/>
    <path id="Path_204" data-name="Path 204" d="M142.329,438.556h1.318v2.37h2.431v-2.37H147.4v5.989h-1.318v-2.4h-2.431v2.4h-1.318Z" transform="translate(-135.931 -438.556)"/>
    <path id="Path_205" data-name="Path 205" d="M149.541,438.556h4.52v1.171H150.85v1.217h2.825v1.172H150.85v1.258H154.1v1.172h-4.562Z" transform="translate(-136.217 -438.556)"/>
  </g>
</svg>
