<svg id="Group_985" data-name="Group 985" xmlns="http://www.w3.org/2000/svg" width="22.66" height="41.106" viewBox="0 0 22.66 41.106">
  <g id="Group_984" data-name="Group 984" transform="translate(0)">
    <path id="Path_13" data-name="Path 13" d="M-2438.641,2539.824v5.3h-6.112v6.958h6.112V2569.5h7.521v-17.409h5.609l1.068-6.958h-6.677v-4.516a3.48,3.48,0,0,1,3.157-3.775,3.491,3.491,0,0,1,.762.016h3.036v-5.923a37.01,37.01,0,0,0-5.389-.47C-2435.048,2530.464-2438.641,2533.8-2438.641,2539.824Z" transform="translate(2444.753 -2528.393)" fill="#00b180"/>
    <g id="Path_13-2" data-name="Path 13" transform="translate(2.071)">
      <path id="Path_3070" data-name="Path 3070" d="M-2427.641,2560.085v-17.413h-6.112v-6.544h6.112v-5.511c0-5.732,3.32-9.154,8.881-9.154a37.042,37.042,0,0,1,5.182.44v5.539h-2.816a3.721,3.721,0,0,0-.466-.029c-.109,0-.219,0-.328.014a3.662,3.662,0,0,0-2.5,1.308,3.661,3.661,0,0,0-.844,2.692v4.705h6.643l-1,6.543h-5.639v17.409Z" transform="translate(2433.96 -2521.257)" fill="#fff"/>
      <path id="Path_3071" data-name="Path 3071" d="M-2419.556,2520.878a36.643,36.643,0,0,1,4.978.411v5.154h-2.6a3.9,3.9,0,0,0-.48-.03c-.115,0-.231.005-.346.015a3.867,3.867,0,0,0-2.641,1.381,3.869,3.869,0,0,0-.893,2.825v4.912h6.609l-.94,6.129h-5.668v17.409h-6.693v-17.413h-6.112v-6.13h6.112v-5.718c0-5.6,3.241-8.945,8.671-8.946m0-.414c-5.494,0-9.088,3.332-9.088,9.36v5.3h-6.112v6.958h6.112V2559.5h7.521V2542.09h5.609l1.068-6.958h-6.677v-4.516a3.48,3.48,0,0,1,3.157-3.775q.154-.014.309-.014a3.44,3.44,0,0,1,.453.03h3.036v-5.923a37,37,0,0,0-5.389-.47Z" transform="translate(2434.753 -2520.464)"/>
    </g>
    <path id="Path_3072" data-name="Path 3072" d="M-2444.753,2593.333l2.071-2.071v2.533Z" transform="translate(2444.753 -2576.597)" fill="#00b180"/>
    <path id="Path_3073" data-name="Path 3073" d="M-2341.853,2624.872" transform="translate(2363.167 -2603.246)" fill="#00b180"/>
    <path id="Path_3074" data-name="Path 3074" d="M-2376.862,2708.919l-2.072,2.071v-2.071" transform="translate(2392.567 -2669.884)" fill="#00b180"/>
  </g>
  <path id="Path_3075" data-name="Path 3075" d="M-2343.284,2551.329l-2.071,2.071v-2.071Z" transform="translate(2365.944 -2544.936)" fill="#00b180"/>
</svg>