<svg xmlns="http://www.w3.org/2000/svg" width="49.144" height="64.659" viewBox="0 0 49.144 64.659">
  <g id="ic_brand_style" transform="translate(0 0.25)">
    <g id="Group_911" data-name="Group 911">
      <g id="Group_905" data-name="Group 905" transform="translate(0 1.18)">
        <g id="Path_2816" data-name="Path 2816">
          <path id="Path_2924" data-name="Path 2924" d="M95.876,78.846l-6.182,6.229a3.6,3.6,0,0,1-2.54,1.044H51.673a3.605,3.605,0,0,1-3.6-3.595V31.534a3.564,3.564,0,0,1,.906-2.378l.332-.334.078-.07,5.856-5.861,1.642,5.036H87.151a3.616,3.616,0,0,1,3.595,3.608V75.841l3.446-1.7Z" transform="translate(-48.07 -22.89)" fill="#00b180"/>
        </g>
      </g>
      <g id="Group_906" data-name="Group 906" transform="translate(5.584)">
        <g id="Rectangle_347" data-name="Rectangle 347" transform="translate(0.318 0.318)">
          <rect id="Rectangle_351" data-name="Rectangle 351" width="42.676" height="58.201" rx="3" fill="#fff"/>
        </g>
        <g id="Path_2817" data-name="Path 2817">
          <path id="Path_2925" data-name="Path 2925" d="M108.854,77.213H73.376A3.929,3.929,0,0,1,69.46,73.3V22.286a3.932,3.932,0,0,1,3.916-3.916h35.478a3.932,3.932,0,0,1,3.916,3.916v51A3.929,3.929,0,0,1,108.854,77.213Zm-35.478-58.2A3.276,3.276,0,0,0,70.1,22.286v51a3.274,3.274,0,0,0,3.271,3.271h35.478a3.276,3.276,0,0,0,3.274-3.271v-51a3.279,3.279,0,0,0-3.274-3.274Z" transform="translate(-69.46 -18.37)" fill="#1d1d1b" stroke="#000" stroke-width="0.5"/>
        </g>
      </g>
    </g>
    <path id="Path_2926" data-name="Path 2926" d="M129.907,112.325h-21.88a.587.587,0,0,1,0-1.175h21.88a.587.587,0,0,1,0,1.175Z" transform="translate(-91.941 -86.929)"/>
    <path id="Path_2927" data-name="Path 2927" d="M128.507,147.675H105.1a.587.587,0,0,1,0-1.175h23.409a.587.587,0,1,1,0,1.175Z" transform="translate(-89.776 -113.049)"/>
    <path id="Path_2928" data-name="Path 2928" d="M128.507,182.925H105.1a.587.587,0,1,1,0-1.175h23.409a.587.587,0,1,1,0,1.175Z" transform="translate(-89.776 -139.098)"/>
    <path id="Path_2929" data-name="Path 2929" d="M107.525,60.513h21.882a.908.908,0,0,0,.762-1V55.3a.908.908,0,0,0-.762-1H107.525a.908.908,0,0,0-.765,1v4.208A.908.908,0,0,0,107.525,60.513Z" transform="translate(-91.438 -44.919)" fill="#fff"/>
    <path id="Path_2930" data-name="Path 2930" d="M127.742,59.438h-21.88a1.468,1.468,0,0,1-1.352-1.59V53.64a1.468,1.468,0,0,1,1.352-1.59h21.88a1.468,1.468,0,0,1,1.352,1.59v4.208A1.468,1.468,0,0,1,127.742,59.438Zm-21.88-6.213c-.034,0-.177.138-.177.415v4.208c0,.277.144.415.177.415h21.88c.034,0,.178-.138.178-.415V53.64c0-.277-.144-.415-.178-.415Z" transform="translate(-89.776 -43.257)"/>
    <rect id="Rectangle_362" data-name="Rectangle 362" width="23" height="6" transform="translate(15.312 9.072)"/>
    <path id="Rectangle_366" data-name="Rectangle 366" d="M0,0H0A0,0,0,0,1,0,0V2A0,0,0,0,1,0,2H0A0,0,0,0,1,0,2V0A0,0,0,0,1,0,0Z" transform="translate(31.312 13.072)" fill="#fff"/>
    <path id="Rectangle_367" data-name="Rectangle 367" d="M.5,0h0A.5.5,0,0,1,1,.5V2A0,0,0,0,1,1,2H0A0,0,0,0,1,0,2V.5A.5.5,0,0,1,.5,0Z" transform="translate(35.312 13.072)" fill="#fff"/>
    <path id="Rectangle_368" data-name="Rectangle 368" d="M.5,0h0A.5.5,0,0,1,1,.5V2A0,0,0,0,1,1,2H0A0,0,0,0,1,0,2V.5A.5.5,0,0,1,.5,0Z" transform="translate(32.312 13.072)" fill="#fff"/>
    <path id="Rectangle_369" data-name="Rectangle 369" d="M.5,0h0A.5.5,0,0,1,1,.5V2A0,0,0,0,1,1,2H0A0,0,0,0,1,0,2V.5A.5.5,0,0,1,.5,0Z" transform="translate(29.312 13.072)" fill="#fff"/>
    <path id="Rectangle_370" data-name="Rectangle 370" d="M.5,0h0A.5.5,0,0,1,1,.5V2A0,0,0,0,1,1,2H0A0,0,0,0,1,0,2V.5A.5.5,0,0,1,.5,0Z" transform="translate(26.312 13.072)" fill="#fff"/>
    <path id="Rectangle_371" data-name="Rectangle 371" d="M.5,0h0A.5.5,0,0,1,1,.5V2A0,0,0,0,1,1,2H0A0,0,0,0,1,0,2V.5A.5.5,0,0,1,.5,0Z" transform="translate(23.312 13.072)" fill="#fff"/>
    <path id="Rectangle_372" data-name="Rectangle 372" d="M.5,0h0A.5.5,0,0,1,1,.5V2A0,0,0,0,1,1,2H0A0,0,0,0,1,0,2V.5A.5.5,0,0,1,.5,0Z" transform="translate(20.312 13.072)" fill="#fff"/>
    <path id="Rectangle_373" data-name="Rectangle 373" d="M.5,0h0A.5.5,0,0,1,1,.5V2A0,0,0,0,1,1,2H0A0,0,0,0,1,0,2V.5A.5.5,0,0,1,.5,0Z" transform="translate(17.312 13.072)" fill="#fff"/>
  </g>
</svg>
