<svg id="ic_social_roadmap" xmlns="http://www.w3.org/2000/svg" width="57.306" height="64" viewBox="0 0 57.306 64">
  <g id="Group_972" data-name="Group 972" transform="translate(-148.485 -132.8)">
    <g id="Group_971" data-name="Group 971" transform="translate(149.064 144.659)">
      <g id="Group_963" data-name="Group 963" transform="translate(2.573 0)">
        <g id="Group_960" data-name="Group 960" transform="translate(0.578 0.579)">
          <g id="Group_959" data-name="Group 959">
            <path id="Path_3010" data-name="Path 3010" d="M178.621,230.812a.386.386,0,0,1-.179-.027.973.973,0,0,1-.054-.277l-.021-.161c-.017-.128-.031-.228-.05-.327l-.025-.15-.063-.323-.023-.1c-.02-.088-.04-.175-.065-.263-.065-.248-.125-.45-.191-.638-.027-.094-.063-.192-.1-.284l-.1-.271-.025-.06c-.03-.071-.06-.144-.093-.213s-.05-.117-.081-.175c-.048-.116-.1-.222-.15-.309-.067-.139-.154-.294-.241-.449a3.942,3.942,0,0,0-3.381-2.315h-.046a9.208,9.208,0,0,0-1.457.152l-.62.1a11.506,11.506,0,0,1-1.845.206,3.632,3.632,0,0,1-1.471-.277,1.827,1.827,0,0,1-1.156-2.286,1.7,1.7,0,0,0-.655-1.861c-.623-.545-.628-.581-.165-1.292l.362-.557-.555-.367c-.126-.083-.256-.167-.382-.245-.356-.23-.408-.381-.277-.8.432-1.374.18-1.941-1.124-2.523a3.515,3.515,0,0,1-.617-.358c-.257-.187-.235-.285-.118-.48s.265-.413.413-.629c.175-.256.357-.522.521-.806q.218-.378.438-.752c.566-.967,1.151-1.967,1.637-3.01a2.86,2.86,0,0,0,.128-1.525c-.014-.143-.029-.285-.034-.421-.014-.337-.042-.667-.07-.987a10.616,10.616,0,0,1-.061-1.616,11.793,11.793,0,0,1,7.487-10.7,21.982,21.982,0,0,1,8.752-1.9,20.149,20.149,0,0,1,4.124.43,9.665,9.665,0,0,1,6.7,4.871,18.942,18.942,0,0,1,2.449,8.035,11.424,11.424,0,0,1-2.474,7.736,9.356,9.356,0,0,0-2.075,4.789,18.585,18.585,0,0,0,.906,8.17c.077.2.166.415.26.64l.047.113.261.607c.368.832.762,1.659,1.144,2.459.227.476.454.951.676,1.429H178.621Z" transform="translate(-163.569 -191.533)" fill="#fff"/>
          </g>
        </g>
      </g>
      <g id="Group_970" data-name="Group 970" transform="translate(-0.579 -2.287)">
        <g id="Group_965" data-name="Group 965" transform="translate(3.151 0.579)">
          <g id="Group_964" data-name="Group 964">
            <path id="Path_3012" data-name="Path 3012" d="M178.621,230.812a.386.386,0,0,1-.179-.027.973.973,0,0,1-.054-.277l-.021-.161c-.017-.128-.031-.228-.05-.327l-.025-.15-.063-.323-.023-.1c-.02-.088-.04-.175-.065-.263-.065-.248-.125-.45-.191-.638-.027-.094-.063-.192-.1-.284l-.1-.271-.025-.06c-.03-.071-.06-.144-.093-.213a2,2,0,0,0-.087-.186c-.044-.1-.091-.2-.144-.3-.067-.139-.154-.294-.241-.449a3.942,3.942,0,0,0-3.381-2.315h-.046a9.208,9.208,0,0,0-1.457.152l-.619.1a11.509,11.509,0,0,1-1.845.206,3.632,3.632,0,0,1-1.471-.277,1.827,1.827,0,0,1-1.156-2.286,1.7,1.7,0,0,0-.655-1.861c-.623-.545-.628-.581-.165-1.292l.362-.557-.555-.367c-.126-.083-.256-.167-.382-.245-.356-.23-.408-.381-.277-.8.432-1.374.18-1.941-1.124-2.523a3.515,3.515,0,0,1-.617-.358c-.257-.187-.235-.285-.118-.48s.265-.413.413-.629c.175-.256.357-.522.521-.806q.218-.378.438-.752c.566-.967,1.151-1.967,1.637-3.01a2.86,2.86,0,0,0,.128-1.525c-.014-.143-.029-.285-.034-.421-.014-.337-.042-.667-.07-.987a10.616,10.616,0,0,1-.061-1.616,11.793,11.793,0,0,1,7.487-10.7,21.982,21.982,0,0,1,8.752-1.9,20.149,20.149,0,0,1,4.124.43,9.665,9.665,0,0,1,6.7,4.871,18.942,18.942,0,0,1,2.449,8.035,11.424,11.424,0,0,1-2.474,7.736,9.356,9.356,0,0,0-2.075,4.789,18.585,18.585,0,0,0,.906,8.17c.077.2.166.415.26.64l.047.113c.084.2.171.407.263.614.657,1.51,1.425,3.126,1.807,3.882H178.621Z" transform="translate(-163.569 -191.533)" fill="#fff"/>
          </g>
        </g>
        <g id="Group_967" data-name="Group 967" transform="translate(0 2.573)">
          <g id="Group_966" data-name="Group 966">
            <path id="Path_3013" data-name="Path 3013" d="M171.177,199.283a22.451,22.451,0,0,0-8.97,1.946,12.372,12.372,0,0,0-7.847,11.216,25.1,25.1,0,0,0,.13,2.658,3.9,3.9,0,0,1-.031,1.634c-.592,1.271-1.331,2.47-2.036,3.692-.283.488-.632.935-.924,1.419a.934.934,0,0,0,.305,1.365,4.166,4.166,0,0,0,.726.421c.991.443,1.085.649.753,1.705a1.2,1.2,0,0,0,.556,1.562c.121.076.247.157.368.237-.637.98-.592,1.383.287,2.153a1.039,1.039,0,0,1,.444,1.177,2.477,2.477,0,0,0,1.533,3.061,4.32,4.32,0,0,0,1.726.329,15.591,15.591,0,0,0,2.381-.285,9.925,9.925,0,0,1,1.517-.171h.035a3.235,3.235,0,0,1,2.789,1.961c.081.143.162.286.233.434.05.094.094.188.135.282a1.252,1.252,0,0,1,.076.161c.041.085.076.174.112.259s.063.165.095.251.063.165.085.246c.072.2.13.407.184.613.031.112.054.224.081.335.018.094.036.184.054.278q.014.081.027.161c.018.1.031.2.045.3l.014.094c.036.313.062.944.9.944h16.088c.412,0,1.188,0,.811-.694-.009-.018-.022-.04-.031-.063-.323-.613-1.188-2.426-1.892-4.046-.09-.2-.175-.4-.256-.6-.108-.26-.211-.506-.3-.739a17.625,17.625,0,0,1-.856-7.841,8.631,8.631,0,0,1,1.937-4.423,12.083,12.083,0,0,0,2.587-8.141,19.484,19.484,0,0,0-2.52-8.28,10.3,10.3,0,0,0-7.112-5.174,20.593,20.593,0,0,0-4.239-.442Z" transform="translate(-151.323 -199.283)" fill="#00b180"/>
          </g>
        </g>
        <g id="Group_969" data-name="Group 969" transform="translate(2.573)">
          <g id="Group_968" data-name="Group 968">
            <g id="Path_3014" data-name="Path 3014" transform="translate(-161.323 -189.283)" fill="#fff">
              <path d="M 193.0474090576172 229.2194061279297 L 176.9597930908203 229.2194061279297 C 176.6396484375 229.2194061279297 176.6008911132812 229.1395568847656 176.5609283447266 228.7673645019531 L 176.5555572509766 228.7183837890625 L 176.5547332763672 228.7111968994141 L 176.5537109375 228.7040100097656 L 176.5469818115234 228.6578063964844 L 176.5400848388672 228.6103973388672 L 176.5361938476562 228.582275390625 C 176.523681640625 228.4917755126953 176.5107421875 228.3982543945312 176.4926910400391 228.3006439208984 C 176.4841156005859 228.2473297119141 176.4752502441406 228.1940307617188 176.4660949707031 228.1404418945312 L 176.4653015136719 228.1357727050781 L 176.4644165039062 228.131103515625 C 176.4555358886719 228.0844116210938 176.4465789794922 228.0386505126953 176.4376220703125 227.9928741455078 C 176.4286193847656 227.9468688964844 176.4196014404297 227.9008636474609 176.4106750488281 227.8537902832031 L 176.4084930419922 227.8422241210938 L 176.4057464599609 227.8307647705078 C 176.3975372314453 227.7964172363281 176.3897857666016 227.7620849609375 176.3820190429688 227.7277374267578 C 176.3641510009766 227.6487121582031 176.3456726074219 227.5670471191406 176.3215026855469 227.4807281494141 C 176.2754211425781 227.3051910400391 176.2126159667969 227.0764465332031 176.1318054199219 226.8468322753906 C 176.1042175292969 226.7508544921875 176.0692749023438 226.657470703125 176.0381774902344 226.5764465332031 C 176.0194549560547 226.5257568359375 176.0007629394531 226.4767456054688 175.9819793701172 226.4275665283203 C 175.9691925048828 226.39404296875 175.9563598632812 226.3604431152344 175.9434814453125 226.3260955810547 L 175.9401702880859 226.3172760009766 L 175.9365386962891 226.30859375 L 175.9152679443359 226.2574310302734 C 175.8874053955078 226.190185546875 175.8560333251953 226.1144714355469 175.8203887939453 226.0390472412109 C 175.7987670898438 225.9868469238281 175.7724914550781 225.9249114990234 175.7354583740234 225.8576812744141 C 175.6931304931641 225.7608337402344 175.6473083496094 225.6653289794922 175.5990142822266 225.5733337402344 C 175.5245208740234 225.4198760986328 175.4430694580078 225.2752838134766 175.3642578125 225.1353607177734 L 175.3554382324219 225.1197204589844 C 174.8179779052734 224.1809692382812 173.9019317626953 222.9336853027344 172.1394958496094 222.9044342041016 C 172.1279296875 222.9041137695312 172.1121673583984 222.9040679931641 172.0964202880859 222.9040679931641 C 171.61181640625 222.9040679931641 171.1375732421875 222.9795837402344 170.6789398193359 223.0525970458984 L 170.5020294189453 223.0805969238281 C 170.3541107177734 223.1037292480469 170.2061920166016 223.1280975341797 170.0582580566406 223.1524658203125 C 169.4129333496094 223.2588195800781 168.8033905029297 223.3592681884766 168.1979522705078 223.3592681884766 C 167.6256103515625 223.3592681884766 167.1251373291016 223.2645874023438 166.6679382324219 223.0698089599609 C 165.5951080322266 222.6179351806641 165.1300354003906 221.6938171386719 165.4219665527344 220.5970001220703 C 165.6511688232422 219.7650756835938 165.2222900390625 219.2601776123047 164.8228912353516 218.9137115478516 C 164.4685821533203 218.6033172607422 164.3003387451172 218.3917541503906 164.2792358398438 218.2293853759766 C 164.2580718994141 218.0665435791016 164.3655090332031 217.8140411376953 164.6275787353516 217.4106903076172 L 164.8973999023438 216.9953765869141 L 164.4846649169922 216.7216033935547 C 164.376708984375 216.6499938964844 164.2574462890625 216.5731353759766 164.1095428466797 216.4798889160156 C 163.6912078857422 216.2091674804688 163.6100463867188 215.9770202636719 163.7619476318359 215.4877777099609 C 164.1671600341797 214.1985931396484 163.9561767578125 213.7233276367188 162.7352600097656 213.1779327392578 C 162.5341796875 213.0900115966797 162.3263702392578 212.9692077636719 162.0964508056641 212.8070678710938 C 161.7539672851562 212.5569763183594 161.7754821777344 212.3604888916016 161.9284515380859 212.1059875488281 C 162.0567016601562 211.8932647705078 162.1972198486328 211.6875457763672 162.3459930419922 211.4697570800781 C 162.5182647705078 211.2175445556641 162.6964111328125 210.9567413330078 162.8564605712891 210.6803741455078 C 163.0002593994141 210.4307861328125 163.1449737548828 210.1830902099609 163.2896118164062 209.935546875 C 163.8510284423828 208.9746246337891 164.4315490722656 207.9809722900391 164.9125366210938 206.948486328125 C 165.1232604980469 206.49609375 165.0709228515625 205.9768676757812 165.0247344970703 205.5187835693359 C 165.0092620849609 205.3653869628906 164.9946594238281 205.2204895019531 164.9902191162109 205.0871124267578 C 164.9768371582031 204.7566375732422 164.9483337402344 204.4296722412109 164.9207763671875 204.1134643554688 C 164.8712310791016 203.5450134277344 164.8244323730469 203.0080871582031 164.8595886230469 202.4784240722656 C 165.2213592529297 197.3371276855469 167.7605285644531 193.7060546875 172.4064483642578 191.6880340576172 C 175.3227996826172 190.4239807128906 178.2737731933594 189.7829742431641 181.1770172119141 189.7829742431641 C 182.5560302734375 189.7829742431641 183.9475555419922 189.9282531738281 185.3129272460938 190.2147674560547 C 188.3179473876953 190.8442993164062 190.5986633300781 192.5031890869141 192.0919189453125 195.1453857421875 C 193.5248107910156 197.6873474121094 194.351318359375 200.4022369384766 194.5482025146484 203.2141723632812 C 194.7391204833984 205.9119110107422 193.9239807128906 208.4667816162109 192.0562438964844 211.0251617431641 C 191.1270141601562 212.2951202392578 190.1586303710938 213.8448181152344 190.024169921875 215.7064666748047 C 189.8589782714844 217.9876708984375 189.8108367919922 220.9654693603516 190.9140930175781 223.7666931152344 C 190.9904174804688 223.9653625488281 191.0765380859375 224.1730346679688 191.1677398681641 224.3929138183594 L 191.2176513671875 224.5133361816406 C 191.2999725341797 224.7090911865234 191.3869476318359 224.9148254394531 191.478759765625 225.1208343505859 C 192.1964111328125 226.7728271484375 193.0499725341797 228.5561218261719 193.3758697509766 229.1786193847656 C 193.3805694580078 229.1890258789062 193.3851928710938 229.1987152099609 193.3895721435547 229.2075347900391 C 193.268310546875 229.2194061279297 193.1197509765625 229.2194061279297 193.0474090576172 229.2194061279297 Z" stroke="none"/>
              <path d="M 181.1770172119141 190.2829742431641 C 178.3425903320312 190.2829742431641 175.4585113525391 190.9100952148438 172.6056518554688 192.1466369628906 C 170.3643493652344 193.1201782226562 168.6186065673828 194.4900817871094 167.4169158935547 196.2183074951172 C 166.2241821289062 197.9336395263672 165.5315399169922 200.0523223876953 165.3584899902344 202.5115356445312 C 165.3258666992188 203.0029144287109 165.3710479736328 203.5212554931641 165.4188842773438 204.0700531005859 C 165.4469451904297 204.3919372558594 165.4759521484375 204.7247772216797 165.4896850585938 205.0631713867188 L 165.4899597167969 205.0705261230469 C 165.4938201904297 205.1870727539062 165.5076141357422 205.3238372802734 165.522216796875 205.4686126708984 C 165.5722503662109 205.9649505615234 165.634521484375 206.5826568603516 165.3657684326172 207.1596374511719 C 164.8749847412109 208.2131652832031 164.2884979248047 209.2169952392578 163.7213287353516 210.1877746582031 C 163.5772094726562 210.4344482421875 163.4329986572266 210.6812591552734 163.2891387939453 210.9309539794922 C 163.1197662353516 211.2234039306641 162.9362945556641 211.4920043945312 162.7588500976562 211.7517700195312 C 162.6142120361328 211.9635467529297 162.4775695800781 212.16357421875 162.3570098876953 212.3635406494141 C 162.3551788330078 212.3665924072266 162.3534393310547 212.3695526123047 162.3517761230469 212.3724060058594 C 162.3619842529297 212.3809814453125 162.3740081787109 212.3905181884766 162.3881225585938 212.4009399414062 C 162.5887145996094 212.5421447753906 162.7666625976562 212.6459503173828 162.9319000244141 212.7181854248047 L 162.9391784667969 212.7214202880859 C 163.5161285400391 212.9791412353516 164.0557403564453 213.2595062255859 164.3182220458984 213.8514404296875 C 164.5788116455078 214.4391326904297 164.4291687011719 215.0325164794922 164.2394561767578 215.6360168457031 C 164.1799926757812 215.8275909423828 164.1930389404297 215.8999481201172 164.1924896240234 215.8999481201172 C 164.1924743652344 215.8999481201172 164.1924743652344 215.8999481201172 164.1924743652344 215.8999481201172 C 164.1938171386719 215.9023742675781 164.2275238037109 215.9603576660156 164.3795013427734 216.0590209960938 C 164.5293731689453 216.1535491943359 164.6507415771484 216.2317657470703 164.7610015869141 216.3048858642578 L 165.5865478515625 216.8524017333984 L 165.0468597412109 217.6830749511719 C 164.8656311035156 217.9620208740234 164.8054504394531 218.1011657714844 164.7854919433594 218.1619720458984 C 164.8204956054688 218.2140655517578 164.9129333496094 218.3278656005859 165.1505279541016 218.5360260009766 C 165.4211883544922 218.7708129882812 166.2440795898438 219.4845275878906 165.9044036865234 220.7284393310547 C 165.6774139404297 221.5854797363281 166.0167541503906 222.2529754638672 166.8638916015625 222.6098175048828 C 167.2634124755859 222.7799987792969 167.6873016357422 222.8592681884766 168.1979522705078 222.8592681884766 C 168.7624816894531 222.8592681884766 169.3524627685547 222.7620391845703 169.97705078125 222.6591033935547 C 170.1262817382812 222.6345062255859 170.2755279541016 222.6099243164062 170.4248046875 222.5865783691406 L 170.6004791259766 222.5587768554688 C 171.0782623291016 222.4827270507812 171.5723114013672 222.4040679931641 172.0964202880859 222.4040679931641 C 172.1150360107422 222.4040679931641 172.1336517333984 222.4041595458984 172.1522674560547 222.4045715332031 C 174.3997192382812 222.4442749023438 175.4442291259766 224.2684783935547 175.7876129150391 224.8681945800781 L 175.7999877929688 224.89013671875 C 175.8813629150391 225.0345916748047 175.9654235839844 225.1838226318359 176.0455169677734 225.3481750488281 C 176.0946807861328 225.4422149658203 176.1414642333984 225.5393829345703 176.1850128173828 225.6378631591797 C 176.2258605957031 225.7145080566406 176.2555999755859 225.7834930419922 176.2777099609375 225.8365936279297 C 176.3161773681641 225.9187774658203 176.3484497070312 225.9966888427734 176.3772583007812 226.0662384033203 L 176.4116668701172 226.1506195068359 C 176.4242401123047 226.1841430664062 176.436767578125 226.2169342041016 176.4492645263672 226.2496643066406 C 176.4682312011719 226.29931640625 176.4871063232422 226.3488159179688 176.5059967041016 226.3999176025391 C 176.5392150878906 226.4865417480469 176.5764007568359 226.586181640625 176.6081695556641 226.6943359375 C 176.6919708251953 226.9342956542969 176.7564392089844 227.1685180664062 176.803955078125 227.3493804931641 C 176.8310699462891 227.4466094970703 176.8515625 227.5372314453125 176.8697052001953 227.6174621582031 C 176.8770141601562 227.6498107910156 176.8843078613281 227.6821594238281 176.8920440673828 227.7145233154297 L 176.9019165039062 227.7605743408203 C 176.9106597900391 227.8066864013672 176.9194946289062 227.8517761230469 176.9283142089844 227.8968658447266 C 176.9374389648438 227.9434814453125 176.9465484619141 227.9900970458984 176.9556121826172 228.0376586914062 L 176.9589691162109 228.0563049316406 C 176.9680480957031 228.1095275878906 176.9768524169922 228.1624450683594 176.9853973388672 228.2153778076172 C 177.0049896240234 228.3221893310547 177.0190277099609 228.4237365722656 177.0314788818359 228.5137634277344 L 177.0580596923828 228.7139739990234 C 177.0582580566406 228.7157440185547 177.0584564208984 228.7175598144531 177.0586547851562 228.7194061279297 L 192.5867156982422 228.7194061279297 C 192.1720428466797 227.8699340820312 191.5583038330078 226.5586547851562 191.0198974609375 225.3195037841797 C 190.9269104003906 225.1107025146484 190.8394775390625 224.9039001464844 190.7578735351562 224.7098846435547 L 190.7059020996094 224.5845184326172 C 190.6140594482422 224.363037109375 190.5272521972656 224.1537628173828 190.447509765625 223.9464416503906 C 189.3088073730469 221.0525360107422 189.3565368652344 218.0034027099609 189.5254821777344 215.6704559326172 C 189.6690368652344 213.6825256347656 190.6815490722656 212.0572052001953 191.6524200439453 210.7303466796875 C 193.4475860595703 208.2713470458984 194.2316741943359 205.8244476318359 194.0494232177734 203.2490844726562 C 193.8577728271484 200.5117645263672 193.0525207519531 197.8677215576172 191.6566162109375 195.3913879394531 C 190.2372436523438 192.8798980712891 188.0684814453125 191.3029022216797 185.2102355957031 190.7041168212891 C 183.8785705566406 190.4246673583984 182.5215911865234 190.2829742431641 181.1770172119141 190.2829742431641 M 181.1770172119141 189.2829742431641 C 182.5771026611328 189.2829742431641 183.9911651611328 189.426513671875 185.4156188964844 189.7254333496094 C 188.5140838623047 190.3745422363281 190.9488677978516 192.1066131591797 192.5272064208984 194.8993682861328 C 193.9754486083984 197.4685516357422 194.8407897949219 200.2343139648438 195.0469818115234 203.1792449951172 C 195.2623443603516 206.2225341796875 194.2309112548828 208.8943328857422 192.4600830078125 211.3199768066406 C 191.4871673583984 212.6496429443359 190.6437835693359 214.0682830810547 190.5228729248047 215.7424774169922 C 190.3303833007812 218.4006500244141 190.3885803222656 221.0679626464844 191.3793182373047 223.5834655761719 C 191.4687652587891 223.8162689208984 191.5721588134766 224.0623779296875 191.6796569824219 224.3221588134766 C 191.7604675292969 224.5142822265625 191.8457183837891 224.7159423828125 191.9354553222656 224.9173126220703 C 192.6392211914062 226.5372772216797 193.5048828125 228.3499603271484 193.8274993896484 228.9632110595703 C 193.8364105224609 228.9857635498047 193.8497924804688 229.0080108642578 193.8586883544922 229.0258026123047 C 194.2356719970703 229.7194061279297 193.459716796875 229.7194061279297 193.0474090576172 229.7194061279297 L 176.9597930908203 229.7194061279297 C 176.1211700439453 229.7194061279297 176.0944213867188 229.0883331298828 176.0587615966797 228.7749176025391 C 176.0543060302734 228.7437896728516 176.049560546875 228.7123565673828 176.0450897216797 228.6809234619141 C 176.0314483642578 228.5827484130859 176.0183715820312 228.4842987060547 175.9999694824219 228.3858489990234 C 175.9913482666016 228.3321685791016 175.9824371337891 228.2785186767578 175.9732208251953 228.2245635986328 C 175.9553985595703 228.1308441162109 175.9372711181641 228.0409698486328 175.9194488525391 227.9470062255859 C 175.8927154541016 227.8351898193359 175.8704376220703 227.7234039306641 175.8389282226562 227.6116180419922 C 175.7848663330078 227.4055023193359 175.7266387939453 227.1997222900391 175.6550445556641 226.9983825683594 C 175.6327514648438 226.917724609375 175.6009521484375 226.8325958251953 175.5700988769531 226.7522735595703 C 175.5386199951172 226.6668548583984 175.5071105957031 226.5864715576172 175.4753112792969 226.5016784667969 C 175.4396820068359 226.4165649414062 175.4040222167969 226.3270263671875 175.3633270263672 226.2422027587891 C 175.3410339355469 226.1882476806641 175.3187713623047 226.1345825195312 175.2872619628906 226.0809020996094 C 175.2468719482422 225.9868621826172 175.2023162841797 225.8929138183594 175.1526947021484 225.7988739013672 C 175.0814056396484 225.6512145996094 175.0002899169922 225.5080108642578 174.9197845458984 225.3650665283203 C 174.2968444824219 224.2770843505859 173.4893951416016 223.4268951416016 172.1311950683594 223.4043579101562 C 172.1195983886719 223.4040679931641 172.1080017089844 223.4040679931641 172.0964202880859 223.4040679931641 C 171.5919952392578 223.4040679931641 171.0837097167969 223.4957122802734 170.5792846679688 223.5745849609375 C 169.2073059082031 223.7891235351562 167.8359680175781 224.1108856201172 166.4719696044922 223.5298004150391 C 165.1856689453125 222.9880218505859 164.5802307128906 221.8155364990234 164.9387817382812 220.4683990478516 C 165.0867309570312 219.9313659667969 164.8716583251953 219.617919921875 164.4952545166016 219.2914123535156 C 163.6165313720703 218.5216217041016 163.5713653564453 218.1186218261719 164.2082977294922 217.1382751464844 C 164.0870971679688 217.0578918457031 163.9614105224609 216.9775695800781 163.8405151367188 216.9013519287109 C 163.2306365966797 216.5075836181641 163.0648651123047 216.0467224121094 163.284423828125 215.3395233154297 C 163.6165313720703 214.2829437255859 163.5223541259766 214.0771636962891 162.5313262939453 213.6344604492188 C 162.2755432128906 213.5226440429688 162.0334320068359 213.3746795654297 161.8049774169922 213.2133483886719 C 161.3070983886719 212.8513031005859 161.1769714355469 212.3857269287109 161.4998931884766 211.8484191894531 C 161.7913055419922 211.3650665283203 162.1412658691406 210.9176177978516 162.4237823486328 210.4297943115234 C 163.1278381347656 209.2077789306641 163.8672485351562 208.0082702636719 164.4593048095703 206.7373504638672 C 164.6699523925781 206.2851104736328 164.5086364746094 205.6496276855469 164.4905090332031 205.1037139892578 C 164.4545593261719 204.2176666259766 164.3021545410156 203.326904296875 164.3606872558594 202.4452972412109 C 164.7329254150391 197.1551055908203 167.3334808349609 193.3464202880859 172.2072448730469 191.2294311523438 C 175.1072540283203 189.9724578857422 178.1088562011719 189.2829742431641 181.1770172119141 189.2829742431641 Z" stroke="none" fill="#000"/>
            </g>
          </g>
        </g>
      </g>
    </g>
    <path id="Path_3015" data-name="Path 3015" d="M303.32,305.828l2.458,3.382a32.138,32.138,0,0,0,11.164-15.281l-4.021-1.306A27.89,27.89,0,0,1,303.32,305.828Z" transform="translate(-112.887 -118.699)" fill="#00b180"/>
    <path id="Path_3016" data-name="Path 3016" d="M345.808,220.626l-4.071,1.322a27.975,27.975,0,0,1,0,16.329l4.024,1.307a32.239,32.239,0,0,0,.047-18.958Z" transform="translate(-141.419 -65.228)" fill="#00b180"/>
    <path id="Path_3017" data-name="Path 3017" d="M262.876,138.607a31.9,31.9,0,0,0-16.428-5.807v4.331a27.68,27.68,0,0,1,13.89,4.969Z" transform="translate(-70.648)" fill="#00b180"/>
    <path id="Path_3018" data-name="Path 3018" d="M246.448,351.013v4.162a31.893,31.893,0,0,0,16.346-5.75l-2.456-3.381A27.68,27.68,0,0,1,246.448,351.013Z" transform="translate(-70.648 -158.374)" fill="#00b180"/>
    <path id="Path_3019" data-name="Path 3019" d="M312.921,174.171,317,172.847a32.136,32.136,0,0,0-11.138-15.373l-2.537,3.492A27.9,27.9,0,0,1,312.921,174.171Z" transform="translate(-112.887 -18.325)" fill="#00b180"/>
  </g>
</svg>
