<svg id="ic_landscape_assessment" xmlns="http://www.w3.org/2000/svg" width="79.034" height="64.409" viewBox="0 0 79.034 64.409">
  <g id="Group_992" data-name="Group 992" transform="translate(-103.38 -132.8)">
    <path id="Path_3076" data-name="Path 3076" d="M282.3,151.367a11.279,11.279,0,0,1-11.566,11.269,11.485,11.485,0,1,1,.433-22.961A11.26,11.26,0,0,1,282.3,151.367Z" transform="translate(-115.798 -5.105)" fill="#00b180"/>
    <g id="Group_988" data-name="Group 988" transform="translate(145.913 132.8)">
      <path id="Path_3077" data-name="Path 3077" d="M281.3,156.38a11.257,11.257,0,0,1-11.17-11.147,10.982,10.982,0,0,1,3.247-7.827,11.3,11.3,0,0,1,8.055-3.339c.1,0,.193,0,.29,0a11.157,11.157,0,0,1-.319,22.309Z" transform="translate(-269.801 -133.742)" fill="#fff"/>
      <path id="Path_3078" data-name="Path 3078" d="M280.486,132.8v.652h0q.141,0,.282,0a10.831,10.831,0,0,1-.311,21.656h-.1A10.93,10.93,0,0,1,269.51,144.29a10.658,10.658,0,0,1,3.152-7.6,10.978,10.978,0,0,1,7.824-3.243V132.8m0,0a11.483,11.483,0,1,0-.134,22.964h.106a11.483,11.483,0,0,0,.327-22.961c-.1,0-.2,0-.3,0Z" transform="translate(-268.858 -132.8)"/>
    </g>
    <g id="Group_989" data-name="Group 989" transform="translate(145.913 132.8)">
      <path id="Path_3079" data-name="Path 3079" d="M281.3,156.38a11.257,11.257,0,0,1-11.17-11.147,10.982,10.982,0,0,1,3.247-7.827,11.3,11.3,0,0,1,8.055-3.339c.1,0,.193,0,.29,0a11.157,11.157,0,0,1-.319,22.309Z" transform="translate(-269.801 -133.742)" fill="#fff"/>
      <path id="Path_3080" data-name="Path 3080" d="M280.486,132.8v.652h0q.141,0,.282,0a10.831,10.831,0,0,1-.311,21.656h-.1A10.93,10.93,0,0,1,269.51,144.29a10.658,10.658,0,0,1,3.152-7.6,10.978,10.978,0,0,1,7.824-3.243V132.8m0,0a11.483,11.483,0,1,0-.134,22.964h.106a11.483,11.483,0,0,0,.327-22.961c-.1,0-.2,0-.3,0Z" transform="translate(-268.858 -132.8)"/>
    </g>
    <path id="Path_3081" data-name="Path 3081" d="M196.671,195.641" transform="translate(-69.313 -46.689)" fill="#00b180"/>
    <path id="Path_3082" data-name="Path 3082" d="M270.433,295.052c-4.754,0-9.507-.007-14.261.005a2.179,2.179,0,0,1-2.281-1.288,2.278,2.278,0,0,1,.323-2.13q5.129-9.269,10.241-18.547c1.3-2.353,2.607-4.7,3.894-7.06.455-.834.975-1.527,2.048-1.533a2.288,2.288,0,0,1,2.07,1.5q7.057,12.809,14.129,25.61c1.08,1.959.226,3.434-2,3.439C279.878,295.06,275.156,295.052,270.433,295.052Z" transform="translate(-111.713 -97.849)" fill="#00b180"/>
    <path id="Path_3083" data-name="Path 3083" d="M126.9,258.942c-6.7,0-13.394-.01-20.091.008a3.069,3.069,0,0,1-3.213-1.815,3.208,3.208,0,0,1,.455-3q7.225-13.058,14.427-26.128c1.829-3.315,3.672-6.622,5.485-9.946.641-1.175,1.374-2.151,2.886-2.16s2.266.932,2.916,2.112q9.942,18.045,19.9,36.08c1.521,2.759.319,4.838-2.812,4.845C140.2,258.954,133.549,258.942,126.9,258.942Z" transform="translate(0 -61.741)" fill="#00b180"/>
    <g id="Group_990" data-name="Group 990" transform="translate(149.092 163.119)">
      <path id="Path_3084" data-name="Path 3084" d="M284.588,281.932a1.842,1.842,0,0,1-1.967-1.092,1.958,1.958,0,0,1,.309-1.842q3.845-6.949,7.679-13.9l2.562-4.644,1.2-2.163q1.354-2.446,2.7-4.9c.469-.86.908-1.358,1.764-1.363.876,0,1.33.509,1.783,1.33q3.877,7.036,7.761,14.068,3.185,5.77,6.368,11.542a2.188,2.188,0,0,1,.24,2.138,2.146,2.146,0,0,1-1.95.817q-2.964.007-5.929.006l-15.779,0q-3.36,0-6.72.008Z" transform="translate(-282.171 -251.701)" fill="#fff"/>
      <path id="Path_3085" data-name="Path 3085" d="M297.9,250.757v.652c.63,0,1,.293,1.483,1.162q3.887,7.054,7.78,14.1,3.175,5.752,6.349,11.506a1.9,1.9,0,0,1,.244,1.815,1.853,1.853,0,0,1-1.67.656q-2.963.007-5.925.006h-4.194l-4.046,0h-7.54c-2.241,0-4.482,0-6.736.008-.92,0-1.387-.251-1.668-.9-.21-.483-.065-.9.3-1.554q3.8-6.871,7.593-13.748l2.648-4.8q.6-1.083,1.2-2.167c.887-1.6,1.8-3.26,2.7-4.9.491-.9.85-1.19,1.479-1.194l.012-.652m0,0h-.015c-1.073.007-1.593.7-2.048,1.533-1.287,2.359-2.6,4.707-3.894,7.06q-5.119,9.274-10.241,18.547a2.277,2.277,0,0,0-.323,2.13,2.173,2.173,0,0,0,2.266,1.288h.015q3.36-.009,6.721-.007l7.54,0,8.24,0q2.963,0,5.927-.006c2.222-.005,3.076-1.48,2-3.439q-7.061-12.807-14.129-25.61a2.292,2.292,0,0,0-2.054-1.5Z" transform="translate(-281.226 -250.757)"/>
    </g>
    <g id="Group_991" data-name="Group 991" transform="translate(110.444 150.627)">
      <path id="Path_3086" data-name="Path 3086" d="M135.212,245.824c-1.536,0-2.4-.484-2.894-1.618a2.868,2.868,0,0,1,.442-2.712q5.407-9.773,10.8-19.554l3.628-6.575q.839-1.52,1.68-3.038c1.252-2.262,2.547-4.6,3.806-6.909.667-1.223,1.335-1.982,2.6-1.99,1.3,0,1.967.744,2.628,1.943q5.486,9.956,10.981,19.907,4.463,8.085,8.923,16.172a3.206,3.206,0,0,1,.336,3.145,3.148,3.148,0,0,1-2.862,1.217q-4.181.01-8.362.009l-22.222-.007q-4.733,0-9.465.011Z" transform="translate(-131.806 -203.101)" fill="#fff"/>
      <path id="Path_3087" data-name="Path 3087" d="M154.354,202.81c1.125,0,1.7.651,2.322,1.775q5.486,9.957,10.982,19.909,4.462,8.085,8.922,16.171a2.908,2.908,0,0,1,.34,2.821,2.85,2.85,0,0,1-2.582,1.056q-4.169.01-8.338.009l-5.878,0-5.741,0-5.248,0-5.414,0c-3.767,0-6.675,0-9.43.011h-.019c-1.4,0-2.155-.412-2.594-1.422a2.57,2.57,0,0,1,.428-2.425c3.6-6.506,7.252-13.125,10.783-19.526l3.644-6.6q.845-1.532,1.694-3.063c1.248-2.254,2.538-4.584,3.793-6.885.641-1.175,1.2-1.813,2.317-1.82h.019m0-.652h-.022c-1.512.009-2.245.985-2.886,2.16-1.813,3.323-3.656,6.631-5.485,9.945q-7.211,13.066-14.427,26.129a3.209,3.209,0,0,0-.455,3,3.062,3.062,0,0,0,3.193,1.815h.021q4.714-.013,9.428-.011,5.331,0,10.662,0,5.809,0,11.619,0,4.17,0,8.34-.009c3.131-.007,4.333-2.086,2.812-4.845q-9.947-18.042-19.9-36.079c-.647-1.174-1.4-2.112-2.894-2.112Z" transform="translate(-130.865 -202.158)"/>
    </g>
  </g>
</svg>
