<svg id="ic_brand_culture" data-name="ic_brand culture" xmlns="http://www.w3.org/2000/svg" width="62.008" height="61.994" viewBox="0 0 62.008 61.994">
  <g id="Group_11564" data-name="Group 11564" transform="translate(-914.21 -1480.096)">
    <g id="Group_973" data-name="Group 973">
      <path id="Path_9732" data-name="Path 9732" d="M971.73,1532.69a1.9,1.9,0,0,1-.54.08h-.02c-.82.01-1.66.01-2.49.01l-1.84-.01c-.67,0-1.34,0-2.01.01a.485.485,0,0,0-.54.38.4.4,0,0,0,.21.51,1.238,1.238,0,0,0,.52.09h1.77c.79,0,1.59,0,2.38.01a1.944,1.944,0,0,1,1.99,1.52,1.343,1.343,0,0,1,.05.35,3.79,3.79,0,0,0,.41-.74,3.855,3.855,0,0,0,.2-.74,2.089,2.089,0,0,0,.04-.43A3.337,3.337,0,0,0,971.73,1532.69Zm1.03-9.73a.845.845,0,0,0-.04-.17,1.509,1.509,0,0,1-.48.07h-.06c-1.15.01-2.32.01-3.48.01l-1.54-.01h-.37a.511.511,0,0,0-.56.47.5.5,0,0,0,.47.51c.85.01,1.63.01,2.42.01l3.71-.01A3.274,3.274,0,0,0,972.76,1522.96Zm.95,4.81a1.907,1.907,0,0,1-.54.07,1.621,1.621,0,0,1-.23-.01c-.74.01-1.55.01-2.35.01-1.19-.01-2.39-.01-3.58.02a.977.977,0,0,0-.62.22.639.639,0,0,0-.04.49c.02.08.06.25.54.25h4.31a2.007,2.007,0,0,1,2.01,1.88c.02-.03.04-.05.06-.08a3.448,3.448,0,0,0,.52-1.35,1.991,1.991,0,0,0,.04-.42A3.294,3.294,0,0,0,973.71,1527.77Zm-.96-21.36v.01a3.629,3.629,0,0,0-.55,1.92c.35-.59.72-1.19,1.08-1.78a3.819,3.819,0,0,0,.57-1.95C973.46,1505.28,973.08,1505.89,972.75,1506.41Zm-2.53-15.29a2.951,2.951,0,0,0,0,.42.543.543,0,0,0,.54.5.451.451,0,0,0,.43-.48c.02-1.01.02-1.99.01-2.96v-1.08a3.02,3.02,0,0,1,.12-.88,3.156,3.156,0,0,0-1.1-.16Zm-6.54,24.51a2.81,2.81,0,0,0,.45-3.32,2.755,2.755,0,0,0-3.05-1.24l-.09.02-.09-.01a2.552,2.552,0,0,1-.27-.05l-.35-.11v-.37c0-.28-.01-.56-.01-.84-.01-.63-.02-1.26.02-1.89a3.292,3.292,0,0,0-1.08-2.66c-2.91-2.88-5.8-5.82-8.61-8.67l-.52-.53a2.459,2.459,0,0,1-.64-.99,1.592,1.592,0,0,1,.69-1.86,1.745,1.745,0,0,1,2.1.13c.67.53,1.34,1.08,2.01,1.63l.78.64a4.188,4.188,0,0,0,.56.43.469.469,0,0,0,.64-.14.475.475,0,0,0,.07-.21,4.508,4.508,0,0,0,.01-.52v-10.38a4.92,4.92,0,0,1,.03-.76,1.644,1.644,0,0,1,.06-.32c-.1-.03-.21-.06-.32-.09a3.36,3.36,0,0,0-2.62.59l1.83.01v10.32l-1.41-1.15c-.36-.3-.71-.59-1.07-.85a2.713,2.713,0,0,0-3.83.45,2.609,2.609,0,0,0-.49.95,10.147,10.147,0,0,0-.09,1.69l.02.51-1.31.01c-.63.01-1.28.01-1.94-.01a3.1,3.1,0,0,0-2.51,1.02c-2.89,2.91-5.8,5.77-8.7,8.63l-.5.49a2.677,2.677,0,0,1-1.02.69,1.874,1.874,0,0,1-.52.08,1.622,1.622,0,0,1-1.41-.82,1.663,1.663,0,0,1,.17-2.04c.48-.6.98-1.21,1.49-1.83l.81-1a4.577,4.577,0,0,0,.41-.51.449.449,0,0,0,.06-.34.466.466,0,0,0-.21-.3.424.424,0,0,0-.23-.08c-.14-.01-.26-.01-.38-.01l-.17.01c-3.42-.01-6.83-.01-10.25,0h-.47a2.035,2.035,0,0,1-1.45-.49,2.085,2.085,0,0,1-.72-1.4v-.17a2.016,2.016,0,0,1,2.06-1.95,1.224,1.224,0,0,1,.19.02l4.95-.01a.838.838,0,0,0,.62-.19.408.408,0,0,0,.11-.31c-.01-.42-.45-.48-.71-.48h-2c-1.33,0-2.66-.01-4,0a2.165,2.165,0,0,1-1.88-.91,2.018,2.018,0,0,1-.33-1.45,1.945,1.945,0,0,1,1.44-1.55,4.275,4.275,0,0,1,1-.09c1.95-.01,3.94,0,5.92-.01a.542.542,0,0,0,.38-.12.464.464,0,0,0,.17-.32.524.524,0,0,0-.5-.54,1.808,1.808,0,0,0-.33,0H922.8a3.255,3.255,0,0,1-.93-.12,1.963,1.963,0,0,1-1.33-2.1,2.021,2.021,0,0,1,1.99-1.73c1.45-.02,2.9-.02,4.36-.02l1.57.01h.4a.556.556,0,0,0,.61-.51.525.525,0,0,0-.15-.34.518.518,0,0,0-.35-.14l-.13.01c-.86-.01-1.73-.01-2.59-.01l-1.3.01q-.315,0-.63-.03a2,2,0,0,1-1.81-1.91,2.557,2.557,0,0,1,.14-.74h-.69a1.73,1.73,0,0,0-.32,0,3.394,3.394,0,0,0-1.25.28,3.557,3.557,0,0,0-1.89,4.66,1.417,1.417,0,0,1,.05.22c-.14.05-.28.11-.41.17a3.561,3.561,0,0,0-1.56,4.79,3.737,3.737,0,0,0-2.37,2.7v1.17a3.8,3.8,0,0,0,1.58,2.31,9.576,9.576,0,0,0-.51,1.48,3.273,3.273,0,0,0,1.5,3.46.785.785,0,0,1,.43.73c-.02,3.01,0,6.01-.02,9.01a2.359,2.359,0,0,1-.3,1.03c-.53.95-1.12,1.86-1.66,2.8-.37.65-.68,1.34-1.02,2.01v15.95a.693.693,0,0,1,.1.19,4.133,4.133,0,0,0,.22.62,3.481,3.481,0,0,0,4.62,1.76,1.692,1.692,0,0,1,.22-.04,3.571,3.571,0,0,0,2,2.1,3.455,3.455,0,0,0,2.93-.15,3.79,3.79,0,0,0,2.72,2.4h1.17a3.722,3.722,0,0,0,2.3-1.59,8.771,8.771,0,0,0,1.49.52,3.267,3.267,0,0,0,3.49-1.55.7.7,0,0,1,.7-.38c3,.01,6.01-.01,9.01.02a2.165,2.165,0,0,1,1.03.3c.95.52,1.86,1.11,2.8,1.65.66.37,1.34.69,2,1.03h15.97a2.214,2.214,0,0,1,.35-.16,2.859,2.859,0,0,0,.38-.13,3.475,3.475,0,0,0,2.14-3.11,3.172,3.172,0,0,0-.12-1.05,2.354,2.354,0,0,1-.59.1q-3.69.015-7.36.02-3.645,0-7.28-.02a2.289,2.289,0,0,1-1.13-.36c-1.13-.65-2.25-1.3-3.35-2a3.97,3.97,0,0,0-2.3-.62c-2.07.02-4.12.01-6.21.01h-3.06v-10.34l1.38,1.12c.37.31.72.6,1.08.87a2.732,2.732,0,0,0,3.85-.41,2.63,2.63,0,0,0,.51-.98,10,10,0,0,0,.08-1.67l-.02-.52h2.48c.31,0,.62-.01.91,0a2.912,2.912,0,0,0,2.27-.93c3.06-3.06,6.19-6.16,9.33-9.24a2.705,2.705,0,0,1,1.04-.67,1.608,1.608,0,0,1,1.91.79,1.7,1.7,0,0,1-.21,2.03c-.61.75-1.25,1.53-1.88,2.3l-.46.56a3.211,3.211,0,0,0-.37.5.417.417,0,0,0-.03.33.442.442,0,0,0,.22.28.431.431,0,0,0,.16.05,3.322,3.322,0,0,0,.55.01h9.6c.01-.33.01-.67.01-1h-8.99Zm-20.12,10.17a1.677,1.677,0,0,1-2.04-.17c-.35-.27-.71-.57-1.07-.87-.7-.58-1.42-1.18-2.16-1.73a.956.956,0,0,0-.66-.07l-.01.01c-.17.03-.19.3-.18.46v10.73q0,.36-.03.75a1.988,1.988,0,0,1-3.97-.23v-4.88c0-.59-.13-.81-.2-.88a.375.375,0,0,0-.28-.09h-.01c-.16,0-.49,0-.49.99v1.5c0,1.44.01,2.88-.01,4.33a2.084,2.084,0,0,1-1.58,2.07,2.281,2.281,0,0,1-.44.05,1.876,1.876,0,0,1-1.69-1.05,3.1,3.1,0,0,1-.26-1.29c-.01-1.24-.01-2.5-.01-3.76v-1.88a4.8,4.8,0,0,0-.02-.54.455.455,0,0,0-.44-.42.471.471,0,0,0-.49.35,3.033,3.033,0,0,0-.04.52v3.92a2.009,2.009,0,0,1-.43,1.42,2.059,2.059,0,0,1-1.35.74c-.06,0-.12.01-.18.01a2.1,2.1,0,0,1-1.46-.66,2.074,2.074,0,0,1-.54-1.48v-5.86a3.615,3.615,0,0,0-.02-.48.5.5,0,0,0-.5-.47h-.01a.462.462,0,0,0-.32.15.422.422,0,0,0-.13.32c-.01.91-.01,1.8-.01,2.68v1.37a2.646,2.646,0,0,1-.67,1.93,1.979,1.979,0,0,1-1.35.51c-1.18-.02-1.97-1-1.97-2.43v-3.21q-.015-5.415.01-10.82a3.216,3.216,0,0,1,.42-1.5c.67-1.21,1.39-2.38,2.01-3.37a3.559,3.559,0,0,0,.56-1.98q-.015-3.075-.01-6.15v-3.31h10.33l-.92,1.13c-.31.39-.59.74-.88,1.09a2.737,2.737,0,0,0-.84,1.96,2.681,2.681,0,0,0,.78,1.93,2.759,2.759,0,0,0,2.59.73,2.657,2.657,0,0,1,.28-.03l.51-.01.08.51c0,.26.01.52.01.77.01.58.02,1.17-.02,1.76a3.607,3.607,0,0,0,1.22,2.99c2.6,2.56,5.18,5.17,7.66,7.7l1.32,1.34a2.358,2.358,0,0,1,.64.98A1.609,1.609,0,0,1,943.56,1525.8Zm15.72-16.06c.01.65.01,1.3-.01,1.94v.01a1.557,1.557,0,0,1-.42,1.02q-4.32,4.32-8.66,8.58a2.069,2.069,0,0,1-1.29.54q-1.1.03-2.16.03c-.75,0-1.48-.01-2.18-.02a1.483,1.483,0,0,1-.94-.39c-2.89-2.9-5.76-5.79-8.62-8.7a2.153,2.153,0,0,1-.54-1.3c-.03-1.25-.03-2.61,0-4.29a1.651,1.651,0,0,1,.45-1.03q4.29-4.29,8.61-8.53a2.327,2.327,0,0,1,1.33-.57c.5-.04,1.01-.03,1.59-.03.25.01.51.01.8.01,1.83-.55,3.23.61,4.47,1.95,1.7,1.84,3.52,3.64,5.28,5.38l1.58,1.57a2.234,2.234,0,0,1,.73,1.75C959.28,1508.35,959.28,1509.05,959.28,1509.74Zm6.43-19.69a.523.523,0,0,0,.54-.53c.01-.19.01-.31.01-.44l-.01-1.11c0-.99,0-1.98.02-2.97a1.929,1.929,0,0,1,.05-.42,3.116,3.116,0,0,0-1.05-.12v5a.559.559,0,0,0,.11.41A.477.477,0,0,0,965.71,1490.05Zm-5.41-2.3v1.43a1.708,1.708,0,0,0,0,.32.492.492,0,1,0,.98.07c.01-.91,0-1.75,0-2.59l-.01-2c0-.63,0-1.26.02-1.9a1.633,1.633,0,0,1,.09-.49,4.042,4.042,0,0,0-.5-.1,3.381,3.381,0,0,0-1.31.08,1.955,1.955,0,0,1,.72,1.62C960.3,1485.36,960.3,1486.56,960.3,1487.75Z" fill="#00b180"/>
    </g>
    <path id="Path_9733" data-name="Path 9733" d="M973.21,1508.42a3.247,3.247,0,0,1,.42-1.5c.65-1.18,1.37-2.34,2.06-3.46a3.3,3.3,0,0,0,.5-1.83l-.01-3.46c-.01-3.51-.03-7.14.03-10.71a3.1,3.1,0,0,0-2.86-3.32,3.159,3.159,0,0,0-1.46.26l-.1.03a1.247,1.247,0,0,1-.27.03h-.36l-.12-.34a3.037,3.037,0,0,0-1.71-1.8,2.936,2.936,0,0,0-2.49.13l-.52.28-.19-.56a3.034,3.034,0,0,0-2.47-2.02,2.905,2.905,0,0,0-2.85,1.31l-.23.37-.39-.18a8.893,8.893,0,0,0-1.4-.48,2.858,2.858,0,0,0-2.96,1.32,1.391,1.391,0,0,1-1,.6c-3.06.02-6.12.02-9.14,0a2.738,2.738,0,0,1-1.23-.35c-1.21-.69-2.41-1.41-3.61-2.14a3.4,3.4,0,0,0-1.78-.49l-3.57.01c-3.51.01-7.14.02-10.71-.02a3.1,3.1,0,0,0-3.15,2.34,3.433,3.433,0,0,0-.08.56,3.093,3.093,0,0,0,.24,1.34,1.552,1.552,0,0,1,.08.37l.04.39-.36.13a3.059,3.059,0,0,0-1.85,3.91,2.274,2.274,0,0,0,.15.36l.26.51-.53.19a3.258,3.258,0,0,0-2.05,2.29v1.05a3.286,3.286,0,0,0,1.37,1.95l.35.24-.17.38a7.848,7.848,0,0,0-.49,1.41,2.766,2.766,0,0,0,1.28,2.9,1.245,1.245,0,0,1,.66,1.19v4c0,1.66-.01,3.32-.02,4.98a2.919,2.919,0,0,1-.36,1.28c-.29.5-.59,1-.89,1.51-.26.42-.52.85-.77,1.29-.24.42-.45.86-.67,1.29-.1.2-.19.39-.29.59v15.68a.77.77,0,0,1,.07.16,3.07,3.07,0,0,0,1.37,1.93,3.016,3.016,0,0,0,2.27.36,2.555,2.555,0,0,0,.53-.18,3.023,3.023,0,0,1,.35-.09l.41-.06.14.39a3.043,3.043,0,0,0,1.72,1.81,2.958,2.958,0,0,0,2.5-.13l.51-.27.2.54a3.242,3.242,0,0,0,2.3,2.07h1.05a3.23,3.23,0,0,0,1.95-1.36l.23-.36.39.18a8.937,8.937,0,0,0,1.4.49,2.754,2.754,0,0,0,2.94-1.32,1.2,1.2,0,0,1,1.18-.62c2.89,0,5.97-.01,8.97.01a2.8,2.8,0,0,1,1.28.37c.51.29,1.03.6,1.54.91.42.25.83.5,1.26.74s.89.48,1.35.7l.52.26H969.7a.522.522,0,0,0,.15-.07c.06-.02.11-.03.16-.05a3,3,0,0,0,2.06-3.71c-.03-.1-.07-.21-.11-.32a3.2,3.2,0,0,1-.12-.37l-.02-.08-.11-.38.15-.05.3-.1a3.082,3.082,0,0,0,1.83-1.74,2.918,2.918,0,0,0-.12-2.45l-.08-.17-.18-.34.22-.08.32-.11a3.045,3.045,0,0,0,.64-5.42l-.43-.28.29-.42a3.055,3.055,0,0,0,.46-2.37,2.655,2.655,0,0,0-1.24-1.76,1.343,1.343,0,0,1-.68-1.34v-3.57C973.19,1511.86,973.19,1510.14,973.21,1508.42Zm-14.74-26.29a1.926,1.926,0,0,1,1.1.44,1.955,1.955,0,0,1,.72,1.62c.01,1.17.01,2.37.01,3.56v1.43a1.708,1.708,0,0,0,0,.32.492.492,0,1,0,.98.07c.01-.91,0-1.75,0-2.59l-.01-2c0-.63,0-1.26.02-1.9a1.633,1.633,0,0,1,.09-.49,2.024,2.024,0,0,1,1.82-1.48h.03a2.02,2.02,0,0,1,2.02,1.86c.02.23.02.46.02.69v5.8a.559.559,0,0,0,.11.41.477.477,0,0,0,.33.18.523.523,0,0,0,.54-.53c.01-.19.01-.31.01-.44l-.01-1.11c0-.99,0-1.98.02-2.97a1.929,1.929,0,0,1,.05-.42,1.959,1.959,0,0,1,1.86-1.48,2.057,2.057,0,0,1,2.01,1.79c.02.25.03.48.03.71v5.52a2.951,2.951,0,0,0,0,.42.543.543,0,0,0,.54.5.451.451,0,0,0,.43-.48c.02-1.01.02-1.99.01-2.96v-1.08a3.02,3.02,0,0,1,.12-.88,1.853,1.853,0,0,1,1.84-1.55,1.824,1.824,0,0,1,1.35.52,2.678,2.678,0,0,1,.69,1.92v2.73c0,3.76,0,7.53-.02,11.3a3.1,3.1,0,0,1-.39,1.44c-.31.55-.62,1.1-.94,1.61-.39.67-.77,1.28-1.1,1.8v.01a3.629,3.629,0,0,0-.55,1.92v.06q.015,2.76,0,5.52v3.93H961.87l1.81-2.22a2.81,2.81,0,0,0,.45-3.32,2.755,2.755,0,0,0-3.05-1.24l-.09.02-.09-.01a2.552,2.552,0,0,1-.27-.05l-.35-.11v-.37c0-.28-.01-.56-.01-.84-.01-.63-.02-1.26.02-1.89a3.292,3.292,0,0,0-1.08-2.66c-2.91-2.88-5.8-5.82-8.61-8.67l-.52-.53a2.459,2.459,0,0,1-.64-.99,1.592,1.592,0,0,1,.69-1.86,1.745,1.745,0,0,1,2.1.13c.67.53,1.34,1.08,2.01,1.63l.78.64a4.188,4.188,0,0,0,.56.43.469.469,0,0,0,.64-.14.475.475,0,0,0,.07-.21,4.508,4.508,0,0,0,.01-.52v-10.38a4.92,4.92,0,0,1,.03-.76,1.644,1.644,0,0,1,.06-.32A1.988,1.988,0,0,1,958.47,1482.13Zm.83,25.53c-.02.69-.02,1.39-.02,2.08.01.65.01,1.3-.01,1.94v.01a1.557,1.557,0,0,1-.42,1.02q-4.32,4.32-8.66,8.58a2.069,2.069,0,0,1-1.29.54q-1.1.03-2.16.03c-.75,0-1.48-.01-2.18-.02a1.483,1.483,0,0,1-.94-.39c-2.89-2.9-5.76-5.79-8.62-8.7a2.153,2.153,0,0,1-.54-1.3c-.03-1.25-.03-2.61,0-4.29a1.651,1.651,0,0,1,.45-1.03q4.29-4.29,8.61-8.53a2.327,2.327,0,0,1,1.33-.57c.5-.04,1.01-.03,1.59-.03.25.01.51.01.8.01,1.83-.55,3.23.61,4.47,1.95,1.7,1.84,3.52,3.64,5.28,5.38l1.58,1.57A2.234,2.234,0,0,1,959.3,1507.66Zm-39.02-8.12a2.085,2.085,0,0,1-.72-1.4v-.17a2.016,2.016,0,0,1,2.06-1.95,1.224,1.224,0,0,1,.19.02l4.95-.01a.838.838,0,0,0,.62-.19.408.408,0,0,0,.11-.31c-.01-.42-.45-.48-.71-.48h-2c-1.33,0-2.66-.01-4,0a2.165,2.165,0,0,1-1.88-.91,2.018,2.018,0,0,1-.33-1.45,1.945,1.945,0,0,1,1.44-1.55,4.275,4.275,0,0,1,1-.09c1.95-.01,3.94,0,5.92-.01a.542.542,0,0,0,.38-.12.464.464,0,0,0,.17-.32.524.524,0,0,0-.5-.54,1.808,1.808,0,0,0-.33,0H922.8a3.255,3.255,0,0,1-.93-.12,1.963,1.963,0,0,1-1.33-2.1,2.021,2.021,0,0,1,1.99-1.73c1.45-.02,2.9-.02,4.36-.02l1.57.01h.4a.556.556,0,0,0,.61-.51.525.525,0,0,0-.15-.34.518.518,0,0,0-.35-.14l-.13.01c-.86-.01-1.73-.01-2.59-.01l-1.3.01q-.315,0-.63-.03a2,2,0,0,1-1.81-1.91,2.557,2.557,0,0,1,.14-.74,2.055,2.055,0,0,1,1.64-1.29,3.8,3.8,0,0,1,.67-.03h2.79q5.61,0,11.23.01a3.234,3.234,0,0,1,1.44.4c1.02.57,2.11,1.21,3.32,1.98a3.975,3.975,0,0,0,2.2.61c1.94-.01,3.88-.01,5.82-.01h1.69l1.83.01v10.32l-1.41-1.15c-.36-.3-.71-.59-1.07-.85a2.713,2.713,0,0,0-3.83.45,2.609,2.609,0,0,0-.49.95,10.147,10.147,0,0,0-.09,1.69l.02.51-1.31.01c-.63.01-1.28.01-1.94-.01a3.1,3.1,0,0,0-2.51,1.02c-2.89,2.91-5.8,5.77-8.7,8.63l-.5.49a2.677,2.677,0,0,1-1.02.69,1.874,1.874,0,0,1-.52.08,1.622,1.622,0,0,1-1.41-.82,1.663,1.663,0,0,1,.17-2.04c.48-.6.98-1.21,1.49-1.83l.81-1a4.577,4.577,0,0,0,.41-.51.449.449,0,0,0,.06-.34.466.466,0,0,0-.21-.3.424.424,0,0,0-.23-.08c-.14-.01-.26-.01-.38-.01l-.17.01c-3.42-.01-6.83-.01-10.25,0h-.47A2.035,2.035,0,0,1,920.28,1499.54Zm17.35,23.42-.01.01c-.17.03-.19.3-.18.46v10.73q0,.36-.03.75a1.988,1.988,0,0,1-3.97-.23v-4.88c0-.59-.13-.81-.2-.88a.375.375,0,0,0-.28-.09h-.01c-.16,0-.49,0-.49.99v1.5c0,1.44.01,2.88-.01,4.33a2.084,2.084,0,0,1-1.58,2.07,2.281,2.281,0,0,1-.44.05,1.876,1.876,0,0,1-1.69-1.05,3.1,3.1,0,0,1-.26-1.29c-.01-1.24-.01-2.5-.01-3.76v-1.88a4.8,4.8,0,0,0-.02-.54.455.455,0,0,0-.44-.42.471.471,0,0,0-.49.35,3.033,3.033,0,0,0-.04.52v3.92a2.009,2.009,0,0,1-.43,1.42,2.059,2.059,0,0,1-1.35.74c-.06,0-.12.01-.18.01a2.1,2.1,0,0,1-1.46-.66,2.074,2.074,0,0,1-.54-1.48v-5.86a3.615,3.615,0,0,0-.02-.48.5.5,0,0,0-.5-.47h-.01a.462.462,0,0,0-.32.15.422.422,0,0,0-.13.32c-.01.91-.01,1.8-.01,2.68v1.37a2.646,2.646,0,0,1-.67,1.93,1.979,1.979,0,0,1-1.35.51c-1.18-.02-1.97-1-1.97-2.43v-3.21q-.015-5.415.01-10.82a3.216,3.216,0,0,1,.42-1.5c.67-1.21,1.39-2.38,2.01-3.37a3.559,3.559,0,0,0,.56-1.98q-.015-3.075-.01-6.15v-3.31h10.33l-.92,1.13c-.31.39-.59.74-.88,1.09a2.737,2.737,0,0,0-.84,1.96,2.681,2.681,0,0,0,.78,1.93,2.759,2.759,0,0,0,2.59.73,2.657,2.657,0,0,1,.28-.03l.51-.01.08.51c0,.26.01.52.01.77.01.58.02,1.17-.02,1.76a3.607,3.607,0,0,0,1.22,2.99c2.6,2.56,5.18,5.17,7.66,7.7l1.32,1.34a2.358,2.358,0,0,1,.64.98,1.609,1.609,0,0,1-.73,1.92,1.677,1.677,0,0,1-2.04-.17c-.35-.27-.71-.57-1.07-.87-.7-.58-1.42-1.18-2.16-1.73A.956.956,0,0,0,937.63,1522.96Zm36.55-1.93a1.923,1.923,0,0,1-1.46,1.76,1.509,1.509,0,0,1-.48.07h-.06c-1.15.01-2.32.01-3.48.01l-1.54-.01h-.37a.511.511,0,0,0-.56.47.5.5,0,0,0,.47.51c.85.01,1.63.01,2.42.01l3.71-.01h.16a2.1,2.1,0,0,1,2.21,1.92v.06a2.04,2.04,0,0,1-1.49,1.95,1.907,1.907,0,0,1-.54.07,1.621,1.621,0,0,1-.23-.01c-.74.01-1.55.01-2.35.01-1.19-.01-2.39-.01-3.58.02a.977.977,0,0,0-.62.22.639.639,0,0,0-.04.49c.02.08.06.25.54.25h4.31a2.007,2.007,0,0,1,2.01,1.88.091.091,0,0,1,.01.05,2.044,2.044,0,0,1-1.49,1.94,1.9,1.9,0,0,1-.54.08h-.02c-.82.01-1.66.01-2.49.01l-1.84-.01c-.67,0-1.34,0-2.01.01a.485.485,0,0,0-.54.38.4.4,0,0,0,.21.51,1.238,1.238,0,0,0,.52.09h1.77c.79,0,1.59,0,2.38.01a1.944,1.944,0,0,1,1.99,1.52,1.343,1.343,0,0,1,.05.35,1.923,1.923,0,0,1-.97,1.79,2.285,2.285,0,0,1-.51.21,2.354,2.354,0,0,1-.59.1q-3.69.015-7.36.02-3.645,0-7.28-.02a2.289,2.289,0,0,1-1.13-.36c-1.13-.65-2.25-1.3-3.35-2a3.97,3.97,0,0,0-2.3-.62c-2.07.02-4.12.01-6.21.01h-3.06v-10.34l1.38,1.12c.37.31.72.6,1.08.87a2.732,2.732,0,0,0,3.85-.41,2.63,2.63,0,0,0,.51-.98,10,10,0,0,0,.08-1.67l-.02-.52h2.48c.31,0,.62-.01.91,0a2.912,2.912,0,0,0,2.27-.93c3.06-3.06,6.19-6.16,9.33-9.24a2.705,2.705,0,0,1,1.04-.67,1.608,1.608,0,0,1,1.91.79,1.7,1.7,0,0,1-.21,2.03c-.61.75-1.25,1.53-1.88,2.3l-.46.56a3.211,3.211,0,0,0-.37.5.417.417,0,0,0-.03.33.442.442,0,0,0,.22.28.431.431,0,0,0,.16.05,3.322,3.322,0,0,0,.55.01h10.39a5.811,5.811,0,0,1,.82.05A1.994,1.994,0,0,1,974.18,1521.03Z"/>
    <path id="Path_9734" data-name="Path 9734" d="M973.86,1504.46a.756.756,0,0,1-.01.15c-.39.67-.77,1.28-1.1,1.8v.01a3.629,3.629,0,0,0-.55,1.92v.01c-.34.55-.67,1.1-.98,1.66a2.775,2.775,0,0,0-.35,1.23c-.02,2.21-.01,4.41-.01,6.61h-8.99l1.81-2.22a2.81,2.81,0,0,0,.45-3.32,2.755,2.755,0,0,0-3.05-1.24l-.09.02-.09-.01a2.552,2.552,0,0,1-.27-.05l-.35-.11v-.37c0-.28-.01-.56-.01-.84-.01-.63-.02-1.26.02-1.89a3.292,3.292,0,0,0-1.08-2.66c-2.91-2.88-5.8-5.82-8.61-8.67l-.52-.53a2.459,2.459,0,0,1-.64-.99,1.592,1.592,0,0,1,.69-1.86,1.745,1.745,0,0,1,2.1.13c.67.53,1.34,1.08,2.01,1.63l.78.64a4.188,4.188,0,0,0,.56.43.469.469,0,0,0,.64-.14.475.475,0,0,0,.07-.21,4.508,4.508,0,0,0,.01-.52v-10.38a4.92,4.92,0,0,1,.03-.76,1.644,1.644,0,0,1,.06-.32,8.031,8.031,0,0,1,1.16.42,3.382,3.382,0,0,1,2.02-1.46,1.955,1.955,0,0,1,.72,1.62c.01,1.17.01,2.37.01,3.56v1.43a1.708,1.708,0,0,0,0,.32.492.492,0,1,0,.98.07c.01-.91,0-1.75,0-2.59l-.01-2c0-.63,0-1.26.02-1.9a1.633,1.633,0,0,1,.09-.49,3.554,3.554,0,0,1,2.39,2.26,3.316,3.316,0,0,1,1.5-.39v5a.559.559,0,0,0,.11.41.477.477,0,0,0,.33.18.523.523,0,0,0,.54-.53c.01-.19.01-.31.01-.44l-.01-1.11c0-.99,0-1.98.02-2.97a1.929,1.929,0,0,1,.05-.42,2.546,2.546,0,0,1,.36.12,3.571,3.571,0,0,1,2,2.1.984.984,0,0,0,.17-.02,3.526,3.526,0,0,1,1.37-.3v4.64a2.951,2.951,0,0,0,0,.42.543.543,0,0,0,.54.5.451.451,0,0,0,.43-.48c.02-1.01.02-1.99.01-2.96v-1.08a3.02,3.02,0,0,1,.12-.88,3.521,3.521,0,0,1,2.26,1.98,3.622,3.622,0,0,1,.29,1.69C973.79,1495.03,973.84,1499.74,973.86,1504.46Z" fill="#fff"/>
    <path id="Path_9735" data-name="Path 9735" d="M973.21,1530.7a3.541,3.541,0,0,1-1.73,1.34,3.222,3.222,0,0,1,.25.65,1.9,1.9,0,0,1-.54.08h-.02c-.82.01-1.66.01-2.49.01l-1.84-.01c-.67,0-1.34,0-2.01.01a.485.485,0,0,0-.54.38.4.4,0,0,0,.21.51,1.238,1.238,0,0,0,.52.09h1.77c.79,0,1.59,0,2.38.01a1.944,1.944,0,0,1,1.99,1.52,1.343,1.343,0,0,1,.05.35,3.576,3.576,0,0,1-1.73,1.28c.05.14.08.23.11.32.05.13.1.27.14.4a2.354,2.354,0,0,1-.59.1q-3.69.015-7.36.02-3.645,0-7.28-.02a2.289,2.289,0,0,1-1.13-.36c-1.13-.65-2.25-1.3-3.35-2a3.97,3.97,0,0,0-2.3-.62c-2.07.02-4.12.01-6.21.01h-3.06v-10.34l1.38,1.12c.37.31.72.6,1.08.87a2.732,2.732,0,0,0,3.85-.41,2.63,2.63,0,0,0,.51-.98,10,10,0,0,0,.08-1.67l-.02-.52h2.48c.31,0,.62-.01.91,0a2.912,2.912,0,0,0,2.27-.93c3.06-3.06,6.19-6.16,9.33-9.24a2.705,2.705,0,0,1,1.04-.67,1.608,1.608,0,0,1,1.91.79,1.7,1.7,0,0,1-.21,2.03c-.61.75-1.25,1.53-1.88,2.3l-.46.56a3.211,3.211,0,0,0-.37.5.417.417,0,0,0-.03.33.442.442,0,0,0,.22.28.431.431,0,0,0,.16.05,3.322,3.322,0,0,0,.55.01h9.6c.01.4,0,.79,0,1.19a.835.835,0,0,0,.44.84,3.13,3.13,0,0,1,1.43,1.91,1.509,1.509,0,0,1-.48.07h-.06c-1.15.01-2.32.01-3.48.01l-1.54-.01h-.37a.511.511,0,0,0-.56.47.5.5,0,0,0,.47.51c.85.01,1.63.01,2.42.01l3.71-.01a3.367,3.367,0,0,1-.61,1.88,3.488,3.488,0,0,1,1.49,2.05,1.907,1.907,0,0,1-.54.07,1.621,1.621,0,0,1-.23-.01c-.74.01-1.55.01-2.35.01-1.19-.01-2.39-.01-3.58.02a.977.977,0,0,0-.62.22.639.639,0,0,0-.04.49c.02.08.06.25.54.25h4.31A2.007,2.007,0,0,1,973.21,1530.7Z" fill="#fff"/>
    <path id="Path_9736" data-name="Path 9736" d="M943.56,1525.8a1.677,1.677,0,0,1-2.04-.17c-.35-.27-.71-.57-1.07-.87-.7-.58-1.42-1.18-2.16-1.73a.956.956,0,0,0-.66-.07l-.01.01c-.17.03-.19.3-.18.46v10.73q0,.36-.03.75a1.988,1.988,0,0,1-3.97-.23v-4.88c0-.59-.13-.81-.2-.88a.375.375,0,0,0-.28-.09h-.01c-.16,0-.49,0-.49.99v1.5c0,1.44.01,2.88-.01,4.33a2.084,2.084,0,0,1-1.58,2.07,2.281,2.281,0,0,1-.44.05,1.876,1.876,0,0,1-1.69-1.05,3.1,3.1,0,0,1-.26-1.29c-.01-1.24-.01-2.5-.01-3.76v-1.88a4.8,4.8,0,0,0-.02-.54.455.455,0,0,0-.44-.42.471.471,0,0,0-.49.35,3.033,3.033,0,0,0-.04.52v3.92a2.009,2.009,0,0,1-.43,1.42,2.059,2.059,0,0,1-1.35.74c-.06,0-.12.01-.18.01a2.1,2.1,0,0,1-1.46-.66,2.074,2.074,0,0,1-.54-1.48v-5.86a3.615,3.615,0,0,0-.02-.48.5.5,0,0,0-.5-.47h-.01a.462.462,0,0,0-.32.15.422.422,0,0,0-.13.32c-.01.91-.01,1.8-.01,2.68v1.37a2.646,2.646,0,0,1-.67,1.93,1.979,1.979,0,0,1-1.35.51c-1.18-.02-1.97-1-1.97-2.43v-3.21q-.015-5.415.01-10.82a3.216,3.216,0,0,1,.42-1.5c.67-1.21,1.39-2.38,2.01-3.37a3.559,3.559,0,0,0,.56-1.98q-.015-3.075-.01-6.15v-3.31h10.33l-.92,1.13c-.31.39-.59.74-.88,1.09a2.737,2.737,0,0,0-.84,1.96,2.681,2.681,0,0,0,.78,1.93,2.759,2.759,0,0,0,2.59.73,2.657,2.657,0,0,1,.28-.03l.51-.01.08.51c0,.26.01.52.01.77.01.58.02,1.17-.02,1.76a3.607,3.607,0,0,0,1.22,2.99c2.6,2.56,5.18,5.17,7.66,7.7l1.32,1.34a2.358,2.358,0,0,1,.64.98A1.609,1.609,0,0,1,943.56,1525.8Z" fill="#fff"/>
    <path id="Path_9737" data-name="Path 9737" d="M959.3,1507.66c-.02.69-.02,1.39-.02,2.08.01.65.01,1.3-.01,1.94v.01a1.557,1.557,0,0,1-.42,1.02q-4.32,4.32-8.66,8.58a2.069,2.069,0,0,1-1.29.54q-1.1.03-2.16.03c-.75,0-1.48-.01-2.18-.02a1.483,1.483,0,0,1-.94-.39c-2.89-2.9-5.76-5.79-8.62-8.7a2.153,2.153,0,0,1-.54-1.3c-.03-1.25-.03-2.61,0-4.29a1.651,1.651,0,0,1,.45-1.03q4.29-4.29,8.61-8.53a2.327,2.327,0,0,1,1.33-.57c.5-.04,1.01-.03,1.59-.03.25.01.51.01.8.01,1.83-.55,3.23.61,4.47,1.95,1.7,1.84,3.52,3.64,5.28,5.38l1.58,1.57A2.234,2.234,0,0,1,959.3,1507.66Z" fill="#fff"/>
    <path id="Path_9738" data-name="Path 9738" d="M955.28,1484.12v10.32l-1.41-1.15c-.36-.3-.71-.59-1.07-.85a2.713,2.713,0,0,0-3.83.45,2.609,2.609,0,0,0-.49.95,10.147,10.147,0,0,0-.09,1.69l.02.51-1.31.01c-.63.01-1.28.01-1.94-.01a3.1,3.1,0,0,0-2.51,1.02c-2.89,2.91-5.8,5.77-8.7,8.63l-.5.49a2.677,2.677,0,0,1-1.02.69,1.874,1.874,0,0,1-.52.08,1.622,1.622,0,0,1-1.41-.82,1.663,1.663,0,0,1,.17-2.04c.48-.6.98-1.21,1.49-1.83l.81-1a4.577,4.577,0,0,0,.41-.51.449.449,0,0,0,.06-.34.466.466,0,0,0-.21-.3.424.424,0,0,0-.23-.08c-.14-.01-.26-.01-.38-.01l-.17.01c-3.42-.01-6.83-.01-10.25,0h-.47a2.035,2.035,0,0,1-1.45-.49,2.085,2.085,0,0,1-.72-1.4v-.17a2.016,2.016,0,0,1,2.06-1.95,1.224,1.224,0,0,1,.19.02l4.95-.01a.838.838,0,0,0,.62-.19.408.408,0,0,0,.11-.31c-.01-.42-.45-.48-.71-.48h-2c-1.33,0-2.66-.01-4,0a2.165,2.165,0,0,1-1.88-.91,2.018,2.018,0,0,1-.33-1.45,1.945,1.945,0,0,1,1.44-1.55,4.275,4.275,0,0,1,1-.09c1.95-.01,3.94,0,5.92-.01a.542.542,0,0,0,.38-.12.464.464,0,0,0,.17-.32.524.524,0,0,0-.5-.54,1.808,1.808,0,0,0-.33,0H922.8a3.255,3.255,0,0,1-.93-.12,1.963,1.963,0,0,1-1.33-2.1,2.021,2.021,0,0,1,1.99-1.73c1.45-.02,2.9-.02,4.36-.02l1.57.01h.4a.556.556,0,0,0,.61-.51.525.525,0,0,0-.15-.34.518.518,0,0,0-.35-.14l-.13.01c-.86-.01-1.73-.01-2.59-.01l-1.3.01q-.315,0-.63-.03a2,2,0,0,1-1.81-1.91,2.557,2.557,0,0,1,.14-.74c4.52.06,9.05.02,13.58.01a3.757,3.757,0,0,1,2.04.56c1.19.73,2.39,1.45,3.6,2.14a2.133,2.133,0,0,0,.98.28q4.545.03,9.09,0a.859.859,0,0,0,.62-.35,3.308,3.308,0,0,1,.89-.97Z" fill="#fff"/>
  </g>
</svg>
