<svg id="ic_brand_differentiator" xmlns="http://www.w3.org/2000/svg" width="66.59" height="65.243" viewBox="0 0 66.59 65.243">
  <rect id="Rectangle_376" data-name="Rectangle 376" width="27.162" height="27.162" rx="5" transform="translate(0.095 3.502)" fill="#00b180"/>
  <g id="Rectangle_377" data-name="Rectangle 377" transform="translate(1.962 1.552)" fill="#fff" stroke="#000" stroke-width="1">
    <rect width="27.162" height="27.162" rx="3" stroke="none"/>
    <rect x="0.5" y="0.5" width="26.162" height="26.162" rx="2.5" fill="none"/>
  </g>
  <ellipse id="Ellipse_22" data-name="Ellipse 22" cx="13.606" cy="13.607" rx="13.606" ry="13.607" transform="translate(0 36.776)" fill="#00b180"/>
  <g id="Ellipse_23" data-name="Ellipse 23" transform="translate(1.911 34.733)" fill="#fff" stroke="#000" stroke-width="1">
    <ellipse cx="13.606" cy="13.607" rx="13.606" ry="13.607" stroke="none"/>
    <ellipse cx="13.606" cy="13.607" rx="13.106" ry="13.107" fill="none"/>
  </g>
  <path id="Path_3056" data-name="Path 3056" d="M-1931.386,567.249l-13.873,24.029a2.06,2.06,0,0,0,1.784,3.089h27.746a2.059,2.059,0,0,0,1.783-3.089l-13.873-24.029A2.059,2.059,0,0,0-1931.386,567.249Z" transform="translate(1977.468 -564.009)" fill="#00b180"/>
  <g id="Path_3057" data-name="Path 3057" transform="translate(1991.073 -555.404)" fill="#fff">
    <path d="M -1926.54541015625 583.0520629882812 L -1954.291625976562 583.0520629882812 C -1954.85546875 583.0520629882812 -1955.3603515625 582.7605590820312 -1955.642211914062 582.2723388671875 C -1955.924072265625 581.7841186523438 -1955.924072265625 581.201171875 -1955.642211914062 580.7130126953125 L -1941.76904296875 556.6834716796875 C -1941.487182617188 556.1952514648438 -1940.982299804688 555.9037475585938 -1940.418579101562 555.9037475585938 C -1939.854858398438 555.9037475585938 -1939.349975585938 556.1952514648438 -1939.068115234375 556.6834716796875 L -1925.195190429688 580.7129516601562 C -1924.913330078125 581.201171875 -1924.913208007812 581.7840576171875 -1925.195068359375 582.2722778320312 C -1925.476928710938 582.7605590820312 -1925.981689453125 583.0520629882812 -1926.54541015625 583.0520629882812 Z" stroke="none"/>
    <path d="M -1940.418579101562 556.4037475585938 C -1940.6025390625 556.4037475585938 -1941.06005859375 556.4553833007812 -1941.336059570312 556.9334716796875 L -1955.209228515625 580.9630126953125 C -1955.485229492188 581.4410400390625 -1955.301147460938 581.8630981445312 -1955.209228515625 582.0223388671875 C -1955.117309570312 582.1815795898438 -1954.843872070312 582.5520629882812 -1954.291625976562 582.5520629882812 L -1926.54541015625 582.5520629882812 C -1925.993530273438 582.5520629882812 -1925.720092773438 582.1815795898438 -1925.628051757812 582.0223388671875 C -1925.5361328125 581.863037109375 -1925.352172851562 581.4410400390625 -1925.628295898438 580.9629516601562 L -1939.501220703125 556.9334716796875 C -1939.777221679688 556.4553833007812 -1940.234741210938 556.4037475585938 -1940.418579101562 556.4037475585938 M -1940.418579101562 555.4037475585938 C -1939.724975585938 555.4037475585938 -1939.031372070312 555.7470092773438 -1938.635131835938 556.4334716796875 L -1924.76220703125 580.4629516601562 C -1923.969360351562 581.8358154296875 -1924.960327148438 583.5520629882812 -1926.54541015625 583.5520629882812 L -1954.291625976562 583.5520629882812 C -1955.877197265625 583.5520629882812 -1956.867919921875 581.8358154296875 -1956.0751953125 580.4629516601562 L -1942.202026367188 556.4334716796875 C -1941.805786132812 555.7470092773438 -1941.112182617188 555.4037475585938 -1940.418579101562 555.4037475585938 Z" stroke="none" fill="#000"/>
  </g>
  <path id="Path_3059" data-name="Path 3059" d="M-1921.311,731.905l1.879,5.783a2.561,2.561,0,0,0,2.436,1.77h6.081a2.561,2.561,0,0,1,1.505,4.633l-4.92,3.574a2.562,2.562,0,0,0-.93,2.863l1.879,5.784a2.561,2.561,0,0,1-3.941,2.863l-4.919-3.575a2.561,2.561,0,0,0-3.01,0l-4.92,3.575a2.561,2.561,0,0,1-3.941-2.863l1.879-5.784a2.561,2.561,0,0,0-.93-2.863l-4.92-3.574a2.561,2.561,0,0,1,1.505-4.633h6.081a2.561,2.561,0,0,0,2.435-1.77l1.879-5.783A2.561,2.561,0,0,1-1921.311,731.905Z" transform="translate(1971.073 -694.433)" fill="#00b180"/>
  <g id="Path_3058" data-name="Path 3058" transform="translate(1983.862 -687.349)" fill="#fff">
    <path d="M -1925.009155273438 750.2092895507812 C -1925.455688476562 750.2093505859375 -1925.8779296875 750.067138671875 -1926.26416015625 749.78662109375 L -1931.355590820312 746.0870361328125 C -1931.8974609375 745.693359375 -1932.537841796875 745.4852905273438 -1933.20751953125 745.4852905273438 C -1933.877197265625 745.4852905273438 -1934.517578125 745.693359375 -1935.059326171875 746.0870361328125 L -1940.151000976562 749.7866821289062 C -1940.536987304688 750.0670166015625 -1940.959106445312 750.209228515625 -1941.40576171875 750.2092895507812 C -1942.085693359375 750.2093505859375 -1942.763549804688 749.85791015625 -1943.174682617188 749.2921142578125 C -1943.578369140625 748.736572265625 -1943.6796875 748.0582885742188 -1943.460083007812 747.38232421875 L -1941.51513671875 741.3964233398438 C -1941.091918945312 740.094482421875 -1941.5517578125 738.6788940429688 -1942.659423828125 737.8740234375 L -1947.75146484375 734.1746215820312 C -1948.683471679688 733.4976196289062 -1948.76611328125 732.4888305664062 -1948.53271484375 731.7704467773438 C -1948.29931640625 731.0520629882812 -1947.639526367188 730.284423828125 -1946.487548828125 730.284423828125 L -1940.193603515625 730.2846069335938 C -1938.824584960938 730.2846069335938 -1937.62060546875 729.4097290039062 -1937.197509765625 728.107666015625 L -1935.252685546875 722.1217651367188 C -1934.896850585938 721.0262451171875 -1933.962890625 720.6359252929688 -1933.20751953125 720.6359252929688 C -1932.4521484375 720.6359252929688 -1931.51806640625 721.0262451171875 -1931.161987304688 722.121826171875 L -1929.217651367188 728.1076049804688 C -1928.794189453125 729.4097900390625 -1927.589965820312 730.2846069335938 -1926.221069335938 730.2846069335938 L -1919.927612304688 730.284423828125 C -1918.775390625 730.284423828125 -1918.115478515625 731.0521850585938 -1917.882080078125 731.770751953125 C -1917.648803710938 732.489013671875 -1917.731567382812 733.4977416992188 -1918.66357421875 734.1746215820312 L -1923.75537109375 737.8740234375 C -1924.862915039062 738.6788330078125 -1925.322875976562 740.0943603515625 -1924.89990234375 741.3964233398438 L -1922.954833984375 747.3823852539062 C -1922.735107421875 748.05810546875 -1922.83642578125 748.7362060546875 -1923.239990234375 749.2916870117188 C -1923.651123046875 749.857666015625 -1924.328979492188 750.209228515625 -1925.009155273438 750.2092895507812 Z" stroke="none"/>
    <path d="M -1933.20751953125 721.1359252929688 C -1933.787231445312 721.1359252929688 -1934.504028320312 721.4354858398438 -1934.777221679688 722.2762451171875 L -1936.721923828125 728.2621459960938 C -1937.212158203125 729.7709350585938 -1938.607299804688 730.7846069335938 -1940.193603515625 730.7846069335938 L -1946.487548828125 730.784423828125 C -1947.37158203125 730.784423828125 -1947.878051757812 731.3735961914062 -1948.05712890625 731.9249267578125 C -1948.236328125 732.476318359375 -1948.1728515625 733.2505493164062 -1947.457641601562 733.7701416015625 L -1942.365478515625 737.4695434570312 C -1941.082153320312 738.402099609375 -1940.54931640625 740.0423583984375 -1941.039672851562 741.5509643554688 L -1942.984619140625 747.5368041992188 C -1943.21240234375 748.2379760742188 -1942.947998046875 748.7532958984375 -1942.770263671875 748.9981079101562 C -1942.451538085938 749.436767578125 -1941.928588867188 749.7092895507812 -1941.40576171875 749.7092895507812 C -1941.06689453125 749.7092895507812 -1940.74365234375 749.5991821289062 -1940.44482421875 749.3822021484375 L -1935.353271484375 745.6825561523438 C -1934.7255859375 745.2263793945312 -1933.983520507812 744.9852905273438 -1933.20751953125 744.9852905273438 C -1932.431518554688 744.9852905273438 -1931.689453125 745.2263793945312 -1931.061645507812 745.6824951171875 L -1925.970336914062 749.382080078125 C -1925.67138671875 749.5991821289062 -1925.348022460938 749.7092895507812 -1925.009155273438 749.7092895507812 C -1924.486206054688 749.7092895507812 -1923.96337890625 749.4367065429688 -1923.644653320312 748.9979858398438 C -1923.466796875 748.753173828125 -1923.202514648438 748.2379150390625 -1923.430297851562 747.536865234375 L -1925.375366210938 741.5509033203125 C -1925.865478515625 740.0421752929688 -1925.33251953125 738.4020385742188 -1924.049194335938 737.469482421875 L -1918.957397460938 733.77001953125 C -1918.242065429688 733.2505493164062 -1918.178588867188 732.4764404296875 -1918.357666015625 731.9252319335938 C -1918.536743164062 731.3737182617188 -1919.043334960938 730.784423828125 -1919.927612304688 730.784423828125 L -1926.221069335938 730.7846069335938 C -1927.807250976562 730.7846069335938 -1929.202514648438 729.77099609375 -1929.693115234375 728.2620849609375 L -1931.637573242188 722.2763671875 C -1931.910888671875 721.4354858398438 -1932.627685546875 721.1359252929688 -1933.20751953125 721.1359252929688 M -1933.20751953125 720.1359252929688 C -1932.145385742188 720.1359252929688 -1931.083374023438 720.746337890625 -1930.6865234375 721.96728515625 L -1928.742065429688 727.953125 C -1928.386962890625 729.045166015625 -1927.369506835938 729.7846069335938 -1926.221069335938 729.7846069335938 L -1919.927612304688 729.784423828125 C -1917.359985351562 729.784423828125 -1916.2919921875 733.0701904296875 -1918.369750976562 734.5791625976562 L -1923.46142578125 738.2785034179688 C -1924.390258789062 738.9534301757812 -1924.779052734375 740.14990234375 -1924.42431640625 741.241943359375 L -1922.479248046875 747.2278442382812 C -1921.685668945312 749.6697387695312 -1924.48046875 751.7003173828125 -1926.557983398438 750.191162109375 L -1931.649536132812 746.4915161132812 C -1932.578491210938 745.8165893554688 -1933.836669921875 745.8165893554688 -1934.765380859375 746.4915161132812 L -1939.857055664062 750.191162109375 C -1941.93408203125 751.7002563476562 -1944.72900390625 749.669677734375 -1943.935668945312 747.2278442382812 L -1941.99072265625 741.241943359375 C -1941.6357421875 740.14990234375 -1942.024536132812 738.9534301757812 -1942.953369140625 738.2785034179688 L -1948.04541015625 734.5791625976562 C -1950.12255859375 733.0701904296875 -1949.055053710938 729.784423828125 -1946.487548828125 729.784423828125 L -1940.193603515625 729.7846069335938 C -1939.045532226562 729.7846069335938 -1938.02783203125 729.045166015625 -1937.672973632812 727.953125 L -1935.728271484375 721.96728515625 C -1935.331665039062 720.746337890625 -1934.26953125 720.1359252929688 -1933.20751953125 720.1359252929688 Z" stroke="none" fill="#000"/>
  </g>
</svg>
