<svg id="ic_instagram" xmlns="http://www.w3.org/2000/svg" width="40.827" height="40.851" viewBox="0 0 40.827 40.851">
  <g id="Group_11585" data-name="Group 11585" transform="translate(-99.717 -440.617)">
    <rect id="Rectangle_4" data-name="Rectangle 4" width="38.73" height="38.73" rx="13" transform="translate(99.717 442.738)" fill="#00b180"/>
    <g id="Group_19" data-name="Group 19" transform="translate(101.763 440.617)">
      <g id="Group_18" data-name="Group 18" transform="translate(0 0)">
        <g id="Group_17" data-name="Group 17">
          <g id="Group_983" data-name="Group 983" transform="translate(27.386 6.923)">
            <path id="Path_3062" data-name="Path 3062" d="M-2078.882,2558.247a2.068,2.068,0,0,1-2.065-2.066,2.046,2.046,0,0,1,.6-1.459,2.049,2.049,0,0,1,1.461-.606,2.069,2.069,0,0,1,2.069,2.065,2.075,2.075,0,0,1-2.066,2.066Z" transform="translate(2081.154 -2553.909)" fill="#fff"/>
            <path id="Path_3063" data-name="Path 3063" d="M-2079.674,2553.53a1.86,1.86,0,0,1,1.858,1.857,1.867,1.867,0,0,1-1.858,1.859,1.861,1.861,0,0,1-1.858-1.859,1.84,1.84,0,0,1,.542-1.312,1.844,1.844,0,0,1,1.314-.545h0m0-.414h0a2.27,2.27,0,0,0-2.27,2.273,2.272,2.272,0,0,0,2.273,2.272,2.277,2.277,0,0,0,2.273-2.272,2.272,2.272,0,0,0-2.273-2.273Z" transform="translate(2081.947 -2553.116)"/>
          </g>
          <g id="Path_10" data-name="Path 10" transform="translate(9.996 9.837)">
            <path id="Path_3064" data-name="Path 3064" d="M-2155.56,2586.874a9.359,9.359,0,0,1-9.344-9.346,9.356,9.356,0,0,1,9.346-9.343,9.308,9.308,0,0,1,6.6,2.743,9.3,9.3,0,0,1,2.74,6.6,9.359,9.359,0,0,1-9.346,9.343Zm-.021-15.687a6.29,6.29,0,0,0-4.476,1.863,6.286,6.286,0,0,0-1.845,4.481,6.344,6.344,0,0,0,6.334,6.324,6.347,6.347,0,0,0,6.335-6.336,6.349,6.349,0,0,0-6.336-6.333Z" transform="translate(2165.111 -2567.977)" fill="#fff"/>
            <path id="Path_3065" data-name="Path 3065" d="M-2156.352,2567.6h0a9.1,9.1,0,0,1,6.458,2.682,9.1,9.1,0,0,1,2.68,6.457,9.152,9.152,0,0,1-9.139,9.136,9.152,9.152,0,0,1-9.137-9.139,9.148,9.148,0,0,1,9.138-9.136m-.01,15.671h.011a6.552,6.552,0,0,0,6.531-6.543v-.013a6.554,6.554,0,0,0-6.544-6.527h-.011a6.5,6.5,0,0,0-4.623,1.924,6.492,6.492,0,0,0-1.906,4.628,6.551,6.551,0,0,0,6.541,6.531m.011-16.085a9.553,9.553,0,0,0-9.553,9.55,9.555,9.555,0,0,0,9.551,9.553,9.555,9.555,0,0,0,9.553-9.55,9.543,9.543,0,0,0-2.8-6.75,9.544,9.544,0,0,0-6.75-2.8Zm-.011,15.671a6.126,6.126,0,0,1-6.126-6.117,6.124,6.124,0,0,1,6.114-6.137h.01a6.13,6.13,0,0,1,6.13,6.115v.011a6.13,6.13,0,0,1-6.117,6.129Z" transform="translate(2165.904 -2567.184)"/>
          </g>
          <g id="Path_11" data-name="Path 11">
            <path id="Path_3066" data-name="Path 3066" d="M-2201.723,2559.058a11.473,11.473,0,0,1-11.44-11.443v-15.483a11.468,11.468,0,0,1,11.44-11.44h15.483a11.473,11.473,0,0,1,11.443,11.441v15.483a11.478,11.478,0,0,1-11.443,11.443h-15.483Zm0-35.135a8.227,8.227,0,0,0-8.205,8.208v15.483a8.228,8.228,0,0,0,8.205,8.208h15.484a8.232,8.232,0,0,0,8.208-8.208v-15.484a8.232,8.232,0,0,0-8.208-8.208Z" transform="translate(2213.37 -2520.484)" fill="#fff"/>
            <path id="Path_3067" data-name="Path 3067" d="M-2187.032,2520.106h0a11.265,11.265,0,0,1,11.236,11.233v15.483a11.27,11.27,0,0,1-11.236,11.236h-15.483a11.265,11.265,0,0,1-11.234-11.236V2531.34a11.26,11.26,0,0,1,11.233-11.233h15.483m-15.484,35.132h15.484a8.44,8.44,0,0,0,8.415-8.416v-15.484a8.44,8.44,0,0,0-8.416-8.415h-15.484a8.435,8.435,0,0,0-8.412,8.416v15.484a8.435,8.435,0,0,0,8.412,8.415m15.484-35.546h-15.483a11.657,11.657,0,0,0-11.647,11.647v15.483a11.663,11.663,0,0,0,11.647,11.65h15.483a11.667,11.667,0,0,0,11.65-11.65v-15.483a11.661,11.661,0,0,0-11.65-11.647Zm-15.483,35.132a8.01,8.01,0,0,1-8-8v-15.483a8.008,8.008,0,0,1,8-8h15.483a8.012,8.012,0,0,1,8,8v15.483a8.012,8.012,0,0,1-8,8Z" transform="translate(2214.163 -2519.692)"/>
          </g>
        </g>
      </g>
    </g>
    <path id="Path_3068" data-name="Path 3068" d="M-2173.065,2537.294h-15.483a8.008,8.008,0,0,0-8,8v15.483a8.01,8.01,0,0,0,8,8h15.483a8.012,8.012,0,0,0,8-8V2545.3A8.012,8.012,0,0,0-2173.065,2537.294Zm-7.584,25.3a9.555,9.555,0,0,1-9.551-9.553,9.553,9.553,0,0,1,9.553-9.55,9.544,9.544,0,0,1,6.75,2.8,9.544,9.544,0,0,1,2.8,6.75A9.555,9.555,0,0,1-2180.649,2562.589Zm10.112-17.472a2.272,2.272,0,0,1-2.272-2.273,2.27,2.27,0,0,1,2.27-2.273h0a2.272,2.272,0,0,1,2.273,2.273A2.277,2.277,0,0,1-2170.537,2545.117Z" transform="translate(2301.959 -2093.031)" fill="#fff"/>
    <path id="Path_3069" data-name="Path 3069" d="M-2137.156,2589.792v.011a6.13,6.13,0,0,1-6.117,6.129,6.126,6.126,0,0,1-6.137-6.117,6.124,6.124,0,0,1,6.115-6.137A6.13,6.13,0,0,1-2137.156,2589.792Z" transform="translate(2264.586 -2129.807)" fill="#fff"/>
  </g>
</svg>
