<svg xmlns="http://www.w3.org/2000/svg" width="40.904" height="41.125" viewBox="0 0 40.904 41.125">
  <g id="Group_12692" data-name="Group 12692" transform="translate(-1190.708 -5452.361)">
    <g id="Group_12691" data-name="Group 12691">
      <rect id="Rectangle_526" data-name="Rectangle 526" width="38" height="39" rx="8" transform="translate(1190.708 5454.486)" fill="#00b180"/>
      <rect id="Rectangle_527" data-name="Rectangle 527" width="30" height="32" transform="translate(1196.708 5456.486)" fill="#fff"/>
      <path id="Path_9730" data-name="Path 9730" d="M266.758,298.587V273.6c.008-.04.019-.079.024-.119.028-.235.043-.472.085-.7A7.072,7.072,0,0,1,268.7,269.1a6.954,6.954,0,0,1,5.209-2.314q12.176-.027,24.353-.005a6.543,6.543,0,0,1,3.058.726,7.035,7.035,0,0,1,4.081,6.568c.033,8.015.012,16.031.008,24.046a7.674,7.674,0,0,1-.076,1.1,7.255,7.255,0,0,1-7.163,6.2q-12.085.019-24.169,0a7.012,7.012,0,0,1-1.471-.153,7.153,7.153,0,0,1-3.851-2.192,7.078,7.078,0,0,1-1.817-3.731C266.815,299.1,266.79,298.841,266.758,298.587Zm20.871.988v-.167q0-5.089,0-10.177a3.454,3.454,0,0,1,.447-1.781,3.047,3.047,0,0,1,3.873-1.363,2.338,2.338,0,0,1,1.221,1.475,6.447,6.447,0,0,1,.295,2.077q.007,4.893,0,9.785v.151h6.053V299.4q0-5.04,0-10.079a13.77,13.77,0,0,0-.164-2.258,8.238,8.238,0,0,0-.94-2.776,5.708,5.708,0,0,0-2.732-2.484,7.305,7.305,0,0,0-3.947-.49,5.276,5.276,0,0,0-3.659,2.179c-.147.2-.286.4-.429.6l-.038-.005v-2.474h-6.078v17.957Zm-8.945.009V281.619h-6.015c0,.05,0,.09,0,.131q0,1.251,0,2.5.006,2.605.014,5.211.009,4.984.013,9.969c0,.123.028.157.154.157q2.851-.007,5.7,0Zm-3.1-26.418c-.287.037-.577.056-.861.112a2.907,2.907,0,0,0-2.431,2.911,2.841,2.841,0,0,0,1.728,2.755,3.72,3.72,0,0,0,2.349.228,3.012,3.012,0,0,0,1.753-.975,2.894,2.894,0,0,0,.689-2.427,2.846,2.846,0,0,0-1.335-2.084A3.71,3.71,0,0,0,275.589,273.166Z" transform="translate(925.95 5185.836)" fill="#fff" stroke="#000" stroke-width="0.5"/>
    </g>
  </g>
</svg>
