<svg xmlns="http://www.w3.org/2000/svg" width="30.277" height="30.441" viewBox="0 0 30.277 30.441">
  <g id="Group_11556" data-name="Group 11556" transform="translate(0 0.25)">
    <rect id="Rectangle_526" data-name="Rectangle 526" width="28.067" height="28.806" rx="8" transform="translate(0 1.386)" fill="#00b180"/>
    <rect id="Rectangle_527" data-name="Rectangle 527" width="22.158" height="23.636" transform="translate(4.432 2.863)" fill="#fff"/>
    <path id="Path_9730" data-name="Path 9730" d="M266.758,290.272V271.812c.006-.029.014-.058.018-.088.021-.173.032-.349.063-.52a5.223,5.223,0,0,1,1.35-2.712,5.136,5.136,0,0,1,3.847-1.709q8.994-.02,17.987,0a4.832,4.832,0,0,1,2.259.536,5.2,5.2,0,0,1,3.014,4.852c.024,5.92.009,11.841.006,17.761a5.664,5.664,0,0,1-.056.812,5.359,5.359,0,0,1-5.291,4.58q-8.926.014-17.852,0a5.178,5.178,0,0,1-1.087-.113,5.283,5.283,0,0,1-2.844-1.619,5.228,5.228,0,0,1-1.342-2.756C266.8,290.648,266.782,290.459,266.758,290.272Zm15.416.73v-.123q0-3.759,0-7.517a2.551,2.551,0,0,1,.33-1.316,2.251,2.251,0,0,1,2.86-1.007,1.727,1.727,0,0,1,.9,1.089,4.762,4.762,0,0,1,.218,1.534q.005,3.614,0,7.228V291h4.471v-.125q0-3.722,0-7.445a10.17,10.17,0,0,0-.121-1.668,6.084,6.084,0,0,0-.695-2.05,4.216,4.216,0,0,0-2.018-1.835,5.4,5.4,0,0,0-2.915-.362,3.9,3.9,0,0,0-2.7,1.61c-.109.146-.211.3-.317.444l-.028,0v-1.828H277.67V291Zm-6.607.007V277.739h-4.443c0,.037,0,.067,0,.1q0,.924,0,1.848,0,1.924.01,3.849.007,3.681.009,7.363c0,.091.021.116.114.116q2.106,0,4.211,0ZM273.281,271.5c-.212.027-.426.042-.636.083a2.147,2.147,0,0,0-1.8,2.15,2.1,2.1,0,0,0,1.277,2.035,2.748,2.748,0,0,0,1.735.169,2.225,2.225,0,0,0,1.3-.72,2.137,2.137,0,0,0,.509-1.793,2.1,2.1,0,0,0-.986-1.539A2.74,2.74,0,0,0,273.281,271.5Z" transform="translate(-265.281 -266.774)" fill="#fff" stroke="#000" stroke-miterlimit="10" stroke-width="0.5"/>
  </g>
</svg>