<svg id="Component_69_3" data-name="Component 69 – 3" xmlns="http://www.w3.org/2000/svg" width="71.846" height="70.39" viewBox="0 0 71.846 70.39">
  <path id="Path_2970" data-name="Path 2970" d="M104.607,157.806c1.942-1.076,2.933-2.372,3.037-3.928,3.686,4.648,12.654,7.554,21.236,4.906l.086-4.654c-8.549,2.8-16.044-.15-16.044-4.8,0-4.442,5.826-8.567,16.142-5.218v-4.835a22.83,22.83,0,0,0-6.67-.783l-12.032-18.98h-5.673l-12,19.653H85.52v20.4H96.074C99.677,159.563,102.237,159.133,104.607,157.806Zm2.964-32.608,3.644,6.284h-7Zm-5.8,10.8h11.9l1.773,3.227h.895a32.684,32.684,0,0,0-3.17.874c-4.481,1.5-7.253,5.649-7.253,9.225a6.137,6.137,0,0,0,.092,1.061,12.814,12.814,0,0,0-4.554-2.056c2.41-1.065,3.7-2.3,3.7-3.914,0-1.759-1.575-3.349-4.246-4.257a13.339,13.339,0,0,0-1.487-.416Zm-9.491,6.859H94c3.005,0,4.539.773,4.539,2.07,0,1.423-1.631,2.211-4.786,2.211H92.278Zm0,13.013v-5.263h1.674c4.731,0,7.108,1.052,7.108,2.84,0,1.742-2.276,2.423-6.516,2.423Zm.463-41.245a.829.829,0,0,0-.076.07c.056-.057.083-.087.083-.087S92.743,114.617,92.741,114.627ZM83.3,171.854s-6.436-1.388-9.911-5.318a9.011,9.011,0,0,1-1.974-6.026c-.084-3.817,1.526-11.148,4.745-18.6,1.092-2.529,2.609-5.914,4.5-9.316,2.544-4.563,5.627-9.249,7.945-12.743a39.34,39.34,0,0,1,3.853-4.95c-1.948,2.189-6.629,10.939-9.391,18.175-3.282,8.57-6.066,20.39-5.878,27.582.082,3.261.654,6.5,2.069,8.407A8.141,8.141,0,0,0,83.3,171.854ZM92.665,114.7c-.047.051-.113.118-.2.208C92.538,114.825,92.6,114.758,92.665,114.7Zm48.122,33.579,0-.014A.024.024,0,0,1,140.787,148.276Zm-39.41-39.927a8.1,8.1,0,0,0-4.478,2s4.53-4.767,9.7-5.678a9,9,0,0,1,6.165,1.456c3.3,1.909,8.721,7.119,13.4,13.755a102.676,102.676,0,0,1,5.581,8.7c2.569,4.556,4.964,9.623,6.732,13.435a38.946,38.946,0,0,1,2.181,5.775c-.923-2.9-5.894-11.336-10.567-17.407-5.605-7.28-14.233-15.822-20.464-19.411C106.8,109.341,103.745,108.142,101.377,108.349Zm39.4,39.908c0-.014,0-.023-.007-.039a.249.249,0,0,0,.011.044Zm-.007-.039c-.019-.074-.056-.223-.117-.429A3.8,3.8,0,0,1,140.773,148.218ZM87.688,173.037s.193.057.549.147c-.211-.047-.392-.094-.538-.142Zm54.818-8.078a8.977,8.977,0,0,1-4.318,4.622c-3.309,1.924-10.506,4.052-18.585,4.827-2.742.256-6.438.56-10.331.542-5.223-.03-10.817-.471-15.006-.817a39.533,39.533,0,0,1-6.029-.949c3.047.612,12.758.479,20.295-.572,9.1-1.261,20.783-4.529,26.994-8.154,2.817-1.651,5.377-3.706,6.367-5.872a8.015,8.015,0,0,0,.485-4.873S144.279,160.015,142.506,164.959Z" transform="translate(-71.416 -104.561)" fill="#662483"/>
</svg>
