<svg id="Component_75_1" data-name="Component 75 – 1" xmlns="http://www.w3.org/2000/svg" width="131.831" height="49.295" viewBox="0 0 131.831 49.295">
  <path id="Path_38" data-name="Path 38" d="M629.477,306.175c-.069.078-.183.221-.345.435s-.327.446-.5.7-.365.531-.551.818-.364.525-.5.734a1.359,1.359,0,0,1-.365.242,2.343,2.343,0,0,1-.47.157c-.1-.071-.149-.135-.149-.205,0-.112.106-.262.318-.463.22-.354.46-.7.7-1.033s.549-.737.921-1.233c.681-.871,1.162-1.541,1.468-2.017.093-.131.163-.247.226-.34a1.383,1.383,0,0,0,.14-.319,3.434,3.434,0,0,0,.139-.49c.043-.2.088-.455.133-.748l.027-.135a.52.52,0,0,1,.114-.283,1.549,1.549,0,0,1,.416-.228c.062-.042.143-.079.235-.133a.407.407,0,0,1,.263-.106.421.421,0,0,1,.353.19.861.861,0,0,1,.131.486c0,.941,0,1.584-.025,1.908a9.333,9.333,0,0,1-.074.981,6.029,6.029,0,0,0-.074.843,5.041,5.041,0,0,0,.053.52c.036.15.079.314.124.479l.016.046a.565.565,0,0,0,.1.166.653.653,0,0,0,.2.151l.03.006a1,1,0,0,0,.442.142l.045-.014h.04a1.389,1.389,0,0,0,.513-.285,4.315,4.315,0,0,0,.562-.6c.348-.41.646-.774.876-1.088a6.579,6.579,0,0,0,.525-.783,2.5,2.5,0,0,0,.246-.549,1.6,1.6,0,0,0,.084-.395c0-.144.023-.373.05-.7.02-.283.03-.494.046-.617a.5.5,0,0,1,.04-.186,1.825,1.825,0,0,0,.059-.269,1.412,1.412,0,0,0,.03-.309,6.446,6.446,0,0,1,.046-.967.572.572,0,0,1,.183-.375c.025-.011.072-.052.147-.1.126-.1.223-.162.3-.211a.473.473,0,0,1,.239-.066.443.443,0,0,1,.322.131.367.367,0,0,1,.124.265v.035c-.012.028-.019.049-.019.049a4.119,4.119,0,0,0-.054.447c-.01.164-.022.36-.027.575a1.978,1.978,0,0,1-.041.544c-.1.252-.181.477-.245.676s-.116.406-.156.612l-.019.093a3.439,3.439,0,0,1-.178.534,4.458,4.458,0,0,1-.208.445,4.317,4.317,0,0,1-.261.418c-.09.146-.232.34-.417.6-.342.477-.63.9-.882,1.278a3.684,3.684,0,0,1-.507.535,4.662,4.662,0,0,1-.451.3,1.656,1.656,0,0,0-.19.127,1.781,1.781,0,0,1-.352.293,4.618,4.618,0,0,1-.49.252,1.351,1.351,0,0,1-.7.193.54.54,0,0,1-.375-.105,2.682,2.682,0,0,1-.479-.5.874.874,0,0,1-.179-.41,1.754,1.754,0,0,1,.027-.243c.011-.136.015-.244.015-.308a.828.828,0,0,0-.015-.178,1.161,1.161,0,0,1-.087-.393c-.013-.132-.013-.371-.013-.7-.012-.363-.013-.57-.013-.635l-.006-1.009a16,16,0,0,1-1.661,2.33" transform="translate(-592.765 -264.231)" fill="#1d1d1d"/>
  <path id="Path_39" data-name="Path 39" d="M639.839,304.032c-.092.151-.21.315-.338.518-.067.08-.107.144-.121.16a.635.635,0,0,1-.114.129.32.32,0,0,0-.117.117c-.076.109-.175.279-.3.486-.14.231-.29.446-.411.643-.18.3-.327.555-.447.773a2.615,2.615,0,0,0-.235.627,2.665,2.665,0,0,0,.515-.185,1.759,1.759,0,0,0,.321-.3c.058-.059.117-.111.141-.137s.07-.074.126-.132c.14-.137.256-.243.356-.33a4.53,4.53,0,0,1,.351-.292c.269-.216.689-.578,1.273-1.07.641-.543,1.121-.953,1.45-1.217a.288.288,0,0,1,.161-.056,1.677,1.677,0,0,1,.27.039c.075.011.125.017.159.019.071.014.112.037.112.084a1.747,1.747,0,0,1-.151.356c-.108.217-.207.408-.284.58-.192.414-.348.728-.47.937a5.615,5.615,0,0,1-.361.535,1.273,1.273,0,0,0-.211.335,3.015,3.015,0,0,1-.131.361,2.248,2.248,0,0,0-.16.557c0,.089.045.16.163.232a3.121,3.121,0,0,1-.291.305.928.928,0,0,1-.232.154,1.649,1.649,0,0,1-.286.111,1.324,1.324,0,0,1-.293.051.123.123,0,0,1-.114-.051,1.143,1.143,0,0,1,.056-.31,3.186,3.186,0,0,1,.13-.42c.062-.133.109-.258.164-.36.038-.1.118-.269.227-.5l.034-.074a1.891,1.891,0,0,0,.082-.228,1.2,1.2,0,0,1,.106-.268,2.311,2.311,0,0,0,.132-.33c.043-.123.081-.236.107-.332-.138.1-.27.193-.386.291a2.505,2.505,0,0,0-.266.269.284.284,0,0,1-.142.073.224.224,0,0,0-.175.113,2.159,2.159,0,0,1-.191.209c-.086.08-.184.154-.3.244a1.84,1.84,0,0,1-.3.193.376.376,0,0,1-.175.079c-.04,0-.107.068-.182.213-.1.177-.183.287-.264.318-.094.051-.2.111-.311.178s-.328.211-.629.414l-.45.293a.477.477,0,0,1-.3.117.485.485,0,0,1-.375-.182.244.244,0,0,1-.09-.156,1.747,1.747,0,0,1,.212-.457c.142-.227.239-.4.3-.52.244-.449.445-.812.581-1.1s.293-.612.455-.957c.043-.1.081-.194.126-.283.146-.348.316-.7.514-1.077a8.421,8.421,0,0,1,.456-.808.168.168,0,0,1,.1-.086.735.735,0,0,1,.166-.027h.038a.439.439,0,0,1,.256.056.317.317,0,0,1,.121.2c.006.078.019.155.029.248a1.206,1.206,0,0,1,.028.17v.037c-.012.024-.016.034-.016.034a2.274,2.274,0,0,1-.191.39" transform="translate(-592.765 -264.231)" fill="#1d1d1d"/>
  <path id="Path_40" data-name="Path 40" d="M644.122,304.534v-.023c-.074,0-.164.054-.3.166a1.668,1.668,0,0,0-.328.412,3.352,3.352,0,0,1-.034-.379.678.678,0,0,1,.063-.307,1.678,1.678,0,0,1,.263-.414.415.415,0,0,1,.236-.1h0a.821.821,0,0,0,.3-.094,1.425,1.425,0,0,1,.491-.141c.338-.473.628-.9.873-1.3s.516-.884.83-1.461c.077-.113.162-.277.275-.486a1.453,1.453,0,0,1,.246-.365.192.192,0,0,1,.108-.02,1.353,1.353,0,0,0,.165-.045.706.706,0,0,0,.221-.119.352.352,0,0,1,.209-.078.1.1,0,0,1,.108.113.981.981,0,0,1-.179.43c-.061.113-.258.426-.572.912-.255.4-.465.725-.648,1.008s-.395.6-.627.951c-.05.067-.1.125-.144.194-.087.109-.128.164-.128.164a.267.267,0,0,1,.008.035.511.511,0,0,0,.077,0,1.086,1.086,0,0,1,.187-.014c.355-.031.795-.056,1.326-.111.339-.039.562-.055.663-.055a2.379,2.379,0,0,0,.287-.015.994.994,0,0,0,.174-.038.528.528,0,0,1,.18-.072c.038,0,.053.018.053.039a.348.348,0,0,1-.084.155.844.844,0,0,1-.139.166.465.465,0,0,1-.17.212.923.923,0,0,1-.246.1c-.1.029-.19.055-.258.082a2.235,2.235,0,0,1-.622.133c-.343.049-.981.139-1.906.248-.25.33-.457.642-.633.918a8.71,8.71,0,0,0-.454.773,4.653,4.653,0,0,0-.308.694,6.534,6.534,0,0,0-.225.656c0,.082.034.121.1.121s.133-.055.184-.166a.379.379,0,0,0,.007.066v.057a.692.692,0,0,1-.237.555.725.725,0,0,1-.44.2.777.777,0,0,1-.317.127.188.188,0,0,1-.161-.121.941.941,0,0,1-.114-.43c0-.066.017-.156.028-.254a.524.524,0,0,1,.018-.135,2.735,2.735,0,0,1,.057-.279,4.049,4.049,0,0,1,.179-.379c.094-.181.247-.449.452-.8s.5-.829.878-1.43a.181.181,0,0,0,.028-.055" transform="translate(-592.765 -264.231)" fill="#1d1d1d"/>
  <path id="Path_41" data-name="Path 41" d="M651.974,306.372c.258-.361.558-.805.875-1.307a.276.276,0,0,0,.086-.146.05.05,0,0,0-.036-.037c-.12,0-.265-.018-.408-.033a4.851,4.851,0,0,1-.481-.082c-.036,0-.075-.034-.107-.09a.328.328,0,0,1-.045-.164.184.184,0,0,1,.06-.155l.543-.4a.44.44,0,0,1,.293-.076,2.794,2.794,0,0,1,.657.107.9.9,0,0,0,.151-.263c.028-.1.048-.229.078-.369a1.2,1.2,0,0,1,.04-.292.462.462,0,0,1,.081-.205,1.744,1.744,0,0,1,.173-.226c.066-.074.133-.137.194-.2a.405.405,0,0,1,.154-.1.88.88,0,0,1,.16-.02c.2,0,.286.1.286.315a3.435,3.435,0,0,1-.3,1.064c.163-.041.34-.086.552-.136a1.685,1.685,0,0,0,.229-.045c.161-.074.348-.157.549-.258s.411-.194.567-.281a4.085,4.085,0,0,0,.447-.239,1.378,1.378,0,0,0,.258-.17,1.135,1.135,0,0,0,.433-.806.678.678,0,0,0-.183-.451.873.873,0,0,0-.465-.266,8.137,8.137,0,0,0-2.345-.344,8.935,8.935,0,0,0-1.063.069c-.242.033-.4.066-.476.082a.553.553,0,0,0-.207.068.334.334,0,0,0-.133.131,2.072,2.072,0,0,0-.16.281l-.02.043c-.016.033-.051.055-.116.063a.992.992,0,0,1-.223.025,1.421,1.421,0,0,1-.184-.01h-.09c-.058-.006-.085-.023-.085-.045s.012-.052.06-.115c0,0,0-.016.025-.037a5.562,5.562,0,0,1,.471-.674,1.634,1.634,0,0,1,.521-.408,3.121,3.121,0,0,1,.824-.256,9.165,9.165,0,0,1,1.285-.1.159.159,0,0,1,.066.016.982.982,0,0,0,.233.033c.774.086,1.343.151,1.706.2a4.028,4.028,0,0,1,.912.256,1.194,1.194,0,0,1,.533.459,2.228,2.228,0,0,1,.224.84,3.069,3.069,0,0,0-.36.51,3.785,3.785,0,0,1-.394.56,1.391,1.391,0,0,1-.5.358,6.527,6.527,0,0,1-.592.408,4.949,4.949,0,0,1-.6.3,4.768,4.768,0,0,1-.8.236,8.409,8.409,0,0,1-1.062.141,12.2,12.2,0,0,1,1.3.277,2.231,2.231,0,0,1,.847.475,2.655,2.655,0,0,0,.276.2,4.037,4.037,0,0,1,.4.285.942.942,0,0,1,.267.469,2.328,2.328,0,0,1,.113.633.247.247,0,0,1,0,.035.316.316,0,0,0-.012.086,1.172,1.172,0,0,1-.075.17c-.053.086-.1.18-.169.277s-.121.186-.177.268a.96.96,0,0,1-.126.15,4.967,4.967,0,0,1-.514.354q-.242.129-.622.3l-.038.024c-.036.006-.142.027-.336.058a.971.971,0,0,0-.146.016c-.091.018-.232.049-.407.074s-.371.063-.578.086-.414.051-.627.076-.415.037-.573.043h-.145c-.644,0-1.151-.011-1.519-.039a6.044,6.044,0,0,1-1.023-.14c-.028-.006-.042-.035-.066-.071s-.048-.066-.063-.066c-.026-.027-.066-.031-.13-.031a.56.56,0,0,0-.073.006h-.087l-.035-.006h-.036a2.724,2.724,0,0,1-.87-.444.626.626,0,0,1-.224-.5.67.67,0,0,1,.056-.255,1.965,1.965,0,0,1,.136-.286,1.18,1.18,0,0,1,.168-.23.242.242,0,0,1,.161-.092h.077a.612.612,0,0,1,.1-.012c.038,0,.049,0,.064.012h.017a.442.442,0,0,1,.052.2,2.99,2.99,0,0,0,.089.35.36.36,0,0,0,.11.205,2.058,2.058,0,0,0,.527.252,6.248,6.248,0,0,0,.876.23,10.487,10.487,0,0,0,1.071.172,8.512,8.512,0,0,0,1.129.067,8.846,8.846,0,0,0,1.274-.073,2.091,2.091,0,0,0,.833-.261,1.179,1.179,0,0,0,.7-.3.806.806,0,0,0,.244-.551.323.323,0,0,0-.032-.168,2.182,2.182,0,0,0-.382-.638,2,2,0,0,0-.517-.4,2.927,2.927,0,0,0-.736-.252,8.65,8.65,0,0,0-1.075-.132c-.025,0-.079.062-.173.177s-.232.311-.418.576c-.263.36-.494.653-.672.891s-.376.49-.582.75a1.271,1.271,0,0,1-.4.066c-.152,0-.233-.031-.233-.1a.159.159,0,0,1,.054-.108c.173-.238.394-.529.662-.9" transform="translate(-592.765 -264.231)" fill="#1d1d1d"/>
  <path id="Path_42" data-name="Path 42" d="M660.721,307.032c-.142.145-.272.287-.4.42a.5.5,0,0,1-.286.139.638.638,0,0,0-.317.146c-.1.112-.19.2-.275.28a.932.932,0,0,1-.228.142,1.213,1.213,0,0,0-.156.065.524.524,0,0,0-.1.09.467.467,0,0,1-.175.1c-.067.014-.166.039-.3.057a1.193,1.193,0,0,0-.18.019.281.281,0,0,1-.147-.031.184.184,0,0,1-.04-.117.074.074,0,0,1-.01-.035.149.149,0,0,0-.017-.067.126.126,0,0,1-.01-.045.922.922,0,0,1,.058-.287c.033-.115.108-.365.237-.74.161-.465.286-.84.368-1.1a1.8,1.8,0,0,0,.067-.222,1.2,1.2,0,0,1,.112-.33,1.764,1.764,0,0,0,.141-.282,1.337,1.337,0,0,0,.11-.285.846.846,0,0,1,.13-.228,1.772,1.772,0,0,1,.2-.2,2.148,2.148,0,0,0,.294-.3.689.689,0,0,1,.309-.231,1.729,1.729,0,0,1,.33-.078.3.3,0,0,0,.144-.029.458.458,0,0,1,.046-.045c.037,0,.051.08.051.234v.116a1.224,1.224,0,0,1,.133-.213,1.6,1.6,0,0,1,.227-.262.529.529,0,0,1,.282-.189c.117-.047.315-.11.585-.194.208-.058.366-.105.448-.129a.428.428,0,0,1,.191-.043.4.4,0,0,1,.276.1.349.349,0,0,1,.1.264,1.756,1.756,0,0,1-.066.5,4.563,4.563,0,0,1-.2.531,5.465,5.465,0,0,1-.35.791,1.6,1.6,0,0,1-.329.389c-.016.025-.1.109-.248.267-.181.2-.316.338-.41.446s-.179.185-.233.238a3.164,3.164,0,0,0-.359.355m-.142-.6a4.088,4.088,0,0,1,.759-.673.754.754,0,0,0,.278-.291c.107-.168.238-.383.37-.641a.7.7,0,0,0,.1-.26,1.192,1.192,0,0,0,.034-.263.375.375,0,0,0-.05-.227c-.037-.039-.1-.049-.2-.049a1.541,1.541,0,0,0-.52.049.419.419,0,0,0-.216.233.55.55,0,0,0-.037.072.328.328,0,0,1-.094.16.3.3,0,0,1-.176.062.793.793,0,0,0-.588.289,4.228,4.228,0,0,0-.492.856c-.053.1-.117.234-.192.4-.149.288-.257.5-.31.625s-.168.307-.29.549a.45.45,0,0,1-.045.08.376.376,0,0,0-.043.11c0,.027.035.043.088.043a1.406,1.406,0,0,0,.157-.028c.1-.027.2-.066.251-.084a.746.746,0,0,0,.177-.105,1.354,1.354,0,0,0,.229-.16,3.154,3.154,0,0,0,.338-.293c.182-.176.342-.327.472-.452" transform="translate(-592.765 -264.231)" fill="#1d1d1d"/>
  <path id="Path_43" data-name="Path 43" d="M665.253,303.954c-.084.141-.206.313-.34.518-.065.084-.1.136-.118.156a.443.443,0,0,1-.114.125.431.431,0,0,0-.118.119c-.069.115-.178.279-.3.482-.144.231-.275.444-.408.643-.179.307-.332.564-.437.775a2.343,2.343,0,0,0-.243.633,2.1,2.1,0,0,0,.513-.2,1.171,1.171,0,0,0,.326-.289c.066-.066.105-.1.139-.141s.068-.066.124-.126c.141-.139.257-.25.354-.335s.212-.177.352-.292c.268-.213.7-.573,1.277-1.069.637-.545,1.123-.955,1.45-1.213a.212.212,0,0,1,.152-.051,2.011,2.011,0,0,1,.285.026c.065.016.12.025.153.033.073.008.109.029.109.072a1.435,1.435,0,0,1-.15.348c-.112.227-.209.416-.279.588-.2.412-.361.736-.483.939a3.111,3.111,0,0,1-.357.539,1.06,1.06,0,0,0-.2.33,3.616,3.616,0,0,1-.136.362,3.08,3.08,0,0,0-.165.558c0,.084.059.163.176.229a2.967,2.967,0,0,1-.3.307.787.787,0,0,1-.224.152,1.591,1.591,0,0,1-.286.119,1.066,1.066,0,0,1-.3.055c-.057,0-.1-.018-.112-.055a1.3,1.3,0,0,1,.049-.316,2.715,2.715,0,0,1,.147-.412c.06-.145.112-.27.151-.368s.116-.269.226-.5l.03-.078a1.859,1.859,0,0,0,.085-.232,1.644,1.644,0,0,1,.108-.254c.05-.1.09-.213.141-.338a1.981,1.981,0,0,0,.1-.338c-.136.1-.265.2-.386.3a1.529,1.529,0,0,0-.261.273.228.228,0,0,1-.144.061.343.343,0,0,0-.18.111,1.206,1.206,0,0,1-.186.223,3.661,3.661,0,0,1-.293.232,3.461,3.461,0,0,1-.293.2.626.626,0,0,1-.189.077c-.039,0-.1.064-.186.212a.718.718,0,0,1-.248.317,1.8,1.8,0,0,0-.323.18c-.117.07-.327.209-.633.417l-.445.29a.493.493,0,0,1-.3.113.449.449,0,0,1-.373-.176.2.2,0,0,1-.085-.156,1.741,1.741,0,0,1,.211-.459c.131-.227.233-.406.3-.522.246-.445.439-.82.575-1.1.139-.293.286-.614.449-.959.048-.1.093-.194.128-.282.15-.351.324-.712.516-1.078s.348-.638.455-.808a.159.159,0,0,1,.1-.082.539.539,0,0,1,.167-.036h.041a.51.51,0,0,1,.253.055.325.325,0,0,1,.125.213,1.468,1.468,0,0,0,.035.244c.008.078.017.135.017.158v.053l-.009.024a2.263,2.263,0,0,1-.2.4" transform="translate(-592.765 -264.231)" fill="#1d1d1d"/>
  <path id="Path_44" data-name="Path 44" d="M669.54,304.448l-.017-.019a.666.666,0,0,0-.28.16,1.347,1.347,0,0,0-.334.422,2.921,2.921,0,0,1-.031-.383.728.728,0,0,1,.058-.314,1.446,1.446,0,0,1,.269-.411.355.355,0,0,1,.234-.086h0a1,1,0,0,0,.3-.1,1.3,1.3,0,0,1,.476-.145c.347-.473.631-.906.886-1.3.238-.394.512-.88.831-1.457.063-.109.155-.277.272-.5a1.664,1.664,0,0,1,.236-.357.209.209,0,0,1,.113-.022,1.438,1.438,0,0,0,.166-.043.769.769,0,0,0,.231-.119.3.3,0,0,1,.195-.07c.076,0,.108.037.108.105a1,1,0,0,1-.164.43c-.075.119-.266.426-.588.912-.246.391-.466.725-.641,1.012s-.39.6-.616.951c-.07.065-.1.125-.163.19-.076.107-.122.168-.122.168.006.031.016.035.027.035s.03,0,.054-.01c.076-.01.134-.01.2-.014.347-.017.787-.06,1.314-.113.34-.033.558-.051.663-.051a1.694,1.694,0,0,0,.294-.015.472.472,0,0,0,.165-.039.634.634,0,0,1,.188-.067.067.067,0,0,1,.046.014.336.336,0,0,1-.076.179.979.979,0,0,1-.153.174.436.436,0,0,1-.164.2.773.773,0,0,1-.248.1,1.6,1.6,0,0,0-.25.084,3.271,3.271,0,0,1-.622.129c-.355.049-.994.137-1.9.248-.248.338-.46.64-.642.914a8.571,8.571,0,0,0-.457.781,7.138,7.138,0,0,0-.307.69,5.911,5.911,0,0,0-.217.66c0,.08.031.119.1.119s.123-.053.18-.164a.245.245,0,0,0,.011.066v.059a.667.667,0,0,1-.242.553.756.756,0,0,1-.44.2.678.678,0,0,1-.316.129c-.066,0-.113-.045-.154-.129a.835.835,0,0,1-.107-.428,2.034,2.034,0,0,1,.021-.258,1.246,1.246,0,0,1,.014-.134,1.82,1.82,0,0,1,.068-.278,3.014,3.014,0,0,1,.174-.387c.091-.183.242-.445.444-.795.22-.353.507-.83.886-1.433a.1.1,0,0,0,.021-.055" transform="translate(-592.765 -264.231)" fill="#1d1d1d"/>
  <path id="Path_45" data-name="Path 45" d="M672.366,306.085c.1-.178.194-.367.306-.582.1-.207.205-.426.3-.643s.194-.433.3-.652a.172.172,0,0,1-.122-.113.411.411,0,0,1-.032-.188c0-.043.042-.1.108-.17s.147-.148.254-.259a3.706,3.706,0,0,0,.3-.278.374.374,0,0,1,.328-.166l.046.014h.051a.52.52,0,0,1,.191.064.211.211,0,0,1,.063.174.9.9,0,0,1-.029.192c-.065.259-.112.435-.14.537a1.3,1.3,0,0,1-.1.269c-.038.09-.075.18-.124.28s-.147.251-.255.447c-.121.17-.324.506-.611.986-.3.508-.542.906-.722,1.2a9.106,9.106,0,0,1-.55.778,1.68,1.68,0,0,1-.336.277.743.743,0,0,1-.354.152.066.066,0,0,1-.065-.027c-.028-.022-.04-.035-.04-.051a.469.469,0,0,1,.078-.17.326.326,0,0,0,.057-.09,3.584,3.584,0,0,1,.188-.338c.058-.115.174-.335.353-.675.061-.127.136-.248.191-.362s.1-.189.118-.22a2.681,2.681,0,0,0,.251-.389m3.375-5.475a.9.9,0,0,1-.023.207.846.846,0,0,1-.213.45,2.991,2.991,0,0,1-.425.386c-.082.076-.138.118-.163.118s-.054-.028-.092-.079a1.135,1.135,0,0,1-.134-.546.85.85,0,0,1,.066-.391.651.651,0,0,1,.26-.272c.083-.052.161-.1.238-.136a.579.579,0,0,1,.217-.055.2.2,0,0,1,.138.039.319.319,0,0,1,.131.279" transform="translate(-592.765 -264.231)" fill="#1d1d1d"/>
  <path id="Path_46" data-name="Path 46" d="M675.955,305.065a1.17,1.17,0,0,1,.086-.115,1.7,1.7,0,0,1,.156-.168c.074-.06.171-.152.316-.258.13-.107.327-.263.591-.457s.571-.423.909-.666l.006-.007c.09-.051.166-.086.227-.12a3.287,3.287,0,0,1,.361-.093,2.156,2.156,0,0,1,.517-.094.677.677,0,0,1,.553.277.9.9,0,0,1,.164.572,1.68,1.68,0,0,1-.036.311,4.538,4.538,0,0,0-.141.547c-.036.145-.063.277-.084.389a.923.923,0,0,1-.05.253,6.678,6.678,0,0,1-.325.674c-.154.311-.36.7-.612,1.157-.185.349-.331.623-.433.812a4.552,4.552,0,0,0-.2.414c-.047.1-.087.2-.126.293a1.83,1.83,0,0,1-.138.262c-.057.088-.13.2-.229.353s-.233.321-.383.522c-.05.066-.172.244-.378.521s-.341.459-.421.578a2.762,2.762,0,0,0-.209.334,3.963,3.963,0,0,0-.177.362c-.066.133-.15.336-.256.621l-.02.053c-.005.041-.017.06-.017.076,0,.035.037.066.092.1a.721.721,0,0,1-.258.53,2.222,2.222,0,0,1-.6.431.32.32,0,0,1-.137-.025.71.71,0,0,1-.161-.133l-.019-.017a4.869,4.869,0,0,1,.558-1.532c.286-.494.683-1.121,1.19-1.871.446-.648.8-1.191,1.07-1.642a5.78,5.78,0,0,0,.589-1.344l-.023.023c-.2.215-.343.373-.438.451a.6.6,0,0,1-.33.11c-.394.107-.82.236-1.259.377-.194.062-.325.109-.4.131a3.618,3.618,0,0,1-1.25.388.366.366,0,0,1-.41-.273V308.1a.2.2,0,0,1-.008-.047,1.655,1.655,0,0,1,.38-1.02,14.051,14.051,0,0,1,1.092-1.224,4.1,4.1,0,0,0,.316-.317,3.369,3.369,0,0,0,.347-.428m2.945-.183c0-.115.018-.24.018-.379a.505.505,0,0,0-.061-.313.483.483,0,0,0-.225-.13l-.057-.022a.688.688,0,0,0-.265-.049,1.069,1.069,0,0,0-.473.141,4.679,4.679,0,0,0-.7.5,2.615,2.615,0,0,0-.3.252c-.09.074-.2.17-.314.265-.261.247-.591.586-1,1a3.12,3.12,0,0,0-.38.444,2.574,2.574,0,0,0-.282.572,1.126,1.126,0,0,0-.13.359.107.107,0,0,0,.051.08.154.154,0,0,1,.023.02l.017.01a.283.283,0,0,0,.045.017,1.714,1.714,0,0,0,.378-.078c.162-.045.373-.105.612-.179.25-.094.493-.184.76-.3.249-.1.494-.215.726-.327a1.644,1.644,0,0,1,.381-.566,6.083,6.083,0,0,1,.662-.562c.249-.2.4-.329.411-.4a1.3,1.3,0,0,0,.1-.365" transform="translate(-592.765 -264.231)" fill="#1d1d1d"/>
  <path id="Path_47" data-name="Path 47" d="M682.694,303.894c-.082.144-.2.32-.334.515a1.9,1.9,0,0,0-.118.162.548.548,0,0,1-.113.127.252.252,0,0,0-.111.119,5.552,5.552,0,0,0-.312.487c-.146.222-.274.441-.4.636-.183.3-.338.565-.447.77a4.411,4.411,0,0,0-.249.631,2.429,2.429,0,0,0,.524-.19,1.177,1.177,0,0,0,.322-.293,1.935,1.935,0,0,1,.139-.142c.024-.026.07-.07.124-.127.138-.135.263-.242.367-.336.084-.078.2-.18.342-.3.27-.2.692-.564,1.277-1.062.634-.547,1.121-.958,1.445-1.211a.237.237,0,0,1,.167-.057,2.34,2.34,0,0,1,.268.029l.167.037c.062,0,.1.03.1.069a1.844,1.844,0,0,1-.138.351,5.21,5.21,0,0,0-.286.586,10.038,10.038,0,0,1-.475.936,3.824,3.824,0,0,1-.367.541.847.847,0,0,0-.194.33c-.038.1-.082.226-.141.359a2.357,2.357,0,0,0-.17.572c0,.079.055.149.17.217a2.458,2.458,0,0,1-.287.309.905.905,0,0,1-.23.146,1.6,1.6,0,0,1-.283.127,1.154,1.154,0,0,1-.306.043.133.133,0,0,1-.116-.043,1.055,1.055,0,0,1,.066-.324,2.526,2.526,0,0,1,.138-.408c.056-.149.105-.268.145-.367s.128-.268.232-.494l.032-.081a1.477,1.477,0,0,0,.092-.236,2,2,0,0,1,.1-.256,2.648,2.648,0,0,0,.144-.328c.041-.129.069-.238.1-.336a3.655,3.655,0,0,0-.388.3,2.505,2.505,0,0,0-.269.268.238.238,0,0,1-.147.066.292.292,0,0,0-.167.11,2.6,2.6,0,0,1-.2.218c-.087.077-.188.16-.295.237a2.975,2.975,0,0,1-.293.2.516.516,0,0,1-.19.066c-.045,0-.106.076-.177.217a.68.68,0,0,1-.271.32c-.09.045-.2.11-.314.18s-.318.211-.616.416l-.453.293a.5.5,0,0,1-.306.117.513.513,0,0,1-.369-.176.239.239,0,0,1-.089-.164,1.559,1.559,0,0,1,.209-.461c.13-.222.232-.4.3-.525.246-.439.44-.809.575-1.1s.3-.6.456-.951a2.949,2.949,0,0,0,.129-.283c.154-.344.316-.711.517-1.07a7.87,7.87,0,0,1,.461-.813.155.155,0,0,1,.1-.086.543.543,0,0,1,.167-.029h.04a.4.4,0,0,1,.247.056.319.319,0,0,1,.127.208,2.441,2.441,0,0,0,.033.244.692.692,0,0,1,.02.166v.08a3,3,0,0,1-.213.385" transform="translate(-592.765 -264.231)" fill="#1d1d1d"/>
  <path id="Path_48" data-name="Path 48" d="M688.485,305.956a3.655,3.655,0,0,1-1.4.26c-.046,0-.1,0-.162-.01h-.149c-.093.105-.177.205-.246.3a2.24,2.24,0,0,0-.338.428.756.756,0,0,0-.078.365.263.263,0,0,0,.175.258.905.905,0,0,0,.31.066,1.66,1.66,0,0,0,.473-.082c.189-.061.439-.137.749-.252l.057-.023c.058-.032.209-.1.444-.233a3.968,3.968,0,0,1,.385-.211c.1-.049.179-.086.233-.113a1.2,1.2,0,0,0,.273-.182.634.634,0,0,1,.191-.119c.029,0,.029,0,.029.027a1.538,1.538,0,0,1-.083.295.546.546,0,0,1-.117.153.447.447,0,0,0-.107.111,2.577,2.577,0,0,1-.522.354,6.653,6.653,0,0,1-.783.375c-.427.187-.806.345-1.158.461a2.881,2.881,0,0,1-.7.175c-.521,0-.773-.17-.773-.515a1.683,1.683,0,0,1,.084-.545,1.622,1.622,0,0,1,.2-.457c.036-.067.136-.19.269-.369.1-.143.173-.243.222-.325a.317.317,0,0,0,.072-.152l0-.018c-.025-.007-.028-.023-.028-.023a.318.318,0,0,1,.075-.172,1.412,1.412,0,0,1,.182-.2c.073-.064.136-.131.2-.189a1.038,1.038,0,0,1,.155-.1c.038,0,.093-.055.173-.15s.19-.2.307-.346.2-.229.271-.3a1.628,1.628,0,0,1,.191-.191c.166-.172.345-.33.527-.489s.367-.283.535-.4.343-.2.476-.269a1.041,1.041,0,0,1,.376-.1c.413.109.621.322.626.656a3.281,3.281,0,0,1-.557,1.395,2.386,2.386,0,0,1-1.067.867m.291-.945a2.754,2.754,0,0,0,.443-.608.589.589,0,0,0,.065-.263c0-.114-.058-.17-.177-.17a.377.377,0,0,0-.2.062,1.949,1.949,0,0,0-.435.282,3,3,0,0,0-.538.5.754.754,0,0,0-.162.162.409.409,0,0,0-.064.147.215.215,0,0,1-.053.1c-.146.1-.214.175-.214.213s.032.054.119.054a1.667,1.667,0,0,0,.3-.039c.129-.031.275-.066.455-.107a1.4,1.4,0,0,0,.462-.336" transform="translate(-592.765 -264.231)" fill="#1d1d1d"/>
  <path id="Path_49" data-name="Path 49" d="M721.9,278.971a1.232,1.232,0,0,1,1.528-.929,1.245,1.245,0,0,1,.847,1.559,1.229,1.229,0,1,1-2.375-.63m-.275-.083a1.515,1.515,0,1,0,1.856-1.066,1.507,1.507,0,0,0-1.856,1.066m.674,1.1.288.071.2-.747.234.058.27.883.3.079-.285-.886a.442.442,0,0,0,.557-.355c.1-.331-.054-.53-.452-.635l-.658-.182Zm.679-1.417.331.089c.174.051.339.149.291.341-.062.227-.208.232-.427.174l-.334-.09Z" transform="translate(-592.765 -264.231)" fill="#1d1d1d"/>
  <path id="Path_50" data-name="Path 50" d="M621.832,268.011a8.728,8.728,0,0,0-4.989-3.322,14.918,14.918,0,0,0-3.949-.458c-7.724.041-16.951,6.849-19.516,16.358-.925,3.457-.783,6.262.29,8.42a8.137,8.137,0,0,0,5.446,4.172l.021.008a15.362,15.362,0,0,0,3.888.462,18.394,18.394,0,0,0,10.837-3.782l.221-.161.046-.261.521-2.745V286.7c.015-.1.062-.3.08-.519a1.477,1.477,0,0,0-.041-.441.792.792,0,0,0-.809-.618.981.981,0,0,0-.717.346,3.145,3.145,0,0,0-.323.4c-2.166,3.035-6.271,5.5-9.815,5.484a7.051,7.051,0,0,1-1.838-.23,5.016,5.016,0,0,1-3.342-2.675,7.808,7.808,0,0,1-.243-5.518,29.9,29.9,0,0,1,5.649-11.3c2.609-3.084,5.8-5.082,9.4-5.09a8.793,8.793,0,0,1,2.228.273,4.459,4.459,0,0,1,2.42,1.448,3.853,3.853,0,0,1,.652,3.007,7.192,7.192,0,0,0-.016.821c.01.127.016.246.035.363a1.952,1.952,0,0,0,.064.2c.055.07.017.263.494.455,0,0,.063.011.133.02h.049a.7.7,0,0,0,.482-.18,1.94,1.94,0,0,0,.418-.528c.129-.2.262-.408.411-.636l2.087-3.384Zm9.245,23.223-.015-.014a.324.324,0,0,1-.109-.26,2.481,2.481,0,0,1,.13-.854,29.066,29.066,0,0,1,2.206-5.625l3.157-6.3-.621-.313a11.381,11.381,0,0,0-1.932-.705,13.3,13.3,0,0,0-3.335-.456c-5.73.024-12.15,3.658-13.817,9.81a6.19,6.19,0,0,0,.119,4.093,4.21,4.21,0,0,0,2.876,2.385l.01.011a6.973,6.973,0,0,0,1.743.212,8.5,8.5,0,0,0,6.073-2.735c-.081.338-.15.648-.2.9-.029.166-.047.3-.073.439a1.335,1.335,0,0,0,.037.5l.162.477,3.066,0a.918.918,0,0,0,.9-.66.87.87,0,0,0-.049-.565.817.817,0,0,0-.332-.339m.153-9.881h0a33.636,33.636,0,0,1-3.749,6.35c-1.6,2-3.485,3.41-5.6,3.4a3.222,3.222,0,0,1-.634-.065,1.334,1.334,0,0,1-1-1.117,4.808,4.808,0,0,1,.139-2.3,14.531,14.531,0,0,1,3.4-6.209,8.46,8.46,0,0,1,6.14-2.816,6.026,6.026,0,0,1,1.429.179c0,.013.005.013.005.013a4.19,4.19,0,0,1,.9.345Zm11.01-2.1a7.957,7.957,0,0,1,3.1-.674,5.2,5.2,0,0,1,1.271.135,1.981,1.981,0,0,1,1.118.7,3.442,3.442,0,0,1,.623,1.533l.007.073.027.06c.007.018.019.043.044.113.046.041.029.261.489.43l.009.009a.943.943,0,0,0,.155.018.821.821,0,0,0,.5-.16,1.889,1.889,0,0,0,.384-.455l1.939-2.9-.653-.368a6.671,6.671,0,0,0-1.6-.624,15.078,15.078,0,0,0-3.677-.453,14.193,14.193,0,0,0-5.421,1.036,6.585,6.585,0,0,0-4.035,4.3,3.041,3.041,0,0,0,.426,2.832,4.189,4.189,0,0,0,2.238,1.265,15.591,15.591,0,0,0,1.985.366,22.408,22.408,0,0,1,2.745.436,2.143,2.143,0,0,1,.979.461c.106.148.172.232.069.672a3.974,3.974,0,0,1-2.413,2.477,9.4,9.4,0,0,1-3.638.769,6.737,6.737,0,0,1-1.821-.231,3.7,3.7,0,0,1-1.565-.769,1.171,1.171,0,0,1-.379-1.074,2.129,2.129,0,0,0,.022-.641,1.489,1.489,0,0,0-.1-.324.76.76,0,0,0-.506-.442.794.794,0,0,0-.229-.026.881.881,0,0,0-.579.278,2.868,2.868,0,0,0-.222.243l-.014.013-2.059,2.928.586.4a8.02,8.02,0,0,0,2.5,1.111,14.5,14.5,0,0,0,3.71.434,16.273,16.273,0,0,0,5.868-1.123,7.111,7.111,0,0,0,4.488-4.543,3,3,0,0,0-.337-2.67,3.652,3.652,0,0,0-2.043-1.189,14.978,14.978,0,0,0-2.354-.385,19.208,19.208,0,0,1-2.505-.381,1.92,1.92,0,0,1-1.071-.562c-.149-.19-.24-.414-.089-1.035a3.368,3.368,0,0,1,2.033-2.055m12.036,12.1a1.336,1.336,0,0,0-.331-.154h-.008l-.036-.017c-.283-.151-.349-.215-.368-.273-.041-.06-.1-.337.092-1.043a39.075,39.075,0,0,1,1.386-3.79l2.556-6.25h2.7l1.058-2.109H658.52l1.276-2.768a1.6,1.6,0,0,0,.148-.361.8.8,0,0,0,0-.444.768.768,0,0,0-.535-.523.846.846,0,0,0-.213-.024.826.826,0,0,0-.623.291,1.141,1.141,0,0,0-.194.231c-1.239,1.546-3.515,3.692-5.142,3.77l-.426.033-.8,1.9h2.175l-3.91,9.48a11.536,11.536,0,0,0-.489,1.483,2.544,2.544,0,0,0-.053,1.021,1.444,1.444,0,0,0,.2.534,1,1,0,0,0,.861.485c.316,0,.683-.057,1.374-.057.729,0,1.143.054,1.436.054a.963.963,0,0,0,.937-.685.787.787,0,0,0-.267-.788m36.081-.212-.031-.018-.028-.007c-.047-.017-.1-.033-.126-.042.014-.056.024-.146.053-.265a9.107,9.107,0,0,1,.36-.943l2.631-6.737a12.114,12.114,0,0,0,.407-1.3,1.164,1.164,0,0,0,.042-.148,3.928,3.928,0,0,0-.343-3.211,4,4,0,0,0-2.39-1.614,7.229,7.229,0,0,0-1.8-.212,9.811,9.811,0,0,0-5.98,2.21l.93-2.056-5.023,1.032-.024.005a1.114,1.114,0,0,0-.342.164.989.989,0,0,0-.323.495.9.9,0,0,0,.142.712.949.949,0,0,0,.454.317.645.645,0,0,1,.241.14c.014.026.049-.032,0,.2-.013.043-.116.268-.214.479l-3.649,8.52a3.489,3.489,0,0,1-1.918,2.243l-.021.006-.024.011a1.5,1.5,0,0,0-.371.187.85.85,0,0,0-.359.451.475.475,0,0,0-.067-.223.756.756,0,0,0-.331-.338l-.017-.016a.392.392,0,0,1-.107-.268,3.1,3.1,0,0,1,.138-.848,29.951,29.951,0,0,1,2.2-5.637l3.164-6.29-.619-.309a10.756,10.756,0,0,0-1.939-.708,13.427,13.427,0,0,0-3.34-.461c-5.719.02-12.147,3.661-13.818,9.825a6.192,6.192,0,0,0,.125,4.082,4.206,4.206,0,0,0,2.869,2.391.089.089,0,0,0,.03.007,7.06,7.06,0,0,0,1.736.2,8.539,8.539,0,0,0,6.071-2.729c-.077.335-.143.638-.2.9-.026.166-.053.3-.069.44a1.14,1.14,0,0,0,.043.5l.161.475,3.053,0a.922.922,0,0,0,.874-.584c0,.059.031.115.041.187a.782.782,0,0,0,.5.434l.025.008a1.019,1.019,0,0,0,.257.034c.252,0,1.32-.079,2.307-.094.8,0,1.9.091,2.226.091a1.448,1.448,0,0,0,.4-.059.919.919,0,0,0,.575-.6.814.814,0,0,0-.236-.806,1.234,1.234,0,0,0-.247-.167.9.9,0,0,1-.18-.119l-.024-.016v-.038a1.564,1.564,0,0,1,.089-.639,7.056,7.056,0,0,1,.328-.953l2.393-5.178a11.344,11.344,0,0,1,2.928-3.735,6.676,6.676,0,0,1,3.92-1.767,4.4,4.4,0,0,1,1.051.113,1.512,1.512,0,0,1,1.1.848,3.379,3.379,0,0,1-.034,2.166,17.644,17.644,0,0,1-.66,1.865l-1.783,4.2c-.809,1.922-1.379,2.8-2.046,3.074a3.149,3.149,0,0,0-.445.219,1.013,1.013,0,0,0-.443.569.84.84,0,0,0,.04.538.794.794,0,0,0,.522.435,1.513,1.513,0,0,0,.356.033c.186,0,.291-.025.594-.04s.764-.043,1.481-.043c.792,0,2.162.076,2.371.076a1.133,1.133,0,0,0,.386-.055.817.817,0,0,0,.5-.542.942.942,0,0,0-.106-.714,1.157,1.157,0,0,0-.447-.353m-17.946-9.828h0a33.353,33.353,0,0,1-3.753,6.34c-1.6,2-3.487,3.41-5.608,3.4a2.412,2.412,0,0,1-.635-.076,1.336,1.336,0,0,1-1-1.11,5.239,5.239,0,0,1,.14-2.294,14.65,14.65,0,0,1,3.4-6.213,8.43,8.43,0,0,1,6.145-2.818,5.731,5.731,0,0,1,1.419.184l.013.005a3.341,3.341,0,0,1,.894.356Zm29.983-4.584-4.887,1.207a.931.931,0,0,0-.739.664.718.718,0,0,0,.069.57c.293.386.369.3.407.357l.043.016.035.02c.1.041.156.075.185.085v.08a2.333,2.333,0,0,1-.076.43c-.006.062-.166.434-.244.625l-3.452,7.939a5.367,5.367,0,0,1-1.017,1.772,3.824,3.824,0,0,1-1.176.705,1.257,1.257,0,0,0-.261.179.8.8,0,0,0-.294.443.726.726,0,0,0,.112.624.757.757,0,0,0,.456.327,1.217,1.217,0,0,0,.271.033c.279,0,1.72-.089,2.474-.089.861,0,2.247.085,2.478.085a1.551,1.551,0,0,0,.422-.051.834.834,0,0,0,.522-.549.776.776,0,0,0-.215-.757,1.024,1.024,0,0,0-.231-.184l-.011-.008-.021-.015a1.712,1.712,0,0,1-.353-.255c-.062-.1-.09-.073-.043-.291a5.3,5.3,0,0,1,.282-.786Zm.023-4.306a1.6,1.6,0,0,0-.45-.06,2.757,2.757,0,0,0-1.517.493A2.365,2.365,0,0,0,699.4,274.2a1.807,1.807,0,0,0,.077,1.186,1.4,1.4,0,0,0,.927.775s.01.016.021.016a1.692,1.692,0,0,0,.452.054,2.784,2.784,0,0,0,1.517-.5,2.334,2.334,0,0,0,1.038-1.339,1.7,1.7,0,0,0-.068-1.193,1.449,1.449,0,0,0-.951-.783m12.555,18.711-.028-.018c-.072-.076-.088-.1-.1-.26a2.545,2.545,0,0,1,.124-.852,29.374,29.374,0,0,1,2.206-5.633l3.163-6.291-.636-.308a9.573,9.573,0,0,0-1.934-.705,13.18,13.18,0,0,0-3.332-.462c-5.719.016-12.146,3.649-13.818,9.817a6.252,6.252,0,0,0,.123,4.082,4.184,4.184,0,0,0,2.871,2.39l.029.012a6.972,6.972,0,0,0,1.741.208,8.517,8.517,0,0,0,6.067-2.727c-.083.328-.152.644-.2.9a2.484,2.484,0,0,0-.058.436.944.944,0,0,0,.025.5l.148.473h3.07a.937.937,0,0,0,.908-.658.722.722,0,0,0-.06-.562,1,1,0,0,0-.315-.344m.156-9.878a33.975,33.975,0,0,1-3.759,6.344c-1.609,2-3.479,3.418-5.6,3.4a2.142,2.142,0,0,1-.634-.075,1.325,1.325,0,0,1-1.008-1.109,4.922,4.922,0,0,1,.146-2.3,14.649,14.649,0,0,1,3.394-6.2,8.4,8.4,0,0,1,6.147-2.82,6.191,6.191,0,0,1,1.424.177h.005a3.9,3.9,0,0,1,.9.364Z" transform="translate(-592.765 -264.231)" fill="#1d1d1d"/>
</svg>
