<svg id="Component_78_1" data-name="Component 78 – 1" xmlns="http://www.w3.org/2000/svg" width="106.5" height="30.535" viewBox="0 0 106.5 30.535">
  <g id="Group_868" data-name="Group 868">
    <g id="Group_865" data-name="Group 865">
      <g id="Group_864" data-name="Group 864">
        <g id="Group_863" data-name="Group 863">
          <path id="Path_2732" data-name="Path 2732" d="M154.741,180.5a3.546,3.546,0,0,1,3.83,1.673L165.654,192l7.3-10.085a3.921,3.921,0,0,1,3.444-1.384l-9.557,12.936a1.808,1.808,0,0,1-1.32.8s-.579,0-1.158-.837S154.741,180.5,154.741,180.5Zm23.556.064v12.26s.162,1.32,1.9,1.223V182.013S180.2,180.79,178.3,180.565Zm1.032-4.253a1.33,1.33,0,1,0,1.143,1.316A1.239,1.239,0,0,0,179.328,176.312ZM138.35,186.944c-.045,5.441,4.64,5.3,4.64,5.3h6.476a4.886,4.886,0,0,0,3.884-5.025,4.6,4.6,0,0,0-3.884-4.915H142.92S138.385,182.754,138.35,186.944Zm.034-4.468a6.7,6.7,0,0,1,4.571-1.937l6.475.034s5.96.958,5.858,6.679a6.44,6.44,0,0,1-5.788,6.724h-6.615s-6.615.242-6.441-7.1V175.967s1.731.035,1.938,1.04C138.4,178.835,138.385,182.477,138.385,182.477Zm-21.255,4.468c-.045,5.441,4.639,5.3,4.639,5.3h6.476a4.886,4.886,0,0,0,3.885-5.025,4.606,4.606,0,0,0-3.885-4.915H121.7S117.164,182.754,117.13,186.944Zm.035-4.468a6.7,6.7,0,0,1,4.57-1.937l6.476.034s5.959.958,5.858,6.679a6.44,6.44,0,0,1-5.789,6.724h-6.614s-6.615.242-6.441-7.1V175.967s1.731.035,1.939,1.04C117.179,178.835,117.164,182.477,117.164,182.477Zm65.645,4.429c-.3,7.193,6.434,7.072,6.434,7.072h10.869a1.644,1.644,0,0,0-1.367-1.617h-9.411c-4.845-.713-4.462-4.242-4.462-4.242l11.926-.062a3.6,3.6,0,0,0,3.616-3.914c-.027-3.47-3.612-3.552-3.612-3.552h-7.438A6.379,6.379,0,0,0,182.81,186.905Zm2.065-.726a4.538,4.538,0,0,1,4.068-3.827h7.5s2.056-.018,2.145,1.812c.073,1.534-1.021,1.961-2.145,1.991Zm-84.226,7.73c.61.06,5.015-.031,5.015-.031a6.1,6.1,0,0,0,5.658-2.935c.306,2.14.551,2.324.949,2.659s1.652.245,1.652.245l-1.407-7.37c-1.285-6.058-5.781-5.9-6.791-6.027s-5.016-.031-5.016-.031c-6.942.58-6.791,6.669-6.791,6.669C94.072,193.756,100.037,193.847,100.649,193.909Zm-4.8-6.764a4.819,4.819,0,0,1,4.863-4.9,45.783,45.783,0,0,1,5.016,0,4.855,4.855,0,0,1,4.741,4.863c.03,4.038-2.875,4.955-4.772,5.048s-4.312.061-5.015,0A4.917,4.917,0,0,1,95.846,187.144Z" transform="translate(-93.918 -175.967)" fill="#1f1a60"/>
        </g>
      </g>
    </g>
    <g id="Group_867" data-name="Group 867" transform="translate(2.086 26.35)">
      <g id="Group_866" data-name="Group 866">
        <path id="Path_2733" data-name="Path 2733" d="M96.276,209.88v-4.063h.337v3.833H97.93v.23Z" transform="translate(-96.276 -205.759)" fill="#1f1a60"/>
        <path id="Path_2734" data-name="Path 2734" d="M101.28,209.88v-4.063h.337v4.063Z" transform="translate(-96.853 -205.759)" fill="#1f1a60"/>
        <path id="Path_2735" data-name="Path 2735" d="M108.519,209.88l-.372-3.4a4.491,4.491,0,0,1-.029-.466h-.012s-.042.218-.112.466l-.945,3.4h-.3l-.939-3.4c-.065-.235-.107-.466-.107-.466h-.012s-.012.225-.035.461l-.378,3.4h-.3l.508-4.063h.4l.909,3.272a4.3,4.3,0,0,1,.105.461h.012a3.434,3.434,0,0,1,.1-.461l.92-3.272h.4l.515,4.063Z" transform="translate(-97.279 -205.759)" fill="#1f1a60"/>
        <path id="Path_2736" data-name="Path 2736" d="M112.657,209.88v-4.063h.336v4.063Z" transform="translate(-98.165 -205.759)" fill="#1f1a60"/>
        <path id="Path_2737" data-name="Path 2737" d="M117.345,206.047v3.833h-.336v-3.833h-.855v-.23H118.2v.23Z" transform="translate(-98.568 -205.759)" fill="#1f1a60"/>
        <path id="Path_2738" data-name="Path 2738" d="M121.582,209.88v-4.063h.337v3.833h1.317v.23Z" transform="translate(-99.194 -205.759)" fill="#1f1a60"/>
        <path id="Path_2739" data-name="Path 2739" d="M126.561,209.88v-4.063h1.788v.23H126.9v1.606h1.316v.231H126.9v1.766h1.452v.23Z" transform="translate(-99.768 -205.759)" fill="#1f1a60"/>
        <path id="Path_2740" data-name="Path 2740" d="M132.444,209.932a1.52,1.52,0,0,1-.886-.219l.106-.236a1.274,1.274,0,0,0,.733.2.832.832,0,0,0,.873-.9c0-.412-.224-.654-.785-.868-.7-.26-.886-.679-.886-1.074a1.047,1.047,0,0,1,1.075-1.08,1.35,1.35,0,0,1,.774.212l-.1.219a1.212,1.212,0,0,0-.661-.2.742.742,0,0,0-.761.839c0,.479.359.679.738.82.814.3.938.786.938,1.116A1.121,1.121,0,0,1,132.444,209.932Z" transform="translate(-100.344 -205.751)" fill="#1f1a60"/>
        <path id="Path_2741" data-name="Path 2741" d="M137.755,209.932a1.514,1.514,0,0,1-.886-.219l.106-.236a1.272,1.272,0,0,0,.733.2.832.832,0,0,0,.873-.9c0-.412-.224-.654-.786-.868-.7-.26-.886-.679-.886-1.074a1.047,1.047,0,0,1,1.075-1.08,1.344,1.344,0,0,1,.773.212l-.095.219a1.211,1.211,0,0,0-.66-.2.741.741,0,0,0-.762.839c0,.479.36.679.737.82.815.3.94.786.94,1.116A1.122,1.122,0,0,1,137.755,209.932Z" transform="translate(-100.957 -205.751)" fill="#1f1a60"/>
        <path id="Path_2742" data-name="Path 2742" d="M147.922,209.932c-1.01,0-1.406-.922-1.406-2.092,0-1.155.4-2.089,1.406-2.089s1.411.933,1.411,2.089C149.333,209.01,148.937,209.932,147.922,209.932Zm0-3.95c-.856,0-1.069.962-1.069,1.853s.183,1.843,1.069,1.843,1.076-.963,1.076-1.843S148.783,205.982,147.922,205.982Z" transform="translate(-102.069 -205.751)" fill="#1f1a60"/>
        <path id="Path_2743" data-name="Path 2743" d="M153.519,208.125l-.206-.018v1.765h-.332v-3.9a1.82,1.82,0,0,1,.9-.218,1.134,1.134,0,0,1,1.3,1.193C155.184,207.645,154.7,208.226,153.519,208.125Zm.331-2.161a1.407,1.407,0,0,0-.537.095v1.83l.195.018c.986.089,1.347-.348,1.347-.974S154.546,205.963,153.85,205.963Z" transform="translate(-102.814 -205.751)" fill="#1f1a60"/>
        <path id="Path_2744" data-name="Path 2744" d="M159.2,208.125l-.205-.018v1.765h-.332v-3.9a1.817,1.817,0,0,1,.9-.218,1.134,1.134,0,0,1,1.3,1.193C160.862,207.645,160.378,208.226,159.2,208.125Zm.332-2.161a1.407,1.407,0,0,0-.537.095v1.83l.195.018c.986.089,1.346-.348,1.346-.974S160.224,205.963,159.528,205.963Z" transform="translate(-103.469 -205.751)" fill="#1f1a60"/>
        <path id="Path_2745" data-name="Path 2745" d="M165.583,209.932c-1.01,0-1.406-.922-1.406-2.092,0-1.155.4-2.089,1.406-2.089s1.412.933,1.412,2.089C166.995,209.01,166.6,209.932,165.583,209.932Zm0-3.95c-.856,0-1.069.962-1.069,1.853s.182,1.843,1.069,1.843,1.075-.963,1.075-1.843S166.444,205.982,165.583,205.982Z" transform="translate(-104.105 -205.751)" fill="#1f1a60"/>
        <path id="Path_2746" data-name="Path 2746" d="M172.529,209.872,171,207.923h-.017v1.949h-.325v-3.909a1.786,1.786,0,0,1,.9-.212c.832,0,1.28.431,1.28,1.175,0,.767-.525,1.181-1.38,1.15v.013l1.458,1.783Zm-.986-3.915a1.192,1.192,0,0,0-.555.106v1.8a1.775,1.775,0,0,0,.418.047c.751,0,1.11-.348,1.11-.98A.856.856,0,0,0,171.542,205.957Z" transform="translate(-104.853 -205.751)" fill="#1f1a60"/>
        <path id="Path_2747" data-name="Path 2747" d="M177.2,206.047v3.833h-.336v-3.833h-.857v-.23h2.05v.23Z" transform="translate(-105.469 -205.759)" fill="#1f1a60"/>
        <path id="Path_2748" data-name="Path 2748" d="M182.6,209.944a1.146,1.146,0,0,1-1.193-1.2v-2.923h.335v2.923a.876.876,0,1,0,1.748,0v-2.923h.3v2.923A1.146,1.146,0,0,1,182.6,209.944Z" transform="translate(-106.093 -205.759)" fill="#1f1a60"/>
        <path id="Path_2749" data-name="Path 2749" d="M190.029,209.88l-1.919-3.3c-.159-.278-.282-.533-.282-.533h-.012s.018.267.018.538v3.295h-.284v-4.063h.432l1.872,3.237c.154.264.242.453.242.453h.018a4.157,4.157,0,0,1-.025-.472v-3.219h.286v4.063Z" transform="translate(-106.8 -205.759)" fill="#1f1a60"/>
        <path id="Path_2750" data-name="Path 2750" d="M194.207,209.88v-4.063h.337v4.063Z" transform="translate(-107.568 -205.759)" fill="#1f1a60"/>
        <path id="Path_2751" data-name="Path 2751" d="M198.9,206.047v3.833h-.337v-3.833H197.7v-.23h2.049v.23Z" transform="translate(-107.971 -205.759)" fill="#1f1a60"/>
        <path id="Path_2752" data-name="Path 2752" d="M203.135,209.88v-4.063h.337v4.063Z" transform="translate(-108.597 -205.759)" fill="#1f1a60"/>
        <path id="Path_2753" data-name="Path 2753" d="M206.986,209.88v-4.063h1.789v.23h-1.453v1.606h1.316v.231h-1.316v1.766h1.453v.23Z" transform="translate(-109.041 -205.759)" fill="#1f1a60"/>
        <path id="Path_2754" data-name="Path 2754" d="M212.868,209.932a1.515,1.515,0,0,1-.885-.219l.106-.236a1.271,1.271,0,0,0,.732.2.832.832,0,0,0,.874-.9c0-.412-.224-.654-.786-.868-.7-.26-.885-.679-.885-1.074a1.046,1.046,0,0,1,1.075-1.08,1.341,1.341,0,0,1,.772.212l-.094.219a1.221,1.221,0,0,0-.662-.2.741.741,0,0,0-.762.839c0,.479.359.679.738.82.816.3.939.786.939,1.116A1.121,1.121,0,0,1,212.868,209.932Z" transform="translate(-109.617 -205.751)" fill="#1f1a60"/>
      </g>
    </g>
  </g>
</svg>
