<svg id="Component_71_1" data-name="Component 71 – 1" xmlns="http://www.w3.org/2000/svg" xmlns:xlink="http://www.w3.org/1999/xlink" width="116.25" height="49.759" viewBox="0 0 116.25 49.759">
  <defs>
    <linearGradient id="linear-gradient" x1="-0.038" y1="-0.124" x2="0.943" y2="1.015" gradientUnits="objectBoundingBox">
      <stop offset="0.133" stop-color="#ff4438"/>
      <stop offset="0.726" stop-color="#9d1d96"/>
    </linearGradient>
  </defs>
  <path id="Path_2259" data-name="Path 2259" d="M416.922,182.238V160.083c0-12.361-13.969-12.5-13.969-12.5H300.672V184.23s.333,13.107,13.98,13.107h87.558C406.494,197.125,416.922,195.27,416.922,182.238Z" transform="translate(-300.672 -147.578)" fill="url(#linear-gradient)"/>
  <path id="Path_2260" data-name="Path 2260" d="M416.922,182.238V160.083c0-12.361-13.969-12.5-13.969-12.5H300.672V184.23s.333,13.107,13.98,13.107h87.558C406.494,197.125,416.922,195.27,416.922,182.238Z" transform="translate(-300.672 -147.578)" fill="url(#linear-gradient)" style="mix-blend-mode: overlay;isolation: isolate"/>
  <g id="Group_683" data-name="Group 683" transform="translate(10.287 9.211)">
    <path id="Path_2261" data-name="Path 2261" d="M382.3,165.177a8.841,8.841,0,0,0-3.406.669v3.378a8.176,8.176,0,0,1,2.365-.717,5.593,5.593,0,0,1,1.162-.126,5.067,5.067,0,0,1,5.055,4.474,5.645,5.645,0,0,1-2.819,6.091,5.443,5.443,0,0,1-2.378.524,4.45,4.45,0,0,1-3.3-1.37,5.5,5.5,0,0,1-1.609-3.995c-.02-.612-.013-1.309.019-1.869l.011-15.447-3.512,1.82v.072c.019,4.98.019,12.434.017,17.92l0,5.544h3.6v-1.266a7.845,7.845,0,0,0,4.954,1.686c.133,0,.268,0,.4-.008a8.067,8.067,0,0,0,6.077-2.885,9.391,9.391,0,0,0-.147-11.74A8.957,8.957,0,0,0,382.3,165.177Z" transform="translate(-310.961 -156.789)" fill="#fff"/>
    <path id="Path_2262" data-name="Path 2262" d="M370.82,177.308a12.4,12.4,0,0,1-7.317,1.71v0a7.12,7.12,0,0,1-2.109-.616,4.545,4.545,0,0,1-2.61-3.624h13.123v-.574c0-.231.009-.454.016-.671a7.3,7.3,0,0,0-.038-1.442c-.017-.113-.036-.224-.059-.335-.025-.136-.053-.27-.084-.4a8.848,8.848,0,0,0-.265-.9,8.419,8.419,0,0,0-1.415-2.538,7.95,7.95,0,0,0-6.238-2.941,9.072,9.072,0,0,0-2.795.451,7.946,7.946,0,0,0-5.654,7.167,8.168,8.168,0,0,0,5.137,8.864,9.65,9.65,0,0,0,3.381.691,13.01,13.01,0,0,0,8.746-2.759,7.879,7.879,0,0,1-1.357-2.43C371.125,177.078,370.966,177.2,370.82,177.308Zm-7.061-9.189h.115a4.4,4.4,0,0,1,4.458,3.169s.191.471-.1.471h-9.357A4.784,4.784,0,0,1,363.759,168.119Z" transform="translate(-310.96 -156.789)" fill="#fff"/>
    <path id="Path_2263" data-name="Path 2263" d="M352.863,177.308a12.4,12.4,0,0,1-7.317,1.71v0a7.124,7.124,0,0,1-2.108-.616,4.551,4.551,0,0,1-2.612-3.624h13.124v-.574c0-.231.009-.454.018-.671a7.379,7.379,0,0,0-.038-1.442c-.017-.113-.038-.224-.059-.335-.025-.136-.053-.27-.086-.4a9.1,9.1,0,0,0-.264-.9,8.3,8.3,0,0,0-1.416-2.538,7.945,7.945,0,0,0-6.24-2.941,9.085,9.085,0,0,0-2.794.451,7.95,7.95,0,0,0-5.654,7.167,8.173,8.173,0,0,0,5.138,8.864,9.675,9.675,0,0,0,3.384.691,13,13,0,0,0,8.742-2.759,7.869,7.869,0,0,1-1.353-2.43C353.169,177.078,353.01,177.2,352.863,177.308Zm-7.061-9.189h.114a4.406,4.406,0,0,1,4.46,3.169s.192.471-.1.471h-9.357A4.779,4.779,0,0,1,345.8,168.119Z" transform="translate(-310.96 -156.789)" fill="#fff"/>
    <path id="Path_2264" data-name="Path 2264" d="M337.292,165.92a5.98,5.98,0,0,0-2.559-.669,7.025,7.025,0,0,0-1.409.152,4.8,4.8,0,0,0-2.045.973v-1.161H327.9v16.964h3.22l.156-8.827c0-.465.007-.932.014-1.393.033-2.209,1.238-3.579,3.145-3.579a4.485,4.485,0,0,1,.471.026,3.91,3.91,0,0,1,.646.156c.13.039.418.176.545.208l.65.3a7.871,7.871,0,0,1,1.53-2.62Z" transform="translate(-310.96 -156.789)" fill="#fff"/>
    <path id="Path_2265" data-name="Path 2265" d="M325.33,169.98a5.729,5.729,0,0,0-4.509-4.593,11.974,11.974,0,0,0-2.933-.348c-.2,0-.4,0-.606.015a9.219,9.219,0,0,0-4.882,1.8,4.085,4.085,0,0,1,1.8,2.434,6.867,6.867,0,0,1,3.849-1.151,5.265,5.265,0,0,1,2.408.563,3.352,3.352,0,0,1,1.7,3.183,12.147,12.147,0,0,0-7.2-.2c-2.562.714-3.868,2.278-3.983,4.693a5.1,5.1,0,0,0,3.536,5.452,8.719,8.719,0,0,0,8.268-1.274c.166-.143.261-.233.261-.233a2.87,2.87,0,0,0,2.3,1.836V169.98Zm-5.119,8.576a4.9,4.9,0,0,1-5.094-.09,2.061,2.061,0,0,1-.982-1.661,2.3,2.3,0,0,1,.926-1.9c.929-.711,2.065-.821,3.823-.921a7.471,7.471,0,0,1,3.114.669,1.119,1.119,0,0,1,.16.1.355.355,0,0,1,.007.071A3.567,3.567,0,0,1,320.211,178.556Z" transform="translate(-310.959 -156.789)" fill="#fff"/>
    <path id="Path_2266" data-name="Path 2266" d="M406.467,169.98a5.732,5.732,0,0,0-4.509-4.593,12.01,12.01,0,0,0-2.936-.348c-.2,0-.4,0-.6.015a9.223,9.223,0,0,0-4.883,1.8,4.076,4.076,0,0,1,1.8,2.434,6.866,6.866,0,0,1,3.848-1.151,5.277,5.277,0,0,1,2.41.563,3.358,3.358,0,0,1,1.7,3.183,12.15,12.15,0,0,0-7.206-.2c-2.562.714-3.867,2.278-3.983,4.693a5.1,5.1,0,0,0,3.537,5.452,9.2,9.2,0,0,0,2.969.521,9.3,9.3,0,0,0,5.3-1.795c.164-.143.259-.233.259-.233a2.871,2.871,0,0,0,2.3,1.836V169.98Zm-5.122,8.576a4.9,4.9,0,0,1-5.093-.09,2.059,2.059,0,0,1-.98-1.661,2.29,2.29,0,0,1,.924-1.9c.928-.711,2.065-.821,3.823-.921a7.455,7.455,0,0,1,3.114.669,1.059,1.059,0,0,1,.16.1.278.278,0,0,1,.008.071A3.565,3.565,0,0,1,401.345,178.556Z" transform="translate(-310.961 -156.789)" fill="#fff"/>
  </g>
</svg>
