<svg id="Component_74_1" data-name="Component 74 – 1" xmlns="http://www.w3.org/2000/svg" width="148.292" height="76.36" viewBox="0 0 148.292 76.36">
  <g id="Group_143" data-name="Group 143" transform="translate(-774.143 -241.205)">
    <g id="Group_86" data-name="Group 86">
      <path id="Path_127" data-name="Path 127" d="M784.091,283.132a.844.844,0,0,0-.814-.578h-1.268a.843.843,0,0,0-.814.578l-7,15.779a.533.533,0,0,0,.527.74h1.554a.971.971,0,0,0,.861-.644l1.483-3.562h8.056l1.482,3.562a.924.924,0,0,0,.862.644h1.552a.531.531,0,0,0,.551-.74Zm-4.474,9.969c.48-1.123,1.078-2.655,1.82-4.545l1.194-3.035c.12.265.527,1.315,1.244,3.156.741,1.839,1.34,3.324,1.817,4.424Z"/>
      <path id="Path_128" data-name="Path 128" d="M804.782,297.142h-8.7V283.228a.678.678,0,0,0-.694-.674h-1.339a.664.664,0,0,0-.694.674v15.755a.66.66,0,0,0,.694.668h10.735a.674.674,0,0,0,.693-.668v-1.15A.693.693,0,0,0,804.782,297.142Z"/>
      <path id="Path_129" data-name="Path 129" d="M824.795,282.554H823.5a1.345,1.345,0,0,0-1.075.694l-5.474,9.493-5.5-9.493a1.159,1.159,0,0,0-1.054-.694h-1.313a.692.692,0,0,0-.691.694l-.554,15.708a.675.675,0,0,0,.67.7h1.363a.667.667,0,0,0,.67-.668l.311-8.3c.022-.934-.024-2.009-.1-3.277h.193l4.829,8.49a1.088,1.088,0,0,0,.981.594h.358a1.087,1.087,0,0,0,.98-.594l4.854-8.49h.165c-.069,1.268-.117,2.343-.093,3.277l.287,8.3a.727.727,0,0,0,.715.668h1.341a.675.675,0,0,0,.67-.7l-.551-15.708A.7.7,0,0,0,824.795,282.554Z"/>
      <path id="Path_130" data-name="Path 130" d="M838.176,283.132a.84.84,0,0,0-.814-.578H836.1a.838.838,0,0,0-.814.578l-7.008,15.779a.534.534,0,0,0,.528.74h1.553a.976.976,0,0,0,.863-.644l1.48-3.562h8.058l1.482,3.562a.926.926,0,0,0,.86.644h1.555a.53.53,0,0,0,.55-.74ZM833.7,293.1c.479-1.123,1.077-2.655,1.817-4.545l1.2-3.035c.12.265.529,1.315,1.245,3.156.74,1.839,1.339,3.324,1.818,4.424Z"/>
      <path id="Path_131" data-name="Path 131" d="M865.6,283.106a.5.5,0,0,0-.574-.552h-1.411a.7.7,0,0,0-.763.648c-.025.168-.217,1.221-.526,3.184l-.719,4.371-.118.717a38.493,38.493,0,0,0-.359,3.849h-.192l-4.28-9.8a.9.9,0,0,0-.884-.6h-.957a.9.9,0,0,0-.884.6l-4.279,9.8h-.215a33.307,33.307,0,0,0-.336-3.849c-.789-4.875-1.244-7.623-1.363-8.272a.712.712,0,0,0-.789-.648h-1.361c-.407,0-.623.2-.623.552,0,.071,0,.121.023.142l2.583,15.759a.794.794,0,0,0,.79.644h1.409a.914.914,0,0,0,.886-.619l4.637-10.376,4.638,10.376a.913.913,0,0,0,.884.619h1.389a.732.732,0,0,0,.813-.644l2.581-15.759Z"/>
      <path id="Path_132" data-name="Path 132" d="M875.241,283.132a.837.837,0,0,0-.811-.578h-1.269a.834.834,0,0,0-.81.578l-7.007,15.779a.533.533,0,0,0,.527.74h1.555a.976.976,0,0,0,.858-.644l1.483-3.562h8.057l1.481,3.562a.926.926,0,0,0,.863.644h1.554a.531.531,0,0,0,.549-.74Zm-4.47,9.969c.477-1.123,1.077-2.655,1.817-4.545l1.2-3.035c.12.265.526,1.315,1.245,3.156.74,1.839,1.337,3.324,1.815,4.424Z"/>
      <path id="Path_133" data-name="Path 133" d="M894.127,293.314a5.394,5.394,0,0,0,3.826-5.185,4.994,4.994,0,0,0-1.793-4.042,6.908,6.908,0,0,0-4.712-1.533h-6.023a.658.658,0,0,0-.7.648v15.8a.655.655,0,0,0,.7.644h1.339a.655.655,0,0,0,.693-.644v-5.33h3.588l3.824,4.637.621.74a3.075,3.075,0,0,0,.574.381,2.156,2.156,0,0,0,.981.216h1.266c.361,0,.528-.168.528-.479a.592.592,0,0,0-.121-.357Zm-6.67-2.172v-6.075h4.4c2.03,0,3.323,1.17,3.323,3.062,0,1.84-1.245,3.013-3.323,3.013Z"/>
      <path id="Path_134" data-name="Path 134" d="M903.127,282.554h-1.339a.663.663,0,0,0-.694.673v15.756a.66.66,0,0,0,.694.668h1.339a.66.66,0,0,0,.693-.668V283.227A.663.663,0,0,0,903.127,282.554Z"/>
      <path id="Path_135" data-name="Path 135" d="M919.9,284.781a9.879,9.879,0,0,0-6.742-2.227h-5.521a.657.657,0,0,0-.67.673v15.756a.668.668,0,0,0,.67.668h5.521a9.872,9.872,0,0,0,6.742-2.224,8,8,0,0,0,2.536-6.334A7.917,7.917,0,0,0,919.9,284.781Zm-1.91,10.71a6,6,0,0,1-4.376,1.651h-3.945V285.069h3.945a6.071,6.071,0,0,1,4.376,1.623,6.56,6.56,0,0,1,0,8.8Z"/>
    </g>
    <g id="Group_87" data-name="Group 87">
      <path id="Path_136" data-name="Path 136" d="M812.011,314.946a2.13,2.13,0,0,0,1.512-2.049,1.969,1.969,0,0,0-.709-1.6,2.74,2.74,0,0,0-1.862-.606h-2.38a.259.259,0,0,0-.273.258v6.241a.258.258,0,0,0,.273.257h.53a.258.258,0,0,0,.272-.257v-2.106h1.418l1.513,1.836.245.291a1.3,1.3,0,0,0,.225.15.834.834,0,0,0,.388.086h.5c.139,0,.205-.067.205-.191a.246.246,0,0,0-.043-.141Zm-2.637-.858v-2.4h1.74a1.2,1.2,0,1,1,0,2.4Z" fill="#6b6b6b"/>
      <path id="Path_137" data-name="Path 137" d="M820.929,310.694h-4.365a.261.261,0,0,0-.273.263v6.228a.262.262,0,0,0,.273.265h4.365a.259.259,0,0,0,.265-.265v-.456a.264.264,0,0,0-.265-.272h-3.562v-1.964H820.5a.271.271,0,0,0,.264-.275v-.453a.268.268,0,0,0-.264-.264h-3.129v-1.812h3.562a.268.268,0,0,0,.265-.277v-.455A.258.258,0,0,0,820.929,310.694Z" fill="#6b6b6b"/>
      <path id="Path_138" data-name="Path 138" d="M827.586,310.923a.332.332,0,0,0-.322-.229h-.5a.333.333,0,0,0-.322.229l-2.766,6.234a.21.21,0,0,0,.207.293h.615a.383.383,0,0,0,.339-.257l.587-1.407h3.183l.585,1.407a.367.367,0,0,0,.342.257h.611a.209.209,0,0,0,.217-.293Zm-1.766,3.936c.19-.442.425-1.048.716-1.792l.475-1.2c.047.106.208.52.489,1.246s.529,1.316.718,1.747Z" fill="#6b6b6b"/>
      <path id="Path_139" data-name="Path 139" d="M837.314,316.457h-3.439v-5.5a.266.266,0,0,0-.273-.266h-.53a.261.261,0,0,0-.274.266v6.225a.262.262,0,0,0,.274.265h4.242a.268.268,0,0,0,.275-.265v-.456A.275.275,0,0,0,837.314,316.457Z" fill="#6b6b6b"/>
      <path id="Path_140" data-name="Path 140" d="M849.2,310.694h-4.365a.26.26,0,0,0-.273.263v6.228a.261.261,0,0,0,.273.265H849.2a.259.259,0,0,0,.265-.265v-.456a.264.264,0,0,0-.265-.272h-3.562v-1.964h3.127a.271.271,0,0,0,.264-.275v-.453a.268.268,0,0,0-.264-.264h-3.127v-1.812H849.2a.268.268,0,0,0,.265-.277v-.455A.258.258,0,0,0,849.2,310.694Z" fill="#6b6b6b"/>
      <path id="Path_141" data-name="Path 141" d="M854.453,313.434q-1.418-.243-1.418-.935c0-.564.508-.928,1.311-.928a2.557,2.557,0,0,1,1.72.635.251.251,0,0,0,.369-.029l.314-.36a.252.252,0,0,0-.03-.377,3.531,3.531,0,0,0-2.363-.861,2.727,2.727,0,0,0-1.711.549,1.679,1.679,0,0,0-.708,1.381c0,1.009.708,1.672,2.062,1.908s1.88.51,1.88,1.113c0,.644-.6,1.039-1.511,1.039a2.67,2.67,0,0,1-1.769-.661.265.265,0,0,0-.379.031l-.308.367a.286.286,0,0,0,.025.376,3.434,3.434,0,0,0,2.409.883,2.919,2.919,0,0,0,1.883-.578,1.829,1.829,0,0,0,.736-1.5C856.965,314.4,856.126,313.727,854.453,313.434Z" fill="#6b6b6b"/>
      <path id="Path_142" data-name="Path 142" d="M864.81,310.759h-5.123a.259.259,0,0,0-.263.272v.452a.259.259,0,0,0,.263.264h2.032v5.471a.261.261,0,0,0,.261.263h.538a.266.266,0,0,0,.272-.263v-5.471h2.02a.268.268,0,0,0,.267-.264v-.452A.266.266,0,0,0,864.81,310.759Z" fill="#6b6b6b"/>
      <path id="Path_143" data-name="Path 143" d="M870.92,310.923a.335.335,0,0,0-.321-.229h-.5a.334.334,0,0,0-.321.229l-2.768,6.234a.209.209,0,0,0,.206.293h.615a.382.382,0,0,0,.341-.257l.585-1.407h3.182l.586,1.407a.37.37,0,0,0,.341.257h.615a.209.209,0,0,0,.217-.293Zm-1.766,3.936c.188-.442.424-1.048.716-1.792l.472-1.2c.051.106.209.52.492,1.246s.528,1.316.717,1.747Z" fill="#6b6b6b"/>
      <path id="Path_144" data-name="Path 144" d="M880.586,310.694h-5.151a.262.262,0,0,0-.264.273v.456a.262.262,0,0,0,.264.266h2.042v5.5a.265.265,0,0,0,.265.265h.536a.269.269,0,0,0,.277-.265v-5.5h2.031a.268.268,0,0,0,.264-.266v-.456A.265.265,0,0,0,880.586,310.694Z" fill="#6b6b6b"/>
      <path id="Path_145" data-name="Path 145" d="M888.015,311.689a.268.268,0,0,0,.265-.277v-.455a.259.259,0,0,0-.265-.263h-4.366a.262.262,0,0,0-.274.263v6.228a.263.263,0,0,0,.274.265h4.366a.26.26,0,0,0,.265-.265v-.456a.265.265,0,0,0-.265-.272h-3.562v-1.964h3.127a.272.272,0,0,0,.265-.275v-.453a.269.269,0,0,0-.265-.264h-3.127v-1.812Z" fill="#6b6b6b"/>
    </g>
    <g id="Group_94" data-name="Group 94">
      <g id="Group_89" data-name="Group 89" opacity="0.55">
        <g id="Group_88" data-name="Group 88">
          <path id="Path_146" data-name="Path 146" d="M832.75,241.205h-5.807v21.562h0c0,4.914,2.233,8.358,6.765,8.358h6.181V247.6h0c0-3.535-1.778-6.4-7.139-6.4" fill="#a4a4a4"/>
        </g>
      </g>
      <g id="Group_91" data-name="Group 91" opacity="0.55">
        <g id="Group_90" data-name="Group 90">
          <path id="Path_147" data-name="Path 147" d="M847.624,241.205h-5.806v21.562h0c0,4.914,2.233,8.358,6.76,8.358h6.185V247.6h0c0-3.535-1.781-6.4-7.139-6.4" fill="#a4a4a4"/>
        </g>
      </g>
      <g id="Group_93" data-name="Group 93" opacity="0.55">
        <g id="Group_92" data-name="Group 92">
          <path id="Path_148" data-name="Path 148" d="M862.5,241.205H856.69v21.562h0c0,4.914,2.231,8.358,6.763,8.358h6.182V247.6h0c0-3.535-1.778-6.4-7.137-6.4" fill="#a4a4a4"/>
        </g>
      </g>
    </g>
  </g>
</svg>
