<svg id="Component_76_1" data-name="Component 76 – 1" xmlns="http://www.w3.org/2000/svg" width="82.291" height="95.359" viewBox="0 0 82.291 95.359">
  <g id="Group_77" data-name="Group 77" transform="translate(-433.472 -233.32)">
    <g id="Group_68" data-name="Group 68">
      <g id="Group_58" data-name="Group 58">
        <g id="Group_56" data-name="Group 56">
          <g id="Group_52" data-name="Group 52">
            <path id="Path_85" data-name="Path 85" d="M490.674,304.444a.433.433,0,0,1-.244-.077c-.092-.064-.529-.3-.749-.42a.413.413,0,0,1-.26-.49,5,5,0,0,1,.285-.6.343.343,0,0,1,.308-.194.473.473,0,0,1,.2.046c.307.156.861.487.9.516a.279.279,0,0,1,.151.339,2.089,2.089,0,0,1-.365.793.29.29,0,0,1-.223.087Z" fill="#595959"/>
          </g>
          <g id="Group_53" data-name="Group 53">
            <path id="Path_86" data-name="Path 86" d="M504.94,305.746l-.012,0a.186.186,0,0,1-.1-.058.233.233,0,0,1,0-.342l.261-.325a.362.362,0,0,1,.19-.156l.458-.117c.042-.012.387-.1.879-.226,1.2-.312,3.444-.891,3.526-.917a1.393,1.393,0,0,1,.359-.094.231.231,0,0,1,.1.038.187.187,0,0,1,.007.248c-.009.015-.268.473-.45.523l-2.207.6a23.14,23.14,0,0,0-2.871.78.675.675,0,0,1-.121.048.065.065,0,0,1-.019,0Z" fill="#595959"/>
          </g>
          <g id="Group_54" data-name="Group 54">
            <path id="Path_87" data-name="Path 87" d="M482,313.306h0a13.864,13.864,0,0,1-2.689-.2,3.169,3.169,0,0,1-2.458-1.6,2.623,2.623,0,0,1-.147-1.581c.008-.055.018-.1.022-.15a10.678,10.678,0,0,1,.5-1.5c.065-.151.154-.308.307-.334a.2.2,0,0,1,.229.222.934.934,0,0,1-.07.291s-.159.41-.251.664l-.075.205a1.585,1.585,0,0,0-.08.961,1.492,1.492,0,0,0,.489.756,3.871,3.871,0,0,0,.461.285,4.378,4.378,0,0,0,.74.33,7.98,7.98,0,0,0,1.121.3,11.773,11.773,0,0,0,2,.151,31.687,31.687,0,0,0,4.8-.472c.253-.04.471-.073.648-.1,3.4-.565,4.674-1.433,4.766-1.57a.794.794,0,0,0-.127-.4l-.045-.09a.438.438,0,0,0-.426-.264,1.071,1.071,0,0,0-.193.022c-.135.03-.822.147-.959.16-.061.006-.139.012-.225.012a1.825,1.825,0,0,1-.636-.1.726.726,0,0,1-.48-.719,2.824,2.824,0,0,1,.9-1.97,1,1,0,0,1,.693-.346,1.59,1.59,0,0,1,.716.333,4.023,4.023,0,0,1,1.3,1.826,3.438,3.438,0,0,1-.078,1.8c-.19.763-1.3,1.276-2.119,1.6a30.427,30.427,0,0,1-5.35,1.283,25.986,25.986,0,0,1-3.281.2Zm8.479-5.872a.756.756,0,0,0-.471.239.307.307,0,0,0-.091.242.452.452,0,0,0,.16.262.935.935,0,0,0,.519.131,1.563,1.563,0,0,0,.656-.14c.045-.081-.02-.16-.076-.23a2.494,2.494,0,0,0-.6-.482.2.2,0,0,0-.1-.022Z" fill="#595959"/>
          </g>
          <g id="Group_55" data-name="Group 55">
            <path id="Path_88" data-name="Path 88" d="M493.256,315.164a1.061,1.061,0,0,1-.651-.208,1.937,1.937,0,0,1-.709-1.751,4.024,4.024,0,0,1,.748-1.662c.276-.359.813-1,.813-1s.152-.194.314-.115a.216.216,0,0,1,.071.092c.019.1-.086.219-.117.253a15.254,15.254,0,0,0-.985,1.372c-.156.3-.611,1.322.055,1.769a.939.939,0,0,0,.535.149,2.555,2.555,0,0,0,1.181-.393l3.324-2.275a7.729,7.729,0,0,1,3.568-1.485,2.562,2.562,0,0,1,2.086.858,11.854,11.854,0,0,1,1.923-2.208,3.979,3.979,0,0,1,2.53-1.156,3.184,3.184,0,0,1,.763.1c1.612.4,1.691,1.435,1.693,1.477a2.435,2.435,0,0,1-.158.958,3.794,3.794,0,0,1-.532,1.006c.094-.021.2-.048.28-.07l.064-.015a5.283,5.283,0,0,0,2.458-1.269,7.551,7.551,0,0,1,1.4-1.112,1.349,1.349,0,0,1,.689-.236.7.7,0,0,1,.505.206,2.373,2.373,0,0,1,.442.686,2.619,2.619,0,0,1,.2,1.192,1.7,1.7,0,0,1-.155.812c-.108.217-.258.525-.577.525a9.262,9.262,0,0,1-1.114-.2l-.72-.208c-.022-.007-.527-.161-.545-.593a.246.246,0,0,0-.049-.172,1.02,1.02,0,0,0-.291.244,7.782,7.782,0,0,1-3.628,1.664,20.8,20.8,0,0,1-3.113.3,5.105,5.105,0,0,1-2.271-.435l-.531.961c-.05.11-.1.222-.2.259a.241.241,0,0,1-.1.02.346.346,0,0,1-.084-.022c-.143-.078-.079-.257-.047-.343s.043-.12.063-.168l.1-.227c.05-.119.1-.238.152-.355l.12-.276a.181.181,0,0,0,.012-.116.58.58,0,0,0-.133-.176l-.125-.109a2,2,0,0,0-1.327-.511,2.655,2.655,0,0,0-.7.1,9.377,9.377,0,0,0-3.061,1.5l-.294.212c-.8.577-1.793,1.295-2.268,1.545l-.184.1a3.2,3.2,0,0,1-1.424.5Zm10.795-4.005c.571.315,1.171.2,2.663-.077l.54-.1c1.8-.332,2.041-.677,2.157-.841s.118-.272-.029-.59a2.133,2.133,0,0,0-2.1-.907c-1.308.048-2.669,1.638-2.828,1.876a4.314,4.314,0,0,0-.4.641Zm10.065-1.8c-.173,0-.411.209-.62.413-.1.1-.125.16-.117.189s.043.039.055.043c.075.012.166.023.253.033a2.91,2.91,0,0,1,.455.076,2.723,2.723,0,0,1,.287.112.906.906,0,0,0,.3.094l.076-.03c.025-.045.006-.154-.061-.324a.818.818,0,0,0-.592-.6l-.035,0Z" fill="#595959"/>
          </g>
        </g>
        <g id="Group_57" data-name="Group 57">
          <path id="Path_89" data-name="Path 89" d="M482.993,304.5c-.175,0-.209-.107-.216-.154-.028-.185.24-.3.295-.316a5,5,0,0,0,1.08-.577c.111-.111.163-.214.148-.285a.167.167,0,0,0-.115-.109,1.321,1.321,0,0,0-.63-.089.954.954,0,0,0-.532.223.473.473,0,0,1-.1.086.2.2,0,0,1-.108.029.229.229,0,0,1-.227-.177c-.052-.189.157-.413.357-.607a1.954,1.954,0,0,1,1.061-.6,1.308,1.308,0,0,1,1.194.279.482.482,0,0,1,.116.671,3.578,3.578,0,0,1-.991,1,8.011,8.011,0,0,1-1.18.6.763.763,0,0,1-.152.021Z" fill="#595959"/>
        </g>
      </g>
      <g id="Group_67" data-name="Group 67">
        <g id="Group_59" data-name="Group 59">
          <path id="Path_90" data-name="Path 90" d="M459.081,313.861a16.227,16.227,0,0,1-1.834-.1,9.729,9.729,0,0,1-3.964-.99,3.366,3.366,0,0,1-.918-.706c-.045-.048-.092-.105-.139-.166a1.447,1.447,0,0,0-.244-.259,1.092,1.092,0,0,0-.339.38,1.694,1.694,0,0,1-2.317.655,1.884,1.884,0,0,1-.519-.5,2.5,2.5,0,0,1-.291-.872,16.159,16.159,0,0,1,.009-3.5,16.028,16.028,0,0,0-.028-2.791l-.008-.107a15.071,15.071,0,0,0-.3-1.971.407.407,0,0,1,.023-.26,3.324,3.324,0,0,1,.242-.61c.055-.105.124-.239.254-.239a.263.263,0,0,1,.207.231,7.047,7.047,0,0,1,.175.864c.071.568.106,1.215.154,1.812.069.833-.088,3.557-.1,3.741-.014.249-.17,2.472.631,3,.552.365,1.079.234,1.679-.426a7.752,7.752,0,0,0,.528-.643c.014-.021.031-.049.05-.079.093-.153.252-.368.46-.281.171.073.163.252.155.382a.509.509,0,0,0,.008.161A4.271,4.271,0,0,0,454.851,312l.157.042a16.2,16.2,0,0,0,4.443.6,21.529,21.529,0,0,0,3.241-.259c3.875-.6,5.038-1.138,5.889-1.537l.226-.1a5.691,5.691,0,0,0,1.618-.957c.209-.184.419-.185.527-.026a.6.6,0,0,1,.008.54c-.273.672-.14.767.254,1.05a1.766,1.766,0,0,0,.993.288,4.349,4.349,0,0,0,1.116-.1,10.2,10.2,0,0,0-.1-2.839c-.134-1.4-.206-2.769-.281-4.283-.018-.381-.04-.812-.1-1.231a3.121,3.121,0,0,1-.032-.344,1.151,1.151,0,0,1,.212-.669l.088-.138q.064-.106.135-.21c.141-.2.239-.209.283-.144a1.474,1.474,0,0,1,.094.232c.043.129.078.219.111.307l.294.8c.124.349.256.7.386,1.046l.227.61a.982.982,0,0,1,.077.779.21.21,0,0,1-.174.123c-.115,0-.16-.052-.24-.148l-.063-.077a1.294,1.294,0,0,0-.144-.161c-.094-.09-.119-.107-.187-.071s-.071.069-.052.426c.009.164.017.259.025.357l.04.4c.02.19.038.378.054.585.02.293.043.586.065.879.067.841.135,1.711.135,2.564a2.918,2.918,0,0,1-.128.828,3.536,3.536,0,0,1-.339.791,1.828,1.828,0,0,1-.695.736,2.52,2.52,0,0,1-.9.265,2.113,2.113,0,0,1-.491-.018,1.76,1.76,0,0,1-1.59-1.474.78.78,0,0,0-.033-.173l-.023-.054c-.069.021-.377.183-.525.261l-.1.055c-.107.055-.216.105-.324.155l-.106.05a20.219,20.219,0,0,1-2.322.93c-.562.184-1.056.328-1.512.436a28.718,28.718,0,0,1-4.731.71c-.444.026-.875.039-1.284.039Z" fill="#595959"/>
        </g>
        <g id="Group_60" data-name="Group 60">
          <path id="Path_91" data-name="Path 91" d="M438.367,314.594a12.91,12.91,0,0,1-1.535-.1,4.652,4.652,0,0,1-.994-.23,3.737,3.737,0,0,1-1.591-1.031,3.016,3.016,0,0,1-.752-1.8,4.623,4.623,0,0,1-.014-.755,5.523,5.523,0,0,1,.1-.8,8.227,8.227,0,0,1,.412-1.377,7.225,7.225,0,0,1,.6-1.279c.086-.147.193-.329.342-.329a.513.513,0,0,1,.082.02c.158.078.1.318.041.435l-.164.34a7.643,7.643,0,0,0-.676,1.742,3.779,3.779,0,0,0-.01,1.461,2.064,2.064,0,0,0,.2.629c.671,1.279,1.974,1.926,3.869,1.926a15.919,15.919,0,0,0,3.3-.444,12.668,12.668,0,0,0,4.3-1.808.513.513,0,0,0,.171-.234,1.543,1.543,0,0,0-.034-.8l-.033-.156c-.05-.252-.1-.505-.156-.757l-.172-.8c-.046-.215-.094-.43-.142-.644l-.019-.086c-.015-.071-.03-.142-.05-.212a.473.473,0,0,1,.027-.259c.039-.133.073-.229.106-.32.094-.276.206-.532.386-.532a.21.21,0,0,1,.136.053.781.781,0,0,1,.177.25l.213.383c.072.129.142.26.213.39l.193.354a.375.375,0,0,1,.075.311c-.042.1-.169.111-.268.084a.514.514,0,0,0-.063-.012c-.088,0-.116.025-.131.045-.1.125,0,.47.045.636l.021.076c.025.1.045.2.063.3a3.407,3.407,0,0,1,.022,1.014c-.022.193-.049.386-.085.575a2.414,2.414,0,0,1-.382.976,2.716,2.716,0,0,1-.744.658c-.26.168-.549.313-.827.455l-.27.138c-.4.206-.794.389-1.186.546a13.088,13.088,0,0,1-4.7.957Z" fill="#595959"/>
        </g>
        <g id="Group_61" data-name="Group 61">
          <path id="Path_92" data-name="Path 92" d="M437.477,304.7h0c-.078,0-.125-.025-.139-.076-.022-.09.047-.2.213-.349a.469.469,0,0,1,.086-.035,5.97,5.97,0,0,0,.733-.186l.086-.029c.236-.078.73-.239.712-.363-.009-.071-.345-.212-.812-.3a.77.77,0,0,0-.617.063.234.234,0,0,1-.37-.077c-.044-.15.075-.339.323-.5a2.816,2.816,0,0,1,1.232-.44,1.7,1.7,0,0,1,.806.122c.446.166.53.4.52.575-.021.419-.359.771-1.036,1.078a7.031,7.031,0,0,1-1.169.407,3.093,3.093,0,0,1-.568.115Z" fill="#595959"/>
        </g>
        <g id="Group_62" data-name="Group 62">
          <path id="Path_93" data-name="Path 93" d="M440.9,309.487a1.053,1.053,0,0,1-.315-.053,3.17,3.17,0,0,1-.605-.271,1.369,1.369,0,0,1-.461-.384c-.157-.25.254-.8.338-.914a.23.23,0,0,1,.211-.116.363.363,0,0,1,.142.03c.079.036.155.072.231.11.121.059.24.125.359.189s.217.118.326.176a.589.589,0,0,1,.334.314.565.565,0,0,1-.07.441,1.742,1.742,0,0,1-.144.239.479.479,0,0,1-.282.232c-.005,0-.058.007-.064.007Z" fill="#595959"/>
        </g>
        <g id="Group_63" data-name="Group 63">
          <path id="Path_94" data-name="Path 94" d="M453.412,307.625a.6.6,0,0,1-.274-.088l-.206-.1a4.737,4.737,0,0,1-.466-.235.652.652,0,0,1-.25-.171c-.133-.19.053-.477.174-.665l.056-.087c.311-.526.655-.225.665-.217h0s.528.308.72.442a.393.393,0,0,1,.151.58,1.683,1.683,0,0,1-.21.331.58.58,0,0,1-.282.2.3.3,0,0,1-.078.01Z" fill="#595959"/>
        </g>
        <g id="Group_64" data-name="Group 64">
          <path id="Path_95" data-name="Path 95" d="M469.964,315.279h0a1,1,0,0,1-.437-.156l-.082-.045a3.017,3.017,0,0,1-.474-.3c-.3-.229-.093-.589.047-.828l.046-.078c.064-.114.174-.268.494-.134a6.8,6.8,0,0,1,.746.386c.218.129.313.242.218.5-.064.178-.263.555-.433.625a.32.32,0,0,1-.125.023Z" fill="#595959"/>
        </g>
        <g id="Group_65" data-name="Group 65">
          <path id="Path_96" data-name="Path 96" d="M451.7,305.1h-.021a.186.186,0,0,1-.1-.082c-.033-.092.036-.233.187-.382a1.016,1.016,0,0,1,.429-.218c.047-.011.094-.023.141-.038l.444-.122c.264-.072.53-.145.794-.219.48-.135.945-.269,1.381-.429l.644-.233c.3-.113.609-.227.9-.358.064-.029.256-.072.323.006a.156.156,0,0,1,.028.128c-.054.294-.333.41-.556.5-.259.108-.531.194-.8.281-.25.079-.448.144-.642.211-.177.059-.353.12-.532.177-.227.07-.459.139-.692.206l-.541.16-1.263.377a.441.441,0,0,1-.131.033Z" fill="#595959"/>
        </g>
        <g id="Group_66" data-name="Group 66">
          <path id="Path_97" data-name="Path 97" d="M463.95,306.431c-.184,0-.23-.21-.25-.312l-.032-.133c-.03-.131-.048-.214-.1-.495a2.345,2.345,0,0,0-.14-.475.839.839,0,0,0-.078-.17.657.657,0,0,0-.158-.168.174.174,0,0,0-.235.038.389.389,0,0,0-.041.056c-.049.072-.1.146-.172.146a.466.466,0,0,1-.266-.174,1.012,1.012,0,0,1-.182-.327,1.089,1.089,0,0,1-.046-.709.343.343,0,0,1,.257-.243c.006,0,.065-.008.069-.008a.652.652,0,0,1,.365.135,2.768,2.768,0,0,1,.719.883,2.513,2.513,0,0,1,.131.284,3.774,3.774,0,0,1,.136.5.682.682,0,0,0,.135.34c-.007-.006.026-.036.046-.1a.868.868,0,0,0,.034-.138,4.775,4.775,0,0,0,.067-.511c.012-.125.017-.249.02-.372l.008-.21c0-.1,0-.194,0-.293,0-.13,0-.259.009-.375a2.285,2.285,0,0,1,.134-.618.559.559,0,0,1,.355-.4.568.568,0,0,1,.551.2.835.835,0,0,1,.166.305,1.467,1.467,0,0,1,.046.265.858.858,0,0,1-.024.233c-.019.07-.074.264-.214.264a.2.2,0,0,1-.058-.014.383.383,0,0,1-.181-.215c-.013-.023-.023-.047-.035-.066-.071-.12-.146-.18-.218-.18s-.117.145-.12.223c-.006.316-.032.659-.081,1.075l-.011.093c-.035.287-.069.584-.132.873a2.481,2.481,0,0,1-.112.384,1.186,1.186,0,0,1-.117.249.3.3,0,0,1-.242.159Z" fill="#595959"/>
        </g>
      </g>
    </g>
    <g id="Group_76" data-name="Group 76">
      <g id="Group_73" data-name="Group 73">
        <g id="Group_70" data-name="Group 70">
          <path id="Path_99" data-name="Path 99" d="M449.629,260.74h-4.82V233.32h27.418v4.819h-22.6Z" fill="#595959"/>
        </g>
        <g id="Group_71" data-name="Group 71">
          <path id="Path_100" data-name="Path 100" d="M499.387,260.74h4.818V233.32H476.787v4.819h22.6Z" fill="#595959"/>
        </g>
      </g>
      <path id="Path_102" data-name="Path 102" d="M473.109,254.781a.5.5,0,0,1-.062.57c-.237.366-.477.7-.967.739-.387.025-.49-.081-.43-.456.014-.094.05-.183.062-.277.031-.194-.065-.434.166-.549a2.015,2.015,0,0,1,.806-.085C472.844,254.746,473.019,254.653,473.109,254.781Zm-2.037-3.793a4.065,4.065,0,0,1,.816-.22c.1,0,.439.09.485.192.121.279-.442.375-.51.422-.185.136-.27.324-.494.391a.575.575,0,0,1-.659-.3C470.647,251.3,470.816,251.061,471.072,250.988Zm.509,8.2a1.308,1.308,0,0,0,.94-.206c.153-.123.307-.262.565-.13.079.093.018.224.037.311.022.141.083.234-.011.351a1.665,1.665,0,0,1-1.8.256.716.716,0,0,1-.2-.166c-.1-.141-.06-.372.105-.4A1.789,1.789,0,0,1,471.581,259.184Zm-1.982-3.557c.045-.132.115-.255.167-.386a.62.62,0,0,1,.471-.413c.139-.027.267-.085.406-.117.351-.087.524.065.429.415a1.662,1.662,0,0,1-.347.756,2.153,2.153,0,0,1-.749.306C469.607,256.148,469.467,255.958,469.6,255.627Zm-2.032.305a1.689,1.689,0,0,1,.982-.5c.2-.05.284.074.274.415-.028.048-.064.222-.166.269a4.017,4.017,0,0,1-.88.282c-.084.02-.24-.148-.285-.23C467.459,256.114,467.506,256.007,467.567,255.932Zm-.613,3.34a1.3,1.3,0,0,1,.562-.094c.078,0,.244-.065.336-.006s.067.225.067.316a.293.293,0,0,1-.23.331,1.755,1.755,0,0,1-.363,0v.011a.68.68,0,0,0-.135.016c-.146.046-.546.15-.527-.018S466.8,259.332,466.954,259.272Zm2.286,4.6c-.4.045-.89-.184-1.3-.146-.274.022-.526.154-.8.2-.072.015-.142.034-.181.043a.48.48,0,0,1-.466-.387.564.564,0,0,1,.278-.523.751.751,0,0,1,.635-.064,2.258,2.258,0,0,0,1.6-.165c.3-.134.455-.072.533.165S469.534,263.838,469.24,263.869Zm1.112-4.341a.441.441,0,0,1-.465.064c-.049-.022-.1,0-.148,0a1.564,1.564,0,0,0-.57.078,1.155,1.155,0,0,1-.3.1c-.179.01-.256-.081-.3-.257-.02-.076-.075-.183-.039-.272a.513.513,0,0,1,.238-.253,1.62,1.62,0,0,1,1.25-.106c.155.032.387.066.387.274C470.4,259.251,470.421,259.469,470.352,259.528Zm-.513,11.407c-.292.1-.429-.126-.586-.288a1.994,1.994,0,0,1-.672-1.3A1.131,1.131,0,0,1,469.839,270.935Zm.419-7.688c-.093-.319.02-.464.345-.461h.311a3.191,3.191,0,0,0,1.39-.272c.561-.267.631.416.645.7a.342.342,0,0,1-.132.248.929.929,0,0,1-.328.11c-.412.1-.982-.181-1.363.021A.56.56,0,0,1,470.258,263.247Zm1.651,7.629c-.094.277-.307.306-.489.078a2.571,2.571,0,0,1-.387-.65,6.27,6.27,0,0,1-.29-.9c-.089-.338-.121-.468.216-.581.151-.051.348.142.8-.024.546-.034.5.252.467.838C472.124,270.055,472.049,270.476,471.909,270.876Zm8.212-16.045a.723.723,0,0,1,.771.068.555.555,0,0,1,.055.611.986.986,0,0,1-.82.359.5.5,0,0,1-.315-.515A.518.518,0,0,1,480.121,254.831Zm-4.183-4.335a.705.705,0,0,1,.263-.052c.491,0,.924.413.781.763-.074.191-.182.237-.37.143-.168-.081-.551-.273-.7-.372-.09-.058-.48-.029-.47-.106S475.838,250.542,475.938,250.5Zm.7,4.937a.281.281,0,0,1-.242-.311c.016-.18.137-.239.3-.237h.3c0,.012.1,0,.1.013.239-.046.389-.066.63-.114.4-.077.785-.167,1.182-.231a.3.3,0,0,1,.367.32c.01.2.012.4.01.6a.321.321,0,0,1-.34.359,1.833,1.833,0,0,1-1.176-.186,1.443,1.443,0,0,0-.785-.193A1.782,1.782,0,0,1,476.633,255.433Zm1.314,3.928c-.163-.3-.138-.515.11-.652a9.2,9.2,0,0,1,1.231-.274.642.642,0,0,1,.784.665.323.323,0,0,1-.2.216,1.444,1.444,0,0,1-.491-.016,1.889,1.889,0,0,0-.74-.011A1.59,1.59,0,0,1,477.947,259.361Zm.52,9.932c-.26.414-.527.82-.809,1.217a1.882,1.882,0,0,1-.436.458c-.35.235-.654.1-.724-.327a2.772,2.772,0,0,1-.042-.52c-.01,0,.019-.069.01-.069a5.074,5.074,0,0,1,.058-.579c.089-.434.245-.94.641-.745.455.229.695-.043.986-.043a.6.6,0,0,1,.428.206C478.631,268.959,478.541,269.176,478.467,269.293Zm1.6-5.061a4.115,4.115,0,0,1-.454-.125,2.736,2.736,0,0,0-1.037-.177c-.3,0-.387-.065-.484-.375-.122-.4-.077-.25-.207-.655a.225.225,0,0,1,.15-.313.884.884,0,0,1,.671.054c.194.066.4.1.587.18a6.648,6.648,0,0,1,.951.433.793.793,0,0,1,.236.459C480.505,263.9,480.229,264.283,480.072,264.232Zm.273,5.229a4.3,4.3,0,0,1-.767,1,.648.648,0,0,1-.285-.885,1.467,1.467,0,0,1,.714-.541C480.267,268.926,480.441,269.177,480.345,269.461Zm1.807-9.766a4.053,4.053,0,0,0-.448-.079.578.578,0,0,1-.576-.541c-.051-.229.019-.356.248-.367.2-.007.129.1.332.123,0,.005.18.067.179.072.107.022.454-.061.565-.036.3.071.283.213.222.512C482.617,259.647,482.459,259.741,482.152,259.7Zm-1.962-8.115a.681.681,0,0,1-.389.119c-.273-.052-.526-.176-.76-.235-.166-.041-.3-.129-.3-.328,0-.152.246-.447.454-.406.37.071.46.456,1,.371C480.38,251.069,480.361,251.485,480.19,251.58Zm1.266,11.863c.313.282.936.573,1.234.873.048.043.04.188,0,.261a.5.5,0,0,1-.715.193c-.262-.153-.638-.167-.9-.313-.238-.133-.269-.238-.1-.461.092-.125.008-.392.114-.5A.279.279,0,0,1,481.456,263.443Zm.123-8.188c0-.189.067-.346.276-.371.153-.024.327.1.486.1.269-.04.8-.23.7.278a.674.674,0,0,1-.62.558,2.294,2.294,0,0,1-.635-.092C481.561,255.656,481.578,255.442,481.579,255.255Zm2.78,4.1c.111.107.145.421.213.564-.084.118-.326-.061-.457-.016a1.259,1.259,0,0,1-.459-.054c-.237-.031-.487.055-.566-.149-.069-.168-.175-.414.05-.586A1.065,1.065,0,0,1,484.359,259.36Zm.866,5.667c-.385-.115-.584.094-.888.069-.2-.016-.36-.1-.36-.331s-.153-.476.066-.523c.141-.029.563.073.7.066a3.079,3.079,0,0,1,.612.241.482.482,0,0,1,.2.342C485.574,265.066,485.371,265.074,485.225,265.027Zm5.272,1.686c-.291-.08-.9.079-1.139-.132a1.446,1.446,0,0,0-.718-.246c-.076-.017-.541.033-.624.007-.576-.161-.452-.647-1.093-.729a.481.481,0,0,1-.4-.529.416.416,0,0,1,.665-.344,1.294,1.294,0,0,0,1.074.334c.368-.062.726.219,1.072.379a2.727,2.727,0,0,0,1,.493,10.91,10.91,0,0,0,1.193.1.49.49,0,0,1,.1.035l.744.385a1.461,1.461,0,0,0,1.434-.3.279.279,0,0,0,.105-.438.886.886,0,0,0-.486-.417,2.337,2.337,0,0,1-1.01-.752,1.108,1.108,0,0,0-1.145-.467.847.847,0,0,1-.944-.4,2.433,2.433,0,0,0-.254-.264c-.076-.087-.142-.184-.219-.276.205-.157.205-.142.385-.133a7.5,7.5,0,0,0,.913.012c.274-.015.387-.11.408-.283.028-.214-.056-.339-.293-.453a1.194,1.194,0,0,1-.284-.147,7.62,7.62,0,0,0-2.095-1.315c-.124-.049-.8.075-1.06,0s-.522-.25-.653-.282c-.211-.052-.334.078-.652.053a.7.7,0,0,1-.494-.326c-.041-.073-.359-.094-.447-.2-.1-.124-.177-.344-.01-.441a1.814,1.814,0,0,1,.923.056s.7.216.91.242a3.789,3.789,0,0,1,.688.08,5.511,5.511,0,0,0,.927.17,7.855,7.855,0,0,0,1.234-.3c.184-.051.367-.128.549-.2.139-.053.271-.119.287-.288-.071-.2-.238-.24-.406-.284a9.7,9.7,0,0,1-1.587-.62.454.454,0,0,1-.194-.211,1.288,1.288,0,0,0-.587-.58c-.514-.279-1.025-.562-1.543-.838a.9.9,0,0,0-.312-.091,10.526,10.526,0,0,0-1.063-.076,1.739,1.739,0,0,1-1.07-.41c-.408-.343-.1-.75.13-1.115a.371.371,0,0,1,.378-.166c.292.034.585.059.877.092a2.881,2.881,0,0,0,1.368-.154,2.728,2.728,0,0,1,.637-.092c.182-.02.368-.009.545-.045.076-.016.191-.119.191-.188a.386.386,0,0,0-.139-.263c-.181-.125-.388-.207-.568-.329a5.1,5.1,0,0,1-.813-.614,1.1,1.1,0,0,0-.937-.392.891.891,0,0,1-.675-.213,2.545,2.545,0,0,0-1.334-.565,5.189,5.189,0,0,1-1.442-.494,2.671,2.671,0,0,0-.632-.149c-.191-.027-.392,0-.585-.014a.325.325,0,0,1-.324-.29c.009-.149.14-.235.348-.261.362-.041.727-.087,1.089-.147a1.854,1.854,0,0,0,.445-.145.337.337,0,0,0,.206-.393c-.03-.164-.164-.192-.3-.207a1.7,1.7,0,0,1-.182-.018c-.343-.085-.685-.169-1.024-.266a.4.4,0,0,1-.312-.329c-.036-.263-.216-.359-.441-.429a1.139,1.139,0,0,0-.753-.022,2.812,2.812,0,0,1-1.582.043c-.221-.044-.376-.165-.373-.3s.162-.232.416-.2c.585.064,1.045-.306,1.581-.406a.349.349,0,0,0,.083-.619,2.786,2.786,0,0,0-.881-.505c-.676-.159-1.248-.552-1.906-.734a.8.8,0,0,1-.219-.128,3.349,3.349,0,0,0-2.021-.633,3.13,3.13,0,0,0-.992.185,2.058,2.058,0,0,0-.493.208,2.312,2.312,0,0,1-1.546.62,2.528,2.528,0,0,0-1.616.793c-.174.153-.365.286-.534.441a.68.68,0,0,0-.219.28c-.094.24.065.418.317.379a1.679,1.679,0,0,0,.239-.088,1.207,1.207,0,0,1,.311-.087,4.644,4.644,0,0,0,1.146-.168.3.3,0,0,1,.354.2c-.034.316-.356.633-.931.585a3.383,3.383,0,0,0-1.339.274,2,2,0,0,0-1.145.449c-.319.3-.67.247-1.111.363a6.96,6.96,0,0,0-1.133.5.893.893,0,0,0-.233.17.459.459,0,0,0-.046.51.364.364,0,0,0,.429.113c.09-.028.172-.1.261-.128a1.775,1.775,0,0,1,.477-.155,13.055,13.055,0,0,1,2.156.033c.158.02.309.071.332.23.016.114-.032.307-.113.349-.393.207-.809.374-1.216.557a2.139,2.139,0,0,0-1.688.646,1.6,1.6,0,0,1-1.053.45,3.292,3.292,0,0,0-1.608.516c-.583.319-1.114.736-1.731,1a.745.745,0,0,0-.27.187.274.274,0,0,0,.088.431.826.826,0,0,0,.242.069c.229.047.455.084.683.123a.945.945,0,0,0,.288.022,1.507,1.507,0,0,1,.991.161.839.839,0,0,0,.775,0,6.572,6.572,0,0,1,.718-.273.82.82,0,0,1,.7.08c.145.09.316.168.284.381a.742.742,0,0,1-.482.51,1.219,1.219,0,0,1-.218,0,1.423,1.423,0,0,0-.924.125.7.7,0,0,1-.346.1,4.319,4.319,0,0,0-1.219.464,8.5,8.5,0,0,0-1.274.71,2.875,2.875,0,0,0-.542.421,4.517,4.517,0,0,1-1.092.851,3.316,3.316,0,0,0-.6.414.682.682,0,0,0-.178.312.19.19,0,0,0,.215.254,1.368,1.368,0,0,0,.382-.119.687.687,0,0,1,.784.068.95.95,0,0,0,.411.128,2.761,2.761,0,0,0,.473.031,2.4,2.4,0,0,0,1.329-.438c.229-.123.381.031.473,0,.168-.065.227-.061.391-.134.322-.14.458-.48,1.046-.348.055.013.12-.024.182-.022.159.009.24.133.261.291.039.336-.061.651-.326.672-.122.013-.533.073-.653.072a.786.786,0,0,0-.667.264c-.39.371-.765.08-1.192.238a1.442,1.442,0,0,0-.662.365c-.42.541-1.814.825-2.284.964a3.239,3.239,0,0,0-.524.245,3.683,3.683,0,0,1-.922.51.764.764,0,0,0-.342.262c-.054.062-.115.209-.082.253a.442.442,0,0,0,.288.177,1.277,1.277,0,0,0,.382-.093c.356-.091.708-.187,1.064-.262a1.158,1.158,0,0,1,.331.032c.01.028.015.053.024.082a1.67,1.67,0,0,1-.188.188c-.144.1-.311.162-.439.267a1.067,1.067,0,0,0-.282.36c-.082.189.022.31.235.289a1.259,1.259,0,0,0,.489-.131,8.632,8.632,0,0,1,1.84-.524,8.73,8.73,0,0,1,1.064-.211,2.415,2.415,0,0,0,1.451-.219c.161-.091.311-.194.463-.293.174-.114.341-.117.429.009a.94.94,0,0,1-.182,1.2,2.24,2.24,0,0,0-.359.269c-.238.18-.491.106-.762.075a6.242,6.242,0,0,0-.759-.071c-.349.008-.718.133-1.074.141a.927.927,0,0,0-.538.183,2.286,2.286,0,0,1-1.083.352,1.7,1.7,0,0,0-1.394.952c-.143.346-.42.218-.765.256a2.787,2.787,0,0,0-.555.156c-.112.038-.217.107-.332.144-.427.131-.4.265-.443.643-.026.225-.016.258-.262.309-.166.033-.334.058-.5.1a7.742,7.742,0,0,0-1.419.724.369.369,0,0,0-.194.434.357.357,0,0,0,.433.182c.125-.025.252-.058.381-.086.013.031.022.063.035.1a2.173,2.173,0,0,1-.832.454,8.326,8.326,0,0,0-1.142.357.265.265,0,0,0-.09.057c-.151.134-.415.231-.315.476.084.226.334.2.547.172.409-.044.821-.076,1.231-.123a1.147,1.147,0,0,0,.31-.1,2.353,2.353,0,0,1,.727-.194c.439-.044.385.036.793.166a3.267,3.267,0,0,0,1.179.158,1.334,1.334,0,0,0,.557-.144,1.548,1.548,0,0,1,.733-.179c.441-.022.874-.063,1.308-.121a1.621,1.621,0,0,1,1.007.259.362.362,0,0,1,.133.272c0,.057-.128.13-.21.157a5.325,5.325,0,0,0-1.262.729,2.068,2.068,0,0,0-.426.4,1.157,1.157,0,0,0-.206.3.261.261,0,0,0,.245.386,1.362,1.362,0,0,0,.448-.113,4.23,4.23,0,0,1,.775-.312,10.909,10.909,0,0,1,1.564-.146,4.865,4.865,0,0,0,1.652-.256,3.006,3.006,0,0,0,1.157-.511c.247-.233.783-.02,1.079.04a3.017,3.017,0,0,1,1.059.348,11.522,11.522,0,0,1,1.3,1.1,1.984,1.984,0,0,1,1.019,1.344,12.074,12.074,0,0,1,.2,1.375,1.475,1.475,0,0,1-.137.556c-.08.227-.189.448-.285.669a2.023,2.023,0,0,1-.221.461,12.717,12.717,0,0,1-1.7,1.791c-.447.375-1.4.58-1.769,1.028-.017.019-.087.242-.1.263a.294.294,0,0,0,.279.452,1.339,1.339,0,0,0,.251-.031,2.408,2.408,0,0,1,1.407.166c.076.034.163.053.242.084a4.972,4.972,0,0,1,.477.169A6.634,6.634,0,0,0,470.9,281c.192-.022.52.148.719.159.5.025,3.346-.231,3.427-.212a4.368,4.368,0,0,0,1.432.216,6.569,6.569,0,0,1,1.059,0,1.985,1.985,0,0,0,1.009-.275,19.652,19.652,0,0,1,3.688-.2,3.01,3.01,0,0,0,1.719-.056c.315-.11.356-.28.145-.553-.139-.174-.177-.207-.3-.38a1.672,1.672,0,0,0-1.245-.753.519.519,0,0,1-.278-.183A5.335,5.335,0,0,0,481,277.685a6.444,6.444,0,0,1-.918-.6,1.778,1.778,0,0,1-.7-1.2,4.883,4.883,0,0,1,.22-2.42,10.344,10.344,0,0,1,.475-1.321,9.944,9.944,0,0,1,1.084-1.377.311.311,0,0,1,.458-.075,1.731,1.731,0,0,0,1.079.264,2.347,2.347,0,0,1,1.059.2,3.8,3.8,0,0,0,1.08.252.265.265,0,0,1,.036.014,1.582,1.582,0,0,0,.819.133.993.993,0,0,1,.887.316,1.26,1.26,0,0,0,1.313.323,1.059,1.059,0,0,1,.711.033,2.466,2.466,0,0,0,2.084-.027c.164-.081.3-.18.291-.384s-.168-.271-.348-.315a8.116,8.116,0,0,1-1.341-.342c-.7-.3-1.421-.569-2.133-.841a1.648,1.648,0,0,0-.525-.127,1.018,1.018,0,0,1-.632-.253c-.062-.048-.079-.15-.139-.266.3,0,.524-.006.754,0a3.317,3.317,0,0,1,1.8.5,2.177,2.177,0,0,0,.694.324,2.337,2.337,0,0,0,1.037.071,1.689,1.689,0,0,1,1.226.025,12.049,12.049,0,0,0,1.344.433c.078.028.15.079.23.114a1.459,1.459,0,0,0,.342.118c.363.044.728.068,1.092.1a.831.831,0,0,0,.684-.285c.234-.23.219-.422-.055-.592-.17-.109-.364-.2-.545-.291-.115-.055-.248-.1-.2-.261s.2-.112.315-.1a.7.7,0,0,1,.139.05,2.4,2.4,0,0,1,.789.358.363.363,0,0,0,.55-.056c.113-.215-.074-.31-.2-.414a8.723,8.723,0,0,0-1.424-.959,1.516,1.516,0,0,0-.754-.237.55.55,0,0,1-.461-.2,1,1,0,0,1,.123-.178c.187-.212.2-.322,0-.517a.836.836,0,0,0-.371-.215c-.235-.053-.51.027-.721-.077A9.347,9.347,0,0,0,490.5,266.713Z" fill="#9e9e9e"/>
      <g id="Group_74" data-name="Group 74">
        <path id="Path_103" data-name="Path 103" d="M476.788,287.9v4.818h27.417V265.3h-4.818v22.6Z" fill="#595959"/>
      </g>
      <g id="Group_75" data-name="Group 75">
        <path id="Path_104" data-name="Path 104" d="M472.227,287.9v4.818H444.809V265.3h4.82v22.6Z" fill="#595959"/>
      </g>
    </g>
  </g>
  <path id="Path_105" data-name="Path 105" d="M464.079,324.109a3.375,3.375,0,0,1-.15,1.244,1.167,1.167,0,0,1-.627.58,2.129,2.129,0,0,1-.917.2,1.258,1.258,0,0,1-1.12-.479,2.52,2.52,0,0,1-.265-1.357v-3.729h-1.292v3.46a4.889,4.889,0,0,0,.157,1.534,2.339,2.339,0,0,0,2.467,1.37,2.9,2.9,0,0,0,1.579-.384,2.062,2.062,0,0,0,.853-1.086,4.4,4.4,0,0,0,.146-1.312v-3.582h-.831Z" transform="translate(-433.472 -233.32)" fill="#595959"/>
  <g id="Group_80" data-name="Group 80" transform="translate(-433.472 -233.32)">
    <g id="Group_79" data-name="Group 79">
      <g id="Group_78" data-name="Group 78">
        <path id="Path_106" data-name="Path 106" d="M450.262,324.595l-3.451-4.027h-.768v6.361h.82v-4.348l3.749,4.348h.473v-6.361h-.823Z" fill="#595959"/>
        <path id="Path_107" data-name="Path 107" d="M478.3,320.793a6.438,6.438,0,0,0-1.909-.226h-1.83v6.362h2.075a3.716,3.716,0,0,0,2.822-.994,3.122,3.122,0,0,0,.837-2.217,3.269,3.269,0,0,0-.467-1.742A2.746,2.746,0,0,0,478.3,320.793Zm.541,2.968a2.542,2.542,0,0,1-.578,1.717,2.044,2.044,0,0,1-1.655.712,4.181,4.181,0,0,1-.757-.084v-4.693a3.554,3.554,0,0,1,.721-.083,2.115,2.115,0,0,1,1.687.7A2.538,2.538,0,0,1,478.844,323.761Z" fill="#595959"/>
        <rect id="Rectangle_55" data-name="Rectangle 55" width="1.29" height="6.361" transform="translate(495.544 320.567)" fill="#595959"/>
        <path id="Path_108" data-name="Path 108" d="M514.938,320.567v4.027l-3.451-4.027h-.768v6.361h.824v-4.348l3.749,4.348h.471v-6.361Z" fill="#595959"/>
      </g>
    </g>
    <path id="Path_109" data-name="Path 109" d="M437.557,323.647a1.439,1.439,0,0,0,.714-1.281,1.5,1.5,0,0,0-.48-1.129,2.244,2.244,0,0,0-1.086-.557,5.688,5.688,0,0,0-1.242-.113h-1.986v6.362h2.236a4.881,4.881,0,0,0,1.618-.2,1.9,1.9,0,0,0,.867-.623,1.623,1.623,0,0,0,.358-1.012,1.506,1.506,0,0,0-.509-1.145A1.718,1.718,0,0,0,437.557,323.647Zm-.656-1.316a.94.94,0,0,1-.145.506c-.189.306-.638.463-1.329.463a6.31,6.31,0,0,1-.647-.032v-1.924a3.248,3.248,0,0,1,.606-.055,2.026,2.026,0,0,1,1.061.256A.865.865,0,0,1,436.9,322.331Zm-2.121,3.78v-2.068c.141-.009.343-.015.593-.015a2.678,2.678,0,0,1,1.01.167.986.986,0,0,1,.7.972.851.851,0,0,1-.436.773A2.755,2.755,0,0,1,434.78,326.111Z" fill="#595959"/>
  </g>
  <path id="Path_110" data-name="Path 110" d="M491.328,326.18v-5.612h-1.294v6.361h4.378v-.749Z" transform="translate(-433.472 -233.32)" fill="#333"/>
  <path id="Path_111" data-name="Path 111" d="M470.845,321.319v-.752h-4.29v6.361h4.29v-.749h-2.991v-2.2h2.5v-.748h-2.5v-1.917Z" transform="translate(-433.472 -233.32)" fill="#333"/>
  <g id="Group_81" data-name="Group 81" transform="translate(-433.472 -233.32)">
    <path id="Path_112" data-name="Path 112" d="M441.137,324.261H442.6l-.724-1.632Z" fill="none"/>
    <path id="Path_113" data-name="Path 113" d="M443.737,326.929h1.623l-3.017-6.362h-.427l-2.91,6.362h.92l.881-1.931h2.108Zm-2.6-2.668.742-1.632.724,1.632Z" fill="#333"/>
  </g>
  <path id="Path_114" data-name="Path 114" d="M485.46,324.113a3.383,3.383,0,0,1-.15,1.245,1.167,1.167,0,0,1-.627.578,2.119,2.119,0,0,1-.918.2,1.254,1.254,0,0,1-1.119-.478,2.523,2.523,0,0,1-.266-1.357v-3.731h-1.293v3.461a4.888,4.888,0,0,0,.158,1.535,2.338,2.338,0,0,0,2.467,1.37,2.885,2.885,0,0,0,1.579-.385,2.05,2.05,0,0,0,.853-1.085,4.362,4.362,0,0,0,.146-1.312v-3.584h-.83Z" transform="translate(-433.472 -233.32)" fill="#595959"/>
  <path id="Path_115" data-name="Path 115" d="M463.2,327.948a.526.526,0,0,0-.13.042,4.118,4.118,0,0,1-1.658.2,6.587,6.587,0,0,1-3.333-1.457l-.34-.248-.4-.331c.071-.063.141-.129.207-.2a3.118,3.118,0,0,0,.893-2.248,3.132,3.132,0,0,0-3.166-3.149,3.318,3.318,0,0,0-2.215.794,3,3,0,0,0-1.067,2.368,3.1,3.1,0,0,0,3.209,3.2,3.432,3.432,0,0,0,1.063-.16l.269-.148.755.621-.016-.018a5.195,5.195,0,0,0,5.89.935c.059-.025.1-.05.108-.107A.086.086,0,0,0,463.2,327.948Zm-8.012-1.731a1.418,1.418,0,0,1-1.145-.5,3.009,3.009,0,0,1-.593-2.012,2.874,2.874,0,0,1,.569-1.933,1.475,1.475,0,0,1,1.167-.495,1.5,1.5,0,0,1,1.43.8,3.608,3.608,0,0,1,.361,1.739,3.169,3.169,0,0,1-.38,1.649A1.518,1.518,0,0,1,455.185,326.217Z" transform="translate(-433.472 -233.32)" fill="#595959"/>
  <path id="Path_116" data-name="Path 116" d="M502.187,323.647a1.439,1.439,0,0,0,.714-1.281,1.507,1.507,0,0,0-.479-1.129,2.261,2.261,0,0,0-1.087-.557,5.684,5.684,0,0,0-1.241-.113h-1.988v6.362h2.238a4.885,4.885,0,0,0,1.618-.2,1.9,1.9,0,0,0,.866-.623,1.623,1.623,0,0,0,.358-1.012,1.5,1.5,0,0,0-.509-1.145A1.7,1.7,0,0,0,502.187,323.647Zm-.656-1.316a.949.949,0,0,1-.145.506c-.189.306-.638.463-1.328.463a6.373,6.373,0,0,1-.65-.032v-1.924a3.306,3.306,0,0,1,.609-.055,2.018,2.018,0,0,1,1.059.256A.864.864,0,0,1,501.531,322.331Zm-2.123,3.78v-2.068c.144-.009.347-.015.594-.015a2.689,2.689,0,0,1,1.012.167.985.985,0,0,1,.7.972.85.85,0,0,1-.437.773A2.757,2.757,0,0,1,499.408,326.111Z" transform="translate(-433.472 -233.32)" fill="#595959"/>
  <g id="Group_82" data-name="Group 82" transform="translate(-433.472 -233.32)">
    <path id="Path_117" data-name="Path 117" d="M505.768,324.261h1.466l-.725-1.632Z" fill="none"/>
    <path id="Path_118" data-name="Path 118" d="M508.366,326.929h1.623l-3.015-6.362h-.428l-2.909,6.362h.92l.879-1.931h2.109Zm-2.6-2.668.741-1.632.724,1.632Z" fill="#333"/>
  </g>
</svg>
