<svg id="The_mint_experience" xmlns="http://www.w3.org/2000/svg" width="290.07" height="30.085" viewBox="0 0 290.07 30.085">
  <g id="Group_155" data-name="Group 155">
    <g id="Group_106" data-name="Group 106" transform="translate(0.009 7.943)">
      <rect id="Rectangle_62" data-name="Rectangle 62" width="7.13" height="21.806" transform="translate(33.775)"/>
      <path id="Path_177" data-name="Path 177" d="M225.746,154.891v0h0v1.325h6.362v20.475h6.85V156.22h6.34v-1.329Z" transform="translate(-157.378 -154.891)"/>
      <path id="Path_178" data-name="Path 178" d="M155.819,154.891h-.824l-.07.053-5.08,13.889-4.662-10.171a5.851,5.851,0,0,0-1.618-1.93,8.074,8.074,0,0,0-1.777-1.074,8.817,8.817,0,0,0-1.65-.546,10.061,10.061,0,0,0-1.713-.217h-6.042v.249a8,8,0,0,1,1.091.155,6.946,6.946,0,0,1,1.2.421,9.287,9.287,0,0,1,1.448.827,3.864,3.864,0,0,1,.514.466c.176.187.359.394.546.623l.248.341a24.958,24.958,0,0,1,1.807,3.115q.934,1.866,1.868,3.938t1.854,4.158q.917,2.089,1.758,3.755a19.7,19.7,0,0,0,1.6,2.709c.51.693.97,1.042,1.386,1.042h.276l.253-.067,7.194-19.669v19.736H162.4V154.9h-6.586Z" transform="translate(-132.384 -154.891)"/>
      <path id="Path_179" data-name="Path 179" d="M213.873,154.9h-.483v13.369L203.3,157.044a7.23,7.23,0,0,0-1.806-1.23,12.049,12.049,0,0,0-1.558-.636,4.85,4.85,0,0,0-1.494-.282h-6.726v.249a4.717,4.717,0,0,1,1.058.5,11.325,11.325,0,0,1,1.137.746,13.758,13.758,0,0,1,1.354,1.154l.89.913V176.7h.034v0h.866v0h.429V159.872l14.785,16.046a2.1,2.1,0,0,0,1.837.778h.19v0h.42v0h0V154.9h-.842Z" transform="translate(-148.268 -154.892)"/>
    </g>
    <g id="Group_107" data-name="Group 107" transform="translate(92.514 7.943)">
      <path id="Path_180" data-name="Path 180" d="M258.708,155.391h15.475v2.2H261.125v7.31h11.683v2.2H261.125V174.6h13.212v2.2H258.708Z" transform="translate(-258.708 -155.025)"/>
      <path id="Path_181" data-name="Path 181" d="M292.72,165.881l-7.92-10.49h2.843l6.575,8.746,6.515-8.746h2.813l-7.92,10.46,8.227,10.95h-2.876l-6.851-9.206-6.851,9.206h-2.783Z" transform="translate(-265.611 -155.025)"/>
      <path id="Path_182" data-name="Path 182" d="M317.005,155.391h8.013c4.832,0,8.013,2.569,8.013,6.79v.06c0,4.619-3.853,7-8.41,7h-5.2V176.8h-2.416Zm7.707,11.654c3.549,0,5.872-1.9,5.872-4.711v-.062c0-3.058-2.294-4.649-5.749-4.649h-5.414v9.422Z" transform="translate(-274.315 -155.025)"/>
      <path id="Path_183" data-name="Path 183" d="M344.919,155.391h15.475v2.2h-13.06v7.31h11.684v2.2H347.335V174.6h13.213v2.2H344.919Z" transform="translate(-281.788 -155.025)"/>
      <path id="Path_184" data-name="Path 184" d="M372.919,155.391h9.206a8.447,8.447,0,0,1,6.086,2.14,5.914,5.914,0,0,1,1.651,4.222v.06c0,3.549-2.447,5.628-5.811,6.239l6.576,8.749h-2.966l-6.209-8.319h-6.118V176.8h-2.415Zm8.992,10.918c3.21,0,5.5-1.651,5.5-4.4v-.062c0-2.63-2.019-4.22-5.475-4.22h-6.607v8.686Z" transform="translate(-289.284 -155.025)"/>
      <path id="Path_185" data-name="Path 185" d="M403.425,155.391h2.416V176.8h-2.416Z" transform="translate(-297.451 -155.025)"/>
      <path id="Path_186" data-name="Path 186" d="M415.292,155.391h15.475v2.2h-13.06v7.31h11.684v2.2H417.708V174.6h13.213v2.2H415.292Z" transform="translate(-300.628 -155.025)"/>
      <path id="Path_187" data-name="Path 187" d="M443.291,155.391h2.263l13.488,17.157V155.391H461.4V176.8h-1.929l-13.823-17.557V176.8h-2.355Z" transform="translate(-308.123 -155.025)"/>
      <path id="Path_188" data-name="Path 188" d="M475.009,166.022v-.061a10.785,10.785,0,0,1,10.827-11.071,11.14,11.14,0,0,1,8.35,3.393l-1.652,1.776a9.3,9.3,0,0,0-6.728-2.936c-4.74,0-8.289,3.852-8.289,8.777v.061c0,4.954,3.579,8.839,8.289,8.839,2.937,0,4.863-1.131,6.912-3.089l1.591,1.561a11.15,11.15,0,0,1-8.563,3.761A10.679,10.679,0,0,1,475.009,166.022Z" transform="translate(-316.615 -154.891)"/>
      <path id="Path_189" data-name="Path 189" d="M507.145,155.391H522.62v2.2H509.561v7.31h11.683v2.2H509.561V174.6h13.213v2.2H507.145Z" transform="translate(-325.218 -155.025)"/>
    </g>
    <g id="Group_108" data-name="Group 108" transform="translate(0 0)">
      <path id="Path_190" data-name="Path 190" d="M133.724,144.945h-1.352v-.9h3.681v.9H134.7v3.542h-.978Z" transform="translate(-132.372 -144.044)"/>
      <path id="Path_191" data-name="Path 191" d="M138.851,144.044h.978V145.8h1.8v-1.758h.977v4.443h-.977V146.7h-1.8v1.782h-.978Z" transform="translate(-134.107 -144.044)"/>
      <path id="Path_192" data-name="Path 192" d="M145.866,144.044h3.351v.869h-2.38v.9h2.094v.868h-2.094v.933h2.411v.87h-3.382Z" transform="translate(-135.985 -144.044)"/>
    </g>
  </g>
</svg>
